<svg width="16" height="16" viewBox="0 0 16 16" fill="none" xmlns="http://www.w3.org/2000/svg">
<g id="Group">
<path id="Vector" d="M2.66591 4.27556L0.503906 2.11423L1.44724 1.1709L3.60857 3.3329H13.7699C13.8738 3.33289 13.9763 3.35717 14.0692 3.40381C14.162 3.45045 14.2427 3.51814 14.3047 3.6015C14.3668 3.68485 14.4085 3.78155 14.4265 3.88389C14.4445 3.98622 14.4384 4.09136 14.4086 4.1909L12.8086 9.52423C12.7674 9.66162 12.683 9.78207 12.568 9.8677C12.4529 9.95333 12.3133 9.99957 12.1699 9.99956H3.99924V11.3329H11.3326V12.6662H3.33257C3.15576 12.6662 2.98619 12.596 2.86117 12.471C2.73614 12.3459 2.66591 12.1764 2.66591 11.9996V4.27556ZM3.99924 4.66623V8.66623H11.6739L12.8739 4.66623H3.99924ZM3.66591 15.3329C3.40069 15.3329 3.14634 15.2275 2.9588 15.04C2.77126 14.8525 2.66591 14.5981 2.66591 14.3329C2.66591 14.0677 2.77126 13.8133 2.9588 13.6258C3.14634 13.4383 3.40069 13.3329 3.66591 13.3329C3.93112 13.3329 4.18548 13.4383 4.37301 13.6258C4.56055 13.8133 4.66591 14.0677 4.66591 14.3329C4.66591 14.5981 4.56055 14.8525 4.37301 15.04C4.18548 15.2275 3.93112 15.3329 3.66591 15.3329ZM11.6659 15.3329C11.4007 15.3329 11.1463 15.2275 10.9588 15.04C10.7713 14.8525 10.6659 14.5981 10.6659 14.3329C10.6659 14.0677 10.7713 13.8133 10.9588 13.6258C11.1463 13.4383 11.4007 13.3329 11.6659 13.3329C11.9311 13.3329 12.1855 13.4383 12.373 13.6258C12.5605 13.8133 12.6659 14.0677 12.6659 14.3329C12.6659 14.5981 12.5605 14.8525 12.373 15.04C12.1855 15.2275 11.9311 15.3329 11.6659 15.3329Z" fill="white"/>
</g>
</svg>
