<svg width="16" height="16" viewBox="0 0 16 16" fill="none" xmlns="http://www.w3.org/2000/svg">
<g id="Group">
<path id="Vector" d="M2.66688 4.27556L0.504883 2.11423L1.44822 1.1709L3.60955 3.3329H13.7709C13.8748 3.33289 13.9773 3.35717 14.0701 3.40381C14.163 3.45045 14.2437 3.51814 14.3057 3.6015C14.3678 3.68485 14.4095 3.78155 14.4275 3.88389C14.4455 3.98622 14.4394 4.09136 14.4095 4.1909L12.8096 9.52423C12.7684 9.66162 12.684 9.78207 12.569 9.8677C12.4539 9.95333 12.3143 9.99957 12.1709 9.99956H4.00022V11.3329H11.3335V12.6662H3.33355C3.15674 12.6662 2.98717 12.596 2.86215 12.471C2.73712 12.3459 2.66688 12.1764 2.66688 11.9996V4.27556ZM3.66688 15.3329C3.40167 15.3329 3.14731 15.2275 2.95978 15.04C2.77224 14.8525 2.66688 14.5981 2.66688 14.3329C2.66688 14.0677 2.77224 13.8133 2.95978 13.6258C3.14731 13.4383 3.40167 13.3329 3.66688 13.3329C3.9321 13.3329 4.18645 13.4383 4.37399 13.6258C4.56153 13.8133 4.66688 14.0677 4.66688 14.3329C4.66688 14.5981 4.56153 14.8525 4.37399 15.04C4.18645 15.2275 3.9321 15.3329 3.66688 15.3329ZM11.6669 15.3329C11.4017 15.3329 11.1473 15.2275 10.9598 15.04C10.7722 14.8525 10.6669 14.5981 10.6669 14.3329C10.6669 14.0677 10.7722 13.8133 10.9598 13.6258C11.1473 13.4383 11.4017 13.3329 11.6669 13.3329C11.9321 13.3329 12.1865 13.4383 12.374 13.6258C12.5615 13.8133 12.6669 14.0677 12.6669 14.3329C12.6669 14.5981 12.5615 14.8525 12.374 15.04C12.1865 15.2275 11.9321 15.3329 11.6669 15.3329Z" fill="white"/>
</g>
</svg>
