<svg width="241" height="240" viewBox="0 0 241 240" fill="none" xmlns="http://www.w3.org/2000/svg">
<g id="136881266_3bad0882-9148-479b-8b45-0edd44f34739 1" opacity="0.8">
<path id="Vector" d="M228.707 53.764L228.715 53.7682L223.401 50.6801C222.914 50.3972 222.239 50.4378 221.494 50.8678L211.294 56.7571C204.281 60.8061 198.034 68.8565 194.782 77.5318L145.206 48.7211C147.193 41.6867 152.153 34.7911 157.814 31.5232L168.014 25.6339C169.492 24.7807 170.687 22.7114 170.682 21.0132C170.68 20.1672 170.38 19.574 169.897 19.2971L169.903 19.3007L164.59 16.2126C164.103 15.9297 163.428 15.9702 162.683 16.4004L152.482 22.2895C145.405 26.3757 139.109 34.5366 135.882 43.3026L130.96 40.442C129.737 39.7314 128.041 39.8205 126.144 40.9159L18.1818 103.248C14.0237 105.649 10.8597 111.749 11.5175 116.096L19.7347 170.347C19.9668 171.881 20.6474 172.962 21.6212 173.528L89.3713 212.9L89.3627 212.895C90.6031 213.621 92.3212 213.508 94.1933 212.428L104.026 206.751C102.955 209.134 102.33 211.645 102.336 213.961C102.345 216.939 103.396 219.034 105.092 220.02L110.661 223.256L110.515 223.163C112.243 224.258 114.681 224.157 117.382 222.598C122.598 219.586 126.812 212.285 126.795 206.291C126.787 203.304 125.728 201.205 124.024 200.223L124.039 200.232L119.693 197.706L162.961 172.724C161.93 175.064 161.331 177.519 161.337 179.787C161.346 182.765 162.397 184.86 164.093 185.846L169.662 189.082L169.516 188.989C171.244 190.084 173.682 189.983 176.383 188.424C181.599 185.412 185.813 178.111 185.796 172.117C185.787 169.13 184.729 167.031 183.024 166.049L183.04 166.058L178.788 163.587L186.06 159.388C188.767 157.826 191.143 154.609 192.21 151.267C194.594 147.646 196.269 143.453 196.77 139.397L203.331 86.3479C204.533 78.3018 210.117 69.7482 216.625 65.9907L226.825 60.1014C228.303 59.2482 229.498 57.1789 229.493 55.4808C229.491 54.6341 229.191 54.0407 228.707 53.764ZM40.485 114.305L39.6999 107.88C39.3876 105.309 41.0697 101.824 43.4569 100.094C43.6492 99.9577 43.8334 99.8376 44.0177 99.7254C46.1726 98.4837 48.0631 99.2447 48.3434 101.616L50.5704 119.832L40.485 114.305ZM59.6063 124.791L58.4608 96.6252C58.3487 93.9176 60.207 90.5051 62.6102 88.9991C62.6743 88.959 62.7304 88.9271 62.7945 88.887C65.1336 87.5412 67.064 88.5265 67.1682 91.17L68.7463 129.797L59.6063 124.791ZM85.9602 80.7456L84.5338 123.317C84.4442 126.065 82.517 129.285 80.195 130.625C80.1336 130.661 80.0723 130.696 80.0058 130.729C77.6016 131.999 75.7282 130.738 75.8227 127.917L77.2491 85.3513C77.3413 82.5916 79.2727 79.3758 81.6056 78.0287C81.6627 77.9956 81.7197 77.9641 81.7772 77.9334C84.1814 76.6632 86.0548 77.9245 85.9602 80.7456ZM104.722 70.3377L100.206 114.687C99.9317 117.382 98.0599 120.311 95.8966 121.56C95.7123 121.666 95.5282 121.761 95.3389 121.841C92.9494 122.867 91.2545 121.332 91.5536 118.41L96.0692 74.0615C96.3403 71.3699 98.2141 68.4388 100.378 67.1894C100.561 67.084 100.745 66.9906 100.931 66.9103C103.321 65.8839 105.021 67.416 104.722 70.3377ZM123.452 59.9357L115.847 106.068C115.419 108.676 113.613 111.331 111.598 112.495C111.296 112.669 110.995 112.808 110.687 112.909C108.328 113.694 106.817 111.9 107.31 108.907L114.915 62.7746C115.345 60.1633 117.154 57.5054 119.172 56.3401C119.472 56.1672 119.775 56.0273 120.08 55.9251C122.434 55.1429 123.946 56.9371 123.452 59.9357Z" fill="#EBEDEE"/>
<path id="Vector_2" d="M199.938 81.0472C199.614 80.5111 199.194 80.0932 198.697 79.8072L198.71 79.8144L194.782 77.5319L145.206 48.7212L141.196 46.391L135.882 43.3029L130.959 40.4422C129.737 39.7316 128.041 39.8207 126.144 40.9161L18.1818 103.248C14.0237 105.649 10.8597 111.749 11.5175 116.096L19.7347 170.347C19.9668 171.881 20.6474 172.962 21.6212 173.528L89.3713 212.9L89.3627 212.895C90.6031 213.621 92.3212 213.508 94.1933 212.428L104.026 206.751L119.693 197.706L162.961 172.724L178.788 163.587L186.06 159.388C188.767 157.826 191.143 154.609 192.21 151.267C192.455 150.498 192.631 149.722 192.726 148.958L200.609 85.4114C200.837 83.5783 200.569 82.0894 199.938 81.0472ZM40.485 114.305L39.6999 107.88C39.3876 105.309 41.0697 101.824 43.4569 100.094C43.6492 99.9577 43.8334 99.8376 44.0177 99.7254C46.1726 98.4838 48.0631 99.2447 48.3434 101.616L50.5704 119.832L40.485 114.305ZM59.6063 124.791L58.4608 96.6252C58.3487 93.9176 60.207 90.5051 62.6102 88.9991C62.6743 88.959 62.7304 88.9271 62.7945 88.887C65.1336 87.5412 67.064 88.5265 67.1682 91.17L68.7463 129.797L59.6063 124.791ZM85.9602 80.7456L84.5338 123.317C84.4442 126.065 82.517 129.285 80.195 130.625C80.1336 130.661 80.0723 130.696 80.0058 130.729C77.6016 131.999 75.7282 130.738 75.8227 127.917L77.2491 85.3513C77.3413 82.5916 79.2727 79.3758 81.6056 78.0287C81.6627 77.9957 81.7197 77.9641 81.7772 77.9334C84.1814 76.6632 86.0548 77.9245 85.9602 80.7456ZM104.722 70.3377L100.206 114.687C99.9317 117.382 98.0599 120.311 95.8966 121.56C95.7123 121.666 95.5282 121.761 95.3389 121.841C92.9494 122.867 91.2545 121.332 91.5536 118.41L96.0692 74.0615C96.3403 71.3699 98.2141 68.4389 100.378 67.1894C100.561 67.084 100.745 66.9906 100.931 66.9103C103.321 65.8839 105.021 67.416 104.722 70.3377ZM123.452 59.9357L115.847 106.068C115.419 108.676 113.613 111.331 111.598 112.495C111.296 112.669 110.995 112.808 110.687 112.909C108.328 113.694 106.817 111.9 107.31 108.907L114.915 62.7746C115.345 60.1633 117.154 57.5054 119.172 56.3401C119.472 56.1672 119.775 56.0273 120.08 55.9251C122.434 55.1429 123.946 56.9371 123.452 59.9357Z" fill="#DB513A"/>
<path id="Vector_3" d="M124.023 200.223L124.039 200.231L119.692 197.705L104.026 206.75C102.955 209.134 102.33 211.645 102.336 213.961C102.344 216.938 103.396 219.034 105.092 220.019L110.661 223.255L110.515 223.163C112.242 224.257 114.681 224.157 117.382 222.598C122.598 219.586 126.812 212.285 126.795 206.291C126.786 203.304 125.728 201.205 124.023 200.223Z" fill="#EBEDEE"/>
<path id="Vector_4" d="M183.024 166.049L183.04 166.057L178.788 163.586L162.961 172.724C161.93 175.063 161.331 177.518 161.337 179.786C161.345 182.764 162.397 184.859 164.093 185.845L169.662 189.081L169.516 188.988C171.243 190.083 173.682 189.983 176.383 188.423C181.599 185.412 185.813 178.11 185.795 172.117C185.787 169.129 184.729 167.03 183.024 166.049Z" fill="#EBEDEE"/>
<path id="Vector_5" d="M228.707 53.7633L228.715 53.7675L223.401 50.6794C222.914 50.3965 222.239 50.4371 221.494 50.8671L211.294 56.7564C204.281 60.8054 198.034 68.8558 194.782 77.5311L198.709 79.8136L198.697 79.8063C199.194 80.0925 199.614 80.5104 199.938 81.0464C200.568 82.0886 200.837 83.5775 200.609 85.4108L192.726 148.958C192.631 149.722 192.455 150.497 192.21 151.267C194.594 147.646 196.269 143.453 196.77 139.396L203.331 86.3472C204.533 78.3011 210.117 69.7475 216.625 65.9899L226.825 60.1007C228.303 59.2474 229.498 57.1781 229.493 55.48C229.491 54.6334 229.191 54.0399 228.707 53.7633Z" fill="#EBEDEE"/>
<path id="Vector_6" d="M169.897 19.2971L169.903 19.3007L164.589 16.2126C164.102 15.9297 163.427 15.9702 162.683 16.4004L152.482 22.2895C145.405 26.3757 139.108 34.5366 135.882 43.3026L141.196 46.3907L145.206 48.721C147.193 41.6865 152.153 34.791 157.814 31.5231L168.014 25.6338C169.492 24.7806 170.687 22.7113 170.682 21.0131C170.679 20.1671 170.38 19.5739 169.897 19.2971Z" fill="#EBEDEE"/>
<path id="Vector_7" d="M228.706 53.7635L228.69 53.7544L228.66 53.7385L228.642 53.7293L228.614 53.7157L228.593 53.7064L228.565 53.6941L228.545 53.6862L228.516 53.6748L228.493 53.6665L228.467 53.6576L228.441 53.6494L228.415 53.6418L228.39 53.6351L228.363 53.6282L228.337 53.6225L228.31 53.6165L228.282 53.6115L228.256 53.6069L228.228 53.6028L228.201 53.5991L228.172 53.596L228.145 53.5933L228.113 53.5911L228.09 53.5897L228.053 53.5885L228.032 53.5879L227.995 53.588L227.973 53.5882L227.938 53.5895L227.914 53.5905L227.879 53.593L227.854 53.5949L227.818 53.5987L227.793 53.6015L227.756 53.6064L227.732 53.6099L227.693 53.6165L227.67 53.6205L227.628 53.6289L227.607 53.6331L227.561 53.6439L227.544 53.6478L227.5 53.6594L227.479 53.665L227.432 53.6788L227.415 53.6839L227.372 53.6978L227.349 53.7056L227.301 53.7226L227.284 53.7288L227.223 53.7522L227.217 53.7544L227.164 53.7767L227.15 53.7825L227.113 53.7989L227.081 53.8133L227.057 53.8245L227.014 53.8453C226.945 53.8787 226.876 53.9155 226.807 53.9556L216.606 59.8449C214.121 61.2797 211.732 63.217 209.539 65.5063C209.413 65.6372 209.289 65.7691 209.165 65.9022C209.103 65.9687 209.041 66.0355 208.979 66.1027C208.794 66.304 208.611 66.5079 208.429 66.714C208.307 66.8516 208.187 66.99 208.067 67.1296C207.997 67.2104 207.928 67.2916 207.859 67.3731C207.749 67.5027 207.64 67.6331 207.532 67.7645C207.355 67.9785 207.18 68.1946 207.007 68.4129C206.891 68.5584 206.777 68.705 206.663 68.8523C206.435 69.1472 206.21 69.4458 205.989 69.7477C205.767 70.0498 205.549 70.3554 205.334 70.6642C205.281 70.7413 205.227 70.8188 205.174 70.8964C205.014 71.129 204.856 71.3637 204.701 71.6C204.545 71.8364 204.391 72.0743 204.239 72.314C204.189 72.3938 204.138 72.4739 204.088 72.5541C203.66 73.2404 203.249 73.9396 202.856 74.6493C202.814 74.724 202.773 74.7987 202.732 74.8736C202.367 75.5419 202.018 76.2193 201.687 76.9041C201.644 76.9929 201.602 77.0819 201.56 77.1709C201.441 77.4213 201.324 77.6726 201.21 77.9248C201.149 78.0582 201.089 78.1915 201.03 78.3253C200.787 78.8779 200.555 79.4343 200.335 79.9937C200.258 80.1889 200.183 80.3845 200.109 80.5804C200.085 80.6459 200.06 80.7115 200.036 80.7771C200.003 80.8668 199.97 80.9566 199.937 81.0466C200.567 82.0889 200.836 83.5777 200.608 85.4111L192.725 148.958C192.63 149.722 192.454 150.498 192.209 151.267C194.593 147.646 196.268 143.453 196.769 139.396L203.33 86.3474C204.532 78.3013 210.116 69.7477 216.624 65.9902L226.824 60.1009C228.302 59.2477 229.497 57.1784 229.492 55.4803C229.49 54.6336 229.19 54.0402 228.706 53.7635Z" fill="#8998A6"/>
<path id="Vector_8" d="M169.85 19.2714L169.828 19.2607L169.803 19.2483L169.78 19.2379L169.755 19.227L169.73 19.217L169.706 19.2074L169.681 19.1988L169.655 19.1897L169.632 19.1827L169.603 19.174L169.58 19.1678L169.552 19.1605L169.527 19.155L169.498 19.1487L169.474 19.1443L169.445 19.1391L169.419 19.1354L169.389 19.1313L169.366 19.1289L169.333 19.1255L169.311 19.1241L169.276 19.1218L169.25 19.1209L169.22 19.1201L169.194 19.1202L169.16 19.1205L169.141 19.1212L169.1 19.1229L169.084 19.1242L169.04 19.1275L169.022 19.1294L168.981 19.1339L168.955 19.1374L168.92 19.1425L168.893 19.147L168.858 19.1531L168.83 19.1587L168.795 19.1659L168.77 19.1717L168.73 19.1811L168.713 19.1857L168.667 19.198L168.643 19.2049L168.603 19.217L168.579 19.2247L168.536 19.2389L168.524 19.2432L168.471 19.2621L168.452 19.2695L168.404 19.2881L168.399 19.29L168.338 19.3153L168.312 19.3271L168.202 19.3781L168.19 19.3844L168.134 19.4126L168.13 19.4147L167.996 19.4881L157.796 25.3773C156.944 25.8692 156.103 26.4202 155.278 27.0242C155.14 27.1248 155.003 27.227 154.866 27.3306C154.524 27.5896 154.185 27.8575 153.849 28.1341C153.715 28.2448 153.581 28.3567 153.448 28.4701C153.314 28.5834 153.182 28.6981 153.049 28.8141C152.917 28.9301 152.785 29.0474 152.654 29.1661C152.391 29.4034 152.131 29.6457 151.873 29.8931C151.808 29.955 151.744 30.017 151.68 30.0795C151.487 30.2668 151.296 30.4569 151.106 30.6496C150.979 30.7781 150.853 30.9078 150.728 31.0386C150.665 31.1039 150.603 31.1698 150.541 31.2357C150.354 31.4336 150.168 31.6342 149.984 31.8372C149.923 31.9048 149.861 31.9728 149.8 32.041C149.678 32.1774 149.557 32.3149 149.436 32.4534C149.348 32.5546 149.261 32.6565 149.173 32.7587C149.081 32.8665 148.989 32.9747 148.898 33.0838C148.78 33.2254 148.662 33.368 148.545 33.5116C148.252 33.8707 147.964 34.2358 147.682 34.6067C147.568 34.7551 147.456 34.9042 147.344 35.0544C147.233 35.2046 147.122 35.3556 147.012 35.5075C146.957 35.5834 146.903 35.6596 146.848 35.736C145.836 37.1529 144.897 38.6423 144.045 40.1818C144.003 40.2564 143.962 40.3312 143.921 40.4062C143.556 41.0745 143.208 41.7518 142.877 42.4367C142.834 42.5254 142.791 42.6143 142.749 42.7033C142.63 42.9537 142.513 43.2052 142.399 43.4574C142.362 43.5377 142.326 43.6179 142.29 43.6983C142.021 44.3033 141.765 44.9129 141.524 45.5261C141.448 45.7213 141.372 45.9169 141.299 46.1129C141.274 46.1785 141.249 46.244 141.225 46.3096L141.195 46.3902L145.205 48.7204C147.192 41.686 152.153 34.7905 157.813 31.5225L168.014 25.6333C169.492 24.78 170.686 22.7107 170.681 21.0125C170.679 20.1665 170.379 19.5733 169.896 19.2964L169.876 19.2851L169.85 19.2714Z" fill="#8998A6"/>
<path id="Vector_9" d="M199.938 81.0471C199.614 80.5111 199.194 80.0931 198.697 79.8071L198.669 79.7912L198.634 79.7717L198.609 79.7586L198.571 79.7384L198.547 79.726L198.509 79.7072L198.483 79.6942L198.446 79.6773L198.42 79.6648L198.375 79.6453L198.356 79.6368L198.295 79.6115L198.273 79.6028L198.226 79.5843L198.203 79.576L198.159 79.5598L198.134 79.5514L198.092 79.537L198.063 79.5276L198.026 79.516L197.993 79.506L197.957 79.4957L197.925 79.4868L197.885 79.4761L197.857 79.4688L197.814 79.4584L197.787 79.4519L197.744 79.4425L197.715 79.436L197.675 79.4282L197.643 79.4219L197.591 79.4127L197.572 79.4093L197.501 79.3983L197.469 79.3938L197.427 79.3882L197.396 79.3845L197.354 79.3797L197.317 79.3761L197.28 79.3726L197.243 79.3695L197.204 79.3667L197.169 79.3644L197.128 79.3623L197.094 79.3608L197.05 79.3593L197.017 79.3584L196.973 79.3578L196.94 79.3574L196.897 79.3578L196.86 79.3581L196.825 79.359L196.782 79.3601L196.765 79.3609L196.664 79.366L196.627 79.3684L196.592 79.3711L196.547 79.3747L196.509 79.3783L196.467 79.3824L196.428 79.3868L196.386 79.3918L196.344 79.3971L196.307 79.4022L196.263 79.4084L196.222 79.4148L196.182 79.4213L196.14 79.4284L196.099 79.4356L196.054 79.4441L196.017 79.4513L195.97 79.4608L195.931 79.4689L195.899 79.4761L195.794 79.5005L195.767 79.5072L195.717 79.5198L195.683 79.5288L195.635 79.5418L195.597 79.5522L195.548 79.5663L195.512 79.5766L195.463 79.5917L195.426 79.6031L195.377 79.6185L195.339 79.6309L195.289 79.6474L195.254 79.6596L195.201 79.6778L195.168 79.6898L195.115 79.7092L195.082 79.7215L195.025 79.7429L195.008 79.7495C194.94 79.7758 194.872 79.8035 194.804 79.8323L194.764 79.8492L194.71 79.8728L194.677 79.8875L194.622 79.9122L194.585 79.9291L194.533 79.9537L194.496 79.9709L194.444 79.9962L194.403 80.0162L194.352 80.0415L194.314 80.0609L194.262 80.0874L194.219 80.1095L194.17 80.1352L194.129 80.1575L194.076 80.1859L194.045 80.2032L193.983 80.2376L193.982 80.2383L193.894 80.288L146.291 107.772L85.9318 142.62C83.9828 143.745 82.252 145.683 81.0311 147.873C80.7462 148.384 80.489 148.908 80.2632 149.44C80.2148 149.553 80.1679 149.668 80.1225 149.782C80.062 149.934 80.004 150.087 79.9487 150.24C79.2997 152.039 79.0259 153.872 79.2675 155.468L87.4847 209.719C87.4926 209.771 87.501 209.822 87.5099 209.873L87.5179 209.916L87.538 210.023L87.549 210.077L87.5691 210.171L87.5818 210.226L87.603 210.315L87.6172 210.371L87.6406 210.458L87.6552 210.511L87.6824 210.603L87.6959 210.647L87.7326 210.76L87.7393 210.781L87.786 210.911L87.7985 210.944L87.8348 211.037L87.854 211.083L87.887 211.161L87.9078 211.208L87.9423 211.283L87.9638 211.328L87.9999 211.401L88.0229 211.446L88.0623 211.52L88.0832 211.558L88.1295 211.638L88.1473 211.668L88.2129 211.774L88.2261 211.794L88.2808 211.876L88.3065 211.913L88.352 211.976L88.3802 212.013L88.4261 212.073L88.4549 212.109L88.5025 212.166L88.5326 212.202L88.5817 212.257L88.6115 212.29L88.6689 212.35L88.6923 212.374L88.7762 212.456L88.7768 212.456L88.8617 212.533L88.8902 212.558L88.949 212.607L88.9855 212.636L89.039 212.678L89.0773 212.707L89.1324 212.747L89.1703 212.773L89.2276 212.811L89.2661 212.836L89.3282 212.874L89.3625 212.895C90.6029 213.621 92.321 213.509 94.1931 212.428L104.026 206.751L119.692 197.706L162.961 172.725L178.788 163.587L186.06 159.388C188.766 157.826 191.143 154.61 192.21 151.268C192.455 150.498 192.631 149.722 192.726 148.958L200.609 85.4117C200.836 83.5782 200.568 82.0894 199.938 81.0471Z" fill="#CC0000"/>
<path id="Vector_10" d="M68.7457 184.164C56.9473 188.205 22.3018 171.53 22.3018 171.53L85.9629 207.895L78.3845 154.076C78.3845 154.076 80.5442 180.124 68.7457 184.164Z" fill="#CC0000"/>
<path id="Vector_11" d="M20.2011 103.832C12.2277 107.355 13.0897 116.81 13.0897 116.81C13.0897 116.81 14.714 107.735 20.9284 108.659C28.6083 109.801 85.9635 140.661 85.9635 140.661L20.2011 103.832Z" fill="#EF7A54"/>
<path id="Vector_12" d="M182.116 84.8743L130.266 54.9473L119.484 121.024L182.116 84.8743Z" fill="#CC0000"/>
<path id="Vector_13" d="M176.323 167.533C171.5 170.318 167.602 177.07 167.617 182.612C167.633 188.154 171.557 190.39 176.38 187.605C181.203 184.821 185.099 178.07 185.083 172.528C185.067 166.986 181.146 164.749 176.323 167.533Z" fill="#8998A6"/>
<path id="Vector_14" d="M117.323 201.707C112.5 204.492 108.602 211.244 108.617 216.786C108.633 222.328 112.557 224.564 117.38 221.779C122.203 218.995 126.099 212.244 126.083 206.702C126.067 201.16 122.146 198.923 117.323 201.707Z" fill="#8998A6"/>
<path id="Vector_15" d="M123.275 207.458L123.282 207.461L120.928 206.133C120.202 205.723 119.178 205.852 118.031 206.617C115.751 208.137 113.847 211.593 113.78 214.334C113.747 215.696 114.173 216.626 114.89 217.03L117.244 218.358L117.182 218.32C117.911 218.774 118.961 218.661 120.142 217.874C122.422 216.354 124.324 212.899 124.391 210.158C124.425 208.791 123.996 207.86 123.275 207.458Z" fill="#EBEDEE"/>
<path id="Vector_16" d="M181.574 173.481L181.581 173.484L179.227 172.156C178.501 171.747 177.477 171.876 176.33 172.641C174.05 174.161 172.146 177.616 172.079 180.358C172.046 181.72 172.472 182.649 173.188 183.054L175.542 184.382L175.481 184.343C176.21 184.797 177.26 184.684 178.44 183.897C180.72 182.377 182.623 178.922 182.69 176.181C182.724 174.815 182.295 173.883 181.574 173.481Z" fill="#EBEDEE"/>
<path id="Vector_17" d="M120.15 217.499C122.259 216.094 124.018 212.899 124.08 210.365C124.142 207.83 122.484 206.914 120.376 208.319C118.267 209.725 116.507 212.92 116.445 215.454C116.383 217.989 118.042 218.905 120.15 217.499Z" fill="#8998A6"/>
<path id="Vector_18" d="M178.449 183.524C180.557 182.118 182.316 178.924 182.379 176.389C182.441 173.854 180.783 172.938 178.674 174.344C176.566 175.749 174.806 178.944 174.744 181.479C174.682 184.014 176.341 184.929 178.449 183.524Z" fill="#8998A6"/>
<path id="Vector_19" d="M168.681 106.282C168.495 106.362 168.311 106.456 168.128 106.561C165.964 107.81 164.091 110.741 163.819 113.433L159.304 157.782C159.005 160.704 160.7 162.239 163.089 161.212C163.278 161.132 163.462 161.038 163.647 160.932C165.81 159.683 167.682 156.753 167.956 154.058L172.472 109.709C172.771 106.788 171.071 105.255 168.681 106.282Z" fill="#DB513A"/>
<path id="Vector_20" d="M187.83 95.2966C187.525 95.3989 187.221 95.5387 186.922 95.7116C184.904 96.8769 183.095 99.5346 182.665 102.146L175.06 148.278C174.567 151.271 176.078 153.065 178.437 152.28C178.744 152.179 179.046 152.04 179.348 151.866C181.363 150.703 183.169 148.047 183.597 145.439L191.202 99.3071C191.695 96.3083 190.184 94.5141 187.83 95.2966Z" fill="#DB513A"/>
<path id="Vector_21" d="M97.2474 151.462C96.8042 149.354 94.9861 148.791 92.9711 149.954C92.6724 150.127 92.3693 150.337 92.0657 150.586C89.7096 152.523 88.2134 156.054 88.7225 158.474L96.5635 195.688C97.0048 197.794 98.82 198.359 100.835 197.196C101.137 197.021 101.444 196.809 101.745 196.558C104.101 194.621 105.597 191.091 105.088 188.677L97.2474 151.462Z" fill="#DB513A"/>
<path id="Vector_22" d="M149.527 117.305C149.47 117.336 149.413 117.368 149.356 117.4C147.023 118.748 145.091 121.963 144.999 124.723L143.573 167.288C143.478 170.11 145.352 171.371 147.756 170.1C147.822 170.068 147.884 170.033 147.945 169.997C150.267 168.656 152.194 165.436 152.284 162.689L153.71 120.117C153.805 117.296 151.931 116.035 149.527 117.305Z" fill="#DB513A"/>
<path id="Vector_23" d="M116.096 140.986C115.811 138.618 113.926 137.854 111.768 139.1C111.584 139.206 111.397 139.327 111.209 139.463C108.822 141.195 107.141 144.679 107.451 147.249L112.203 186.247C112.491 188.618 114.373 189.38 116.537 188.131C116.721 188.024 116.905 187.906 117.094 187.768C119.482 186.036 121.162 182.552 120.848 179.985L116.096 140.986Z" fill="#DB513A"/>
<path id="Vector_24" d="M134.918 130.543C134.811 127.902 132.882 126.911 130.544 128.261C130.484 128.295 130.424 128.332 130.363 128.369C127.96 129.875 126.1 133.292 126.21 135.995L127.873 176.782C127.977 179.418 129.917 180.406 132.239 179.065C132.3 179.03 132.366 178.991 132.428 178.95C134.831 177.445 136.691 174.028 136.581 171.325L134.918 130.543Z" fill="#DB513A"/>
</g>
</svg>
