<svg width="351" height="352" viewBox="0 0 351 352" fill="none" xmlns="http://www.w3.org/2000/svg">
<path d="M315.83 280.242H292.578V280.418H315.83V280.242Z" fill="#EBEBEB"/>
<path d="M232.517 282.148H226.414V282.324H232.517V282.148Z" fill="#EBEBEB"/>
<path d="M291.877 273.725H278.404V273.9H291.877V273.725Z" fill="#EBEBEB"/>
<path d="M67.1477 274.902H36.8262V275.078H67.1477V274.902Z" fill="#EBEBEB"/>
<path d="M77.8442 274.902H73.3984V275.078H77.8442V274.902Z" fill="#EBEBEB"/>
<path d="M158.054 277.867H92.293V278.043H158.054V277.867Z" fill="#EBEBEB"/>
<path d="M167.357 237.635H31.8019C29.5927 237.635 27.7949 235.838 27.7949 233.628V43.0832C27.7949 40.874 29.5927 39.0762 31.8019 39.0762H167.357C169.566 39.0762 171.364 40.874 171.364 43.0832V233.628C171.364 235.838 169.566 237.635 167.357 237.635ZM31.8019 39.2524C29.6889 39.2524 27.9704 40.9709 27.9704 43.0839V233.629C27.9704 235.742 29.6889 237.461 31.8019 237.461H167.357C169.47 237.461 171.188 235.742 171.188 233.629V43.0832C171.188 40.9709 169.47 39.2517 167.357 39.2517L31.8019 39.2524Z" fill="#EBEBEB"/>
<path d="M319.199 237.635H183.643C181.435 237.635 179.637 235.838 179.637 233.628V43.0832C179.637 40.874 181.435 39.0762 183.643 39.0762H319.199C321.408 39.0762 323.206 40.874 323.206 43.0832V233.628C323.206 235.838 321.408 237.635 319.199 237.635ZM183.643 39.2524C181.531 39.2524 179.812 40.9709 179.812 43.0839V233.629C179.812 235.742 181.531 237.461 183.643 237.461H319.199C321.312 237.461 323.03 235.742 323.03 233.629V43.0832C323.03 40.9709 321.312 39.2517 319.199 39.2517L183.643 39.2524Z" fill="#EBEBEB"/>
<path d="M351 268.943H0V269.119H351V268.943Z" fill="#EBEBEB"/>
<path d="M245.75 264.867H312.564V175.962H245.75V264.867Z" fill="#F5F5F5"/>
<path d="M233.004 264.867H245.75V175.962H233.004V264.867Z" fill="#E6E6E6"/>
<path d="M250.087 204.15H307.885V182.56H250.087V204.15Z" fill="#FAFAFA"/>
<path d="M286.522 182.561L286.269 185.439C286.186 186.388 285.391 187.117 284.438 187.117H273.532C272.579 187.117 271.784 186.389 271.7 185.439L271.447 182.561H286.522Z" fill="#EBEBEB"/>
<path d="M250.087 228.1H307.885V206.51H250.087V228.1Z" fill="#FAFAFA"/>
<path d="M286.522 206.508L286.269 209.386C286.186 210.335 285.391 211.064 284.438 211.064H273.532C272.579 211.064 271.784 210.335 271.7 209.386L271.447 206.508H286.522Z" fill="#EBEBEB"/>
<path d="M250.087 252.047H307.885V230.457H250.087V252.047Z" fill="#FAFAFA"/>
<path d="M286.522 230.457L286.269 233.335C286.186 234.284 285.391 235.013 284.438 235.013H273.532C272.579 235.013 271.784 234.284 271.7 233.335L271.447 230.457H286.522Z" fill="#EBEBEB"/>
<path d="M250.086 269.307H307.182L307.884 264.861H250.086V269.307Z" fill="#E6E6E6"/>
<path d="M238.151 269.307H250.085V264.861H237.449L238.151 269.307Z" fill="#E0E0E0"/>
<path d="M276.926 176.059H299.741L297.21 147.125H274.395L276.926 176.059Z" fill="#FAFAFA"/>
<path d="M276.926 176.059H275.836L273.305 147.125H274.394L276.926 176.059Z" fill="#EBEBEB"/>
<path d="M278.993 173.108H297.156L295.141 150.074H276.979L278.993 173.108Z" fill="#F0F0F0"/>
<path d="M280.322 171.213H295.494L293.811 151.971H278.639L280.322 171.213Z" fill="#E6E6E6"/>
<path d="M270.515 176.059L272.081 158.15H249.37L247.803 176.059H270.515Z" fill="#F0F0F0"/>
<path d="M270.514 176.059L272.081 158.15H273.303L271.737 176.059H270.514Z" fill="#E0E0E0"/>
<path d="M268.358 174.233L269.606 159.977H251.525L250.277 174.233H268.358Z" fill="#EBEBEB"/>
<path d="M266.973 173.06L268.015 161.15H252.912L251.869 173.06H266.973Z" fill="#F5F5F5"/>
<path d="M218.071 257.271C218.071 262.017 217.327 265.087 216.072 267.056C215.129 268.538 213.435 269.37 211.678 269.37H204.807C203.051 269.37 201.358 268.537 200.413 267.056C199.159 265.086 198.414 262.017 198.414 257.271C198.414 250.388 201.415 244.877 202.395 240.477C202.748 238.893 201.573 234.037 201.573 234.037H214.911C214.911 234.037 213.736 238.894 214.089 240.477C215.07 244.877 218.071 250.388 218.071 257.271Z" fill="#EBEBEB"/>
<path d="M240.785 229.413C240.785 223.437 231.416 225.918 229.055 216.647C228.16 213.133 235.78 205.182 235.78 205.182H212.021C212.021 205.182 219.641 213.133 218.746 216.647C216.385 225.918 207.016 223.437 207.016 229.413C207.016 235.995 220.232 249.703 220.869 265.132C220.926 266.512 218.383 269.37 218.383 269.37H229.417C229.417 269.37 226.875 266.512 226.931 265.132C227.569 249.703 240.785 235.995 240.785 229.413Z" fill="#F5F5F5"/>
<path d="M233.605 244.944C234.986 242.039 232.131 232.164 232.131 232.164H242.427C242.427 232.164 239.571 242.04 240.952 244.944C241.927 246.995 244.145 248.304 244.145 250.73V265.312C244.145 269.088 241.055 269.37 237.278 269.37C233.502 269.37 230.412 269.089 230.412 265.312V250.73C230.412 248.304 232.63 246.995 233.605 244.944Z" fill="#F0F0F0"/>
<path d="M115.935 158.821C110.02 156.259 106.645 150.854 108.413 146.771C110.181 142.688 116.433 141.451 122.348 144.012C128.265 146.573 131.639 151.979 129.872 156.062C128.103 160.145 121.852 161.383 115.935 158.821ZM120.644 147.946C117.872 146.746 114.944 147.327 114.115 149.239C113.287 151.152 114.868 153.685 117.64 154.886C120.412 156.086 123.342 155.506 124.17 153.593C124.998 151.68 123.416 149.147 120.644 147.946Z" fill="#E6E6E6"/>
<path d="M122.895 148.173L120.084 146.956L137.07 107.69C137.407 106.913 138.308 106.556 139.084 106.892C139.86 107.228 140.217 108.129 139.881 108.905L122.895 148.173Z" fill="#E6E6E6"/>
<path d="M141.183 112.703L135.789 110.346L137.006 107.535L142.4 109.892L141.183 112.703Z" fill="#E6E6E6"/>
<path d="M138.523 115.846L134.66 114.168L135.877 111.357L139.739 113.035L138.523 115.846Z" fill="#E6E6E6"/>
<path d="M134.321 116.728L133.104 119.539L137.435 121.415L138.652 118.604L134.321 116.728Z" fill="#E6E6E6"/>
<path d="M123.987 143.983L122.443 143.315C121.673 142.981 121.319 142.087 121.653 141.318L121.663 141.294C121.997 140.525 122.89 140.171 123.66 140.504L125.204 141.173C125.974 141.506 126.327 142.4 125.994 143.169L125.984 143.193C125.65 143.962 124.756 144.316 123.987 143.983Z" fill="#E6E6E6"/>
<path d="M244.624 130.482C249.311 133.605 250.52 140.054 247.318 144.859C244.117 149.664 237.699 151.033 233.012 147.91C228.325 144.787 227.116 138.337 230.317 133.533C233.519 128.727 239.937 127.36 244.624 130.482ZM236.098 143.279C238.295 144.742 241.302 144.101 242.802 141.85C244.302 139.599 243.735 136.577 241.539 135.114C239.342 133.65 236.335 134.291 234.835 136.542C233.335 138.793 233.902 141.816 236.098 143.279Z" fill="#E6E6E6"/>
<path d="M234.963 142.033L237.869 143.969L217.08 175.784C216.546 176.586 215.461 176.804 214.659 176.269C213.856 175.735 213.64 174.651 214.174 173.849L234.963 142.033Z" fill="#E6E6E6"/>
<path d="M214.304 166.912L220.419 171.019L217.366 175.6L211.24 171.486C210.36 170.896 210.124 169.704 210.711 168.823L211.631 167.443C212.222 166.557 213.42 166.319 214.304 166.912Z" fill="#E6E6E6"/>
<path d="M159.731 69.6866L156.504 78.046C156.214 78.7992 155.367 79.1741 154.614 78.8835C153.861 78.5928 153.486 77.7462 153.776 76.9923L157.003 68.6329C158.046 65.9337 156.698 62.8877 153.998 61.8452L151.008 60.6904C148.308 59.648 145.263 60.9979 144.221 63.6978L142.904 67.1109L140.176 66.0579L141.493 62.6448C143.116 58.4398 147.858 56.3401 152.061 57.9625L155.052 59.1172C159.254 60.7403 161.354 65.4816 159.731 69.6866Z" fill="#F0F0F0"/>
<path d="M159.22 71.0034C159.005 70.7261 158.713 70.5001 158.363 70.3646L142.076 64.0768C141.713 63.9364 141.331 63.9076 140.977 63.9792C140.326 64.107 139.749 64.557 139.493 65.2204L133.205 81.5075C132.807 82.538 133.318 83.6921 134.35 84.0901L150.637 90.3779C151.667 90.776 152.821 90.2649 153.219 89.2337L159.507 72.9466C159.768 72.2712 159.639 71.5391 159.22 71.0034ZM146.854 83.5889L141.688 81.5945L144.419 76.8272C144.075 76.1357 144.012 75.306 144.312 74.5268C144.882 73.0512 146.541 72.3127 148.017 72.8827C149.493 73.4527 150.229 75.115 149.66 76.5906C149.359 77.3699 148.755 77.9413 148.031 78.2214L146.854 83.5889Z" fill="#E6E6E6"/>
<path d="M48.5473 259.857H178.508V189.916H48.5473V259.857Z" fill="#E6E6E6"/>
<path d="M168.09 268.934H176.258V262.762H168.09V268.934Z" fill="#E6E6E6"/>
<path d="M38.6272 268.934H46.7949L46.7949 184.713H38.6272L38.6272 268.934Z" fill="#E6E6E6"/>
<path d="M46.6973 184.713V268.933H51.0532V264.214H176.258V268.933H180.614V184.713H178.436H176.258H51.0539H48.8756H46.6973ZM51.0539 192.337H111.478V221.588H51.0539V192.337ZM176.258 256.591H115.834V192.337H176.258V256.591ZM51.0539 256.591V225.944H111.478V256.591H51.0539Z" fill="#F0F0F0"/>
<path d="M115.834 256.59H172.174V195.482H115.834V256.59Z" fill="#F5F5F5"/>
<path d="M118.385 224.206C118.385 225.651 119.556 226.823 121.003 226.823C122.448 226.823 123.62 225.652 123.62 224.206C123.62 222.76 122.449 221.588 121.003 221.588C119.557 221.589 118.385 222.76 118.385 224.206Z" fill="#FAFAFA"/>
<path d="M121.001 226.823C122.057 226.823 122.961 226.195 123.375 225.295C123.528 225.628 123.618 225.994 123.618 226.384C123.618 227.829 122.447 229.001 121.001 229.001C119.555 229.001 118.383 227.83 118.383 226.384C118.383 225.994 118.474 225.627 118.626 225.295C119.041 226.195 119.945 226.823 121.001 226.823Z" fill="#E0E0E0"/>
<path d="M150.323 256.59H136.882L130.459 195.482H143.9L150.323 256.59Z" fill="#FAFAFA"/>
<path d="M133.44 256.59H130.764L124.342 195.482H127.017L133.44 256.59Z" fill="#FAFAFA"/>
<path d="M97.8596 221.561H103.184V195.424H97.8596V221.561Z" fill="#FAFAFA"/>
<path d="M75.7835 221.561H81.1074V195.424H75.7835V221.561Z" fill="#F5F5F5"/>
<path d="M92.5354 221.559H97.8594V197.258H92.5354V221.559Z" fill="#F5F5F5"/>
<path d="M81.1096 221.559H86.4336V197.258H81.1096V221.559Z" fill="#FAFAFA"/>
<path d="M86.4325 221.561H89.873V195.424H86.4325V221.561Z" fill="#EBEBEB"/>
<path d="M89.8732 221.559H92.5352V197.258H89.8732V221.559Z" fill="#FAFAFA"/>
<path d="M70.4612 221.561H75.7852V195.424H70.4612V221.561Z" fill="#EBEBEB"/>
<path d="M65.135 221.559H70.459V197.258H65.135V221.559Z" fill="#E6E6E6"/>
<path d="M53.7092 221.559H59.0332V197.258H53.7092V221.559Z" fill="#E6E6E6"/>
<path d="M59.0322 221.561H62.4727V195.424H59.0322V221.561Z" fill="#FAFAFA"/>
<path d="M62.4728 221.559H65.1348V197.258H62.4728V221.559Z" fill="#EBEBEB"/>
<path d="M51.047 221.561H53.709V196.042H51.047V221.561Z" fill="#EBEBEB"/>
<path d="M56.3708 230.453H51.0469V256.59H56.3708V230.453Z" fill="#EBEBEB"/>
<path d="M78.447 230.453H73.123V256.59H78.447V230.453Z" fill="#FAFAFA"/>
<path d="M61.6951 232.291H56.3711V256.591H61.6951V232.291Z" fill="#FAFAFA"/>
<path d="M73.1208 232.291H67.7969V256.591H73.1208V232.291Z" fill="#EBEBEB"/>
<path d="M67.7979 230.453H64.3574V256.59H67.7979V230.453Z" fill="#FAFAFA"/>
<path d="M64.3573 232.291H61.6953V256.591H64.3573V232.291Z" fill="#F5F5F5"/>
<path d="M83.7693 230.453H78.4453V256.59H83.7693V230.453Z" fill="#EBEBEB"/>
<path d="M89.0935 232.291H83.7695V256.591H89.0935V232.291Z" fill="#F5F5F5"/>
<path d="M100.521 232.291H95.1973V256.591H100.521V232.291Z" fill="#E6E6E6"/>
<path d="M95.1983 230.453H91.7578V256.59H95.1983V230.453Z" fill="#FAFAFA"/>
<path d="M106.624 230.453H103.184V256.59H106.624V230.453Z" fill="#FAFAFA"/>
<path d="M91.7577 232.291H89.0957V256.591H91.7577V232.291Z" fill="#EBEBEB"/>
<path d="M103.183 231.072H100.521V256.591H103.183V231.072Z" fill="#EBEBEB"/>
<path d="M56.9869 139.699C56.9869 139.699 56.0932 140.111 55.6847 140.942C55.2761 141.773 56.5432 143.307 56.5432 143.307C56.5432 143.307 57.6067 144.048 58.664 143.568C59.7212 143.088 59.7212 143.088 59.7212 143.088C59.7212 143.088 57.9135 139.951 57.036 139.92L56.9869 139.699Z" fill="#E6E6E6"/>
<path d="M61.514 139.674C61.6432 141.162 60.7208 143.039 59.3926 143.154C58.0644 143.269 56.8331 141.579 56.7039 140.091C56.5748 138.603 57.6474 138.458 58.9756 138.343C60.3031 138.228 61.3849 138.186 61.514 139.674Z" fill="#E6E6E6"/>
<path d="M57.6233 139.236C57.6233 139.236 58.6384 140.045 60.7297 139.573C60.7297 139.573 57.431 141.773 57.6233 139.236Z" fill="#E6E6E6"/>
<path d="M58.5176 138.94C58.5176 138.94 59.6885 138.736 59.7054 139.225C59.7054 139.225 60.6987 139.169 60.5611 138.754C60.4242 138.338 58.5176 138.94 58.5176 138.94Z" fill="#E6E6E6"/>
<g opacity="0.2">
<path d="M57.6233 139.236C57.6233 139.236 58.6384 140.045 60.7297 139.573C60.7297 139.573 57.431 141.773 57.6233 139.236Z" fill="#FAFAFA"/>
</g>
<g opacity="0.2">
<path d="M58.5176 138.94C58.5176 138.94 59.6885 138.736 59.7054 139.225C59.7054 139.225 60.6987 139.169 60.5611 138.754C60.4242 138.338 58.5176 138.94 58.5176 138.94Z" fill="#FAFAFA"/>
</g>
<path d="M57.1621 143.623C57.5847 144.308 58.4468 144.661 59.2456 144.565C60.0452 144.47 60.7648 143.971 61.226 143.311C61.6872 142.651 61.9069 141.844 61.9582 141.041C61.9715 140.834 61.9877 140.313 61.7139 140.233C61.4626 140.159 61.3074 140.511 61.1909 140.674C60.856 141.146 60.5008 141.588 60.0747 141.981C59.6612 142.363 59.2042 142.697 58.7149 142.973C58.5773 143.05 57.2365 143.744 57.1621 143.623Z" fill="#E6E6E6"/>
<path d="M62.8606 140.653C63.1119 141.256 63.0206 141.99 62.6282 142.512C62.3706 142.855 62.0055 143.1 61.6377 143.322C61.3822 143.477 61.0529 143.623 60.8023 143.461C60.532 143.286 60.5566 142.888 60.6184 142.573C60.7138 142.086 60.8227 141.602 60.9448 141.121C61.0452 140.726 61.1056 140.066 61.3365 139.732C61.5541 139.416 61.8623 139.603 62.1909 139.832C62.4836 140.036 62.723 140.322 62.8606 140.653Z" fill="#E6E6E6"/>
<g opacity="0.2">
<path d="M57.5009 142.801C56.9877 142.779 56.5026 142.431 56.3159 141.953C56.1783 141.599 56.1804 140.702 56.6388 140.588C56.8417 141.385 57.0172 142.109 57.5009 142.801Z" fill="#FAFAFA"/>
</g>
<g opacity="0.2">
<path d="M60.9629 142.764C61.4473 142.625 61.8502 142.23 61.9976 141.748C62.0791 141.482 61.9759 140.122 61.5722 140.694C61.4402 140.88 61.4648 141.477 61.396 141.718C61.2928 142.081 61.1475 142.434 60.9629 142.764Z" fill="#FAFAFA"/>
</g>
<g opacity="0.2">
<path d="M59.1092 143.604C59.484 143.922 60.0828 143.938 60.4732 143.639C60.4219 143.902 59.5936 144.122 59.3366 144.197C58.6676 144.393 58.3173 144.099 57.668 143.828C57.668 143.828 58.6964 143.985 59.1092 143.604Z" fill="#FAFAFA"/>
</g>
<path d="M57.9473 170.947L58.0104 150.693L59.0494 144.533L59.4439 144.6L58.4099 150.731L58.3369 171.331L57.9473 170.947Z" fill="#E0E0E0"/>
<path d="M58.3698 150.59L58.0525 150.834C57.7345 150.42 57.4481 149.879 57.1168 149.253C56.6043 148.285 56.023 147.188 55.1406 146.218L55.4369 145.949C56.353 146.957 56.9469 148.078 57.4706 149.066C57.7928 149.676 58.0722 150.203 58.3698 150.59Z" fill="#E0E0E0"/>
<path d="M58.6131 147.874C59.1522 147.732 59.6352 147.389 59.9462 146.926C60.2993 146.401 60.4221 145.759 60.5373 145.137C59.8381 145.346 59.0869 145.006 58.3625 145.09C57.7847 145.156 57.2463 145.508 56.9543 146.011C56.5759 146.663 56.4221 147.402 56.7563 147.7C57.0315 147.945 57.8921 148.063 58.6131 147.874Z" fill="#E6E6E6"/>
<path d="M55.921 146.475C55.2752 146.885 54.4447 146.988 53.7181 146.751C52.9916 146.515 52.7795 145.422 52.498 144.711C53.1572 144.576 54.8315 144.67 55.2106 144.708C55.5897 144.746 55.9743 144.917 56.1786 145.239C56.3822 145.561 56.345 146.044 56.0361 146.266C56.0151 146.253 55.921 146.475 55.921 146.475Z" fill="#E6E6E6"/>
<path d="M52.5993 147.658C53.0436 147.12 54.1388 146.731 54.8246 146.855C55.5105 146.98 56.0959 147.453 56.3416 148.014C56.1605 148.449 55.6747 148.695 55.2044 148.729C54.734 148.763 54.27 148.624 53.8186 148.486C53.368 148.349 52.9039 148.209 52.4336 148.243L52.5993 147.658Z" fill="#E6E6E6"/>
<path d="M66.1104 144.178C66.1104 144.178 66.8433 144.834 66.9893 145.748C67.1353 146.663 65.473 147.757 65.473 147.757C65.473 147.757 64.2382 148.152 63.3691 147.383C62.5 146.613 62.5 146.613 62.5 146.613C62.5 146.613 65.1501 144.146 65.9974 144.374L66.1104 144.178Z" fill="#E6E6E6"/>
<path d="M61.7917 142.823C61.2308 144.207 61.5608 146.272 62.797 146.772C64.0325 147.273 65.7068 146.02 66.267 144.635C66.8279 143.252 65.8451 142.797 64.6096 142.297C63.374 141.796 62.3526 141.438 61.7917 142.823Z" fill="#E6E6E6"/>
<path d="M65.6407 143.549C65.6407 143.549 64.4326 144.023 62.5723 142.957C62.5723 142.957 65.0777 146.03 65.6407 143.549Z" fill="#E6E6E6"/>
<path d="M64.8703 143.003C64.8703 143.003 63.8117 142.463 63.6509 142.925C63.6509 142.925 62.718 142.581 62.9714 142.223C63.2255 141.867 64.8703 143.003 64.8703 143.003Z" fill="#E6E6E6"/>
<g opacity="0.2">
<path d="M65.6407 143.549C65.6407 143.549 64.4326 144.023 62.5723 142.957C62.5723 142.957 65.0777 146.03 65.6407 143.549Z" fill="#FAFAFA"/>
</g>
<g opacity="0.2">
<path d="M64.8703 143.003C64.8703 143.003 63.8117 142.463 63.6509 142.925C63.6509 142.925 62.718 142.581 62.9714 142.223C63.2255 141.867 64.8703 143.003 64.8703 143.003Z" fill="#FAFAFA"/>
</g>
<path d="M64.7884 147.878C64.1833 148.409 63.2559 148.492 62.5195 148.166C61.7839 147.839 61.2426 147.151 60.9955 146.384C60.7484 145.618 60.7758 144.782 60.9632 143.999C61.0117 143.797 61.1492 143.295 61.435 143.299C61.6975 143.302 61.7417 143.684 61.8049 143.874C61.9867 144.424 62.1959 144.95 62.488 145.452C62.7709 145.938 63.1099 146.391 63.496 146.8C63.6048 146.915 64.6817 147.972 64.7884 147.878Z" fill="#E6E6E6"/>
<path d="M60.2166 143.363C59.7989 143.865 59.6711 144.593 59.8922 145.208C60.0375 145.612 60.3148 145.954 60.6005 146.274C60.7999 146.497 61.0716 146.733 61.3587 146.652C61.669 146.564 61.7624 146.177 61.7953 145.857C61.8473 145.364 61.8859 144.869 61.9105 144.374C61.9308 143.967 62.067 143.319 61.9442 142.931C61.829 142.566 61.4795 142.654 61.0983 142.776C60.7578 142.884 60.4454 143.087 60.2166 143.363Z" fill="#E6E6E6"/>
<g opacity="0.2">
<path d="M64.707 146.991C65.204 147.12 65.7692 146.932 66.0886 146.529C66.3244 146.231 66.5856 145.373 66.1812 145.129C65.7523 145.831 65.3718 146.472 64.707 146.991Z" fill="#FAFAFA"/>
</g>
<g opacity="0.2">
<path d="M61.4095 145.937C60.9869 145.662 60.718 145.165 60.7188 144.661C60.7188 144.383 61.2179 143.113 61.4355 143.778C61.5064 143.995 61.3077 144.559 61.3021 144.809C61.2944 145.188 61.3302 145.567 61.4095 145.937Z" fill="#FAFAFA"/>
</g>
<g opacity="0.2">
<path d="M62.9341 147.285C62.4827 147.48 61.9057 147.318 61.62 146.918C61.5912 147.184 62.3185 147.638 62.5424 147.786C63.1244 148.17 63.5449 147.992 64.2454 147.924C64.2454 147.924 63.217 147.771 62.9341 147.285Z" fill="#FAFAFA"/>
</g>
<path d="M57.3711 167.924L57.6231 167.094L57.9636 165.976L58.3574 164.672L61.5066 154.303L61.9004 151.327L62.25 148.687L62.3223 148.139L62.5182 148.164L62.521 148.167L62.7196 148.192L62.714 148.24L62.6438 148.756L62.2725 151.578L61.9678 153.878L61.9004 154.384L61.8758 154.465L58.3553 166.047L57.958 167.346L57.7762 167.949L57.5248 168.774L57.3711 167.924Z" fill="#E0E0E0"/>
<path d="M61.5879 154.181L61.8196 154.507C62.245 154.204 62.6781 153.772 63.1786 153.272C63.9529 152.497 64.8311 151.62 65.9599 150.951L65.7564 150.607C64.584 151.301 63.6876 152.197 62.8964 152.989C62.4078 153.476 61.9866 153.898 61.5879 154.181Z" fill="#E0E0E0"/>
<path d="M62.1529 151.512C61.6798 151.217 61.319 150.747 61.1568 150.214C60.9736 149.608 61.0452 148.958 61.1182 148.33C61.7254 148.735 62.5425 148.632 63.2108 148.925C63.7437 149.158 64.1543 149.653 64.2856 150.219C64.4555 150.953 64.3853 151.705 63.9781 151.892C63.644 152.045 62.7861 151.905 62.1529 151.512Z" fill="#E6E6E6"/>
<path d="M65.1373 150.967C65.635 151.547 66.3974 151.891 67.1619 151.879C67.9263 151.866 68.45 150.884 68.9281 150.287C68.3377 149.964 66.7098 149.562 66.3363 149.487C65.9629 149.412 65.5445 149.462 65.2552 149.71C64.966 149.957 64.86 150.43 65.0896 150.733C65.112 150.727 65.1373 150.967 65.1373 150.967Z" fill="#E6E6E6"/>
<path d="M67.9645 153.074C67.6977 152.43 66.7662 151.735 66.0733 151.653C65.3811 151.571 64.6826 151.85 64.2832 152.314C64.3288 152.784 64.7205 153.162 65.16 153.332C65.5995 153.503 66.0838 153.506 66.5556 153.507C67.0273 153.508 67.511 153.511 67.9512 153.681L67.9645 153.074Z" fill="#E6E6E6"/>
<path d="M51.8929 143.365C51.8929 143.365 51.0877 143.931 50.8349 144.822C50.5822 145.713 52.1049 146.995 52.1049 146.995C52.1049 146.995 53.2842 147.533 54.2375 146.87C55.1909 146.208 55.1909 146.208 55.1909 146.208C55.1909 146.208 52.849 143.447 51.9806 143.574L51.8929 143.365Z" fill="#E6E6E6"/>
<path d="M56.3421 142.529C56.7359 143.969 56.1659 145.981 54.8798 146.333C53.5937 146.684 52.0788 145.243 51.685 143.803C51.2905 142.362 52.3196 142.027 53.6057 141.675C54.8917 141.323 55.9476 141.088 56.3421 142.529Z" fill="#E6E6E6"/>
<path d="M52.4355 142.796C52.4355 142.796 53.5798 143.409 55.5524 142.568C55.5524 142.568 52.7023 145.326 52.4355 142.796Z" fill="#E6E6E6"/>
<path d="M53.2637 142.344C53.2637 142.344 54.3784 141.933 54.483 142.411C54.483 142.411 55.4504 142.178 55.2405 141.794C55.0306 141.41 53.2637 142.344 53.2637 142.344Z" fill="#E6E6E6"/>
<g opacity="0.2">
<path d="M52.4355 142.796C52.4355 142.796 53.5798 143.409 55.5524 142.568C55.5524 142.568 52.7023 145.326 52.4355 142.796Z" fill="#FAFAFA"/>
</g>
<g opacity="0.2">
<path d="M53.2637 142.344C53.2637 142.344 54.3784 141.933 54.483 142.411C54.483 142.411 55.4504 142.178 55.2405 141.794C55.0306 141.41 53.2637 142.344 53.2637 142.344Z" fill="#FAFAFA"/>
</g>
<path d="M52.7695 147.195C53.3087 147.794 54.2192 147.985 54.9886 147.748C55.7579 147.511 56.3757 146.89 56.7113 146.158C57.0461 145.426 57.1177 144.593 57.0237 143.794C56.9991 143.586 56.9219 143.072 56.6376 143.042C56.3771 143.015 56.288 143.389 56.2023 143.571C55.9573 144.095 55.6877 144.593 55.3389 145.057C55.0005 145.506 54.6109 145.917 54.1791 146.277C54.0584 146.378 52.865 147.301 52.7695 147.195Z" fill="#E6E6E6"/>
<path d="M57.8424 143.249C58.1983 143.797 58.2398 144.535 57.9477 145.12C57.7561 145.504 57.4409 145.811 57.1187 146.094C56.8947 146.292 56.5971 146.495 56.3212 146.381C56.0235 146.257 55.9765 145.862 55.9807 145.54C55.987 145.044 56.0074 144.548 56.0411 144.053C56.0685 143.647 56.0095 142.986 56.1766 142.616C56.3338 142.267 56.6708 142.395 57.0351 142.561C57.3608 142.71 57.6473 142.948 57.8424 143.249Z" fill="#E6E6E6"/>
<g opacity="0.2">
<path d="M52.9562 146.324C52.4473 146.395 51.9081 146.141 51.6386 145.704C51.4392 145.38 51.2806 144.497 51.7109 144.303C52.0535 145.05 52.356 145.731 52.9562 146.324Z" fill="#FAFAFA"/>
</g>
<g opacity="0.2">
<path d="M56.3555 145.667C56.8076 145.444 57.1326 144.983 57.1909 144.481C57.2231 144.205 56.8771 142.886 56.5822 143.52C56.486 143.728 56.6173 144.311 56.5934 144.561C56.5576 144.937 56.4776 145.309 56.3555 145.667Z" fill="#FAFAFA"/>
</g>
<g opacity="0.2">
<path d="M54.6827 146.826C55.1081 147.072 55.7006 146.98 56.0306 146.615C56.0277 146.883 55.252 147.248 55.0127 147.368C54.39 147.682 53.9926 147.456 53.3047 147.305C53.3047 147.305 54.3451 147.275 54.6827 146.826Z" fill="#FAFAFA"/>
</g>
<path d="M58.4507 173.934L54.8747 153.997L54.7891 147.752L55.1892 147.746L55.2741 153.964L58.9035 174.242L58.4507 173.934Z" fill="#E0E0E0"/>
<path d="M55.2089 153.832L54.94 154.129C54.5525 153.778 54.1741 153.298 53.7354 152.741C53.0573 151.881 52.2886 150.907 51.2461 150.111L51.489 149.793C52.5715 150.62 53.357 151.615 54.0499 152.494C54.4774 153.036 54.8467 153.504 55.2089 153.832Z" fill="#E0E0E0"/>
<path d="M54.9607 151.116C55.4655 150.88 55.8789 150.455 56.1022 149.945C56.3556 149.365 56.3605 148.711 56.3619 148.078C55.7119 148.409 54.9116 148.21 54.2138 148.422C53.6571 148.591 53.191 149.034 52.9944 149.582C52.7396 150.291 52.7206 151.045 53.1032 151.279C53.417 151.472 54.2854 151.433 54.9607 151.116Z" fill="#E6E6E6"/>
<path d="M52.0618 150.223C51.4994 150.741 50.7013 150.993 49.9438 150.891C49.1864 150.788 48.7813 149.752 48.377 149.103C49.001 148.852 50.6655 148.644 51.0453 148.613C51.425 148.582 51.8343 148.681 52.0926 148.961C52.351 149.241 52.4008 149.723 52.1369 149.997C52.1151 149.987 52.0618 150.223 52.0618 150.223Z" fill="#E6E6E6"/>
<path d="M49.0055 151.984C49.346 151.375 50.3534 150.795 51.0505 150.795C51.7475 150.794 52.4081 151.154 52.7507 151.662C52.6503 152.122 52.2165 152.452 51.7602 152.57C51.3032 152.688 50.8223 152.634 50.3541 152.579C49.8858 152.525 49.4043 152.471 48.9473 152.589L49.0055 151.984Z" fill="#E6E6E6"/>
<path d="M59.918 161.703H55.7208C55.4063 161.697 55.1255 161.899 55.0314 162.2C54.6867 163.288 53.9531 166.152 53.9531 170.662C53.9531 175.618 55.2455 182.195 55.652 184.138C55.7201 184.466 56.0072 184.701 56.3413 184.704H59.2638C59.5979 184.701 59.885 184.466 59.9531 184.138C60.3596 182.195 61.652 175.617 61.652 170.662C61.652 166.152 60.9177 163.288 60.5737 162.2C60.4817 161.912 60.2192 161.713 59.918 161.703Z" fill="#F0F0F0"/>
<path d="M175.501 300.265C250.672 300.265 311.611 296.706 311.611 292.316C311.611 287.926 250.672 284.367 175.501 284.367C100.329 284.367 39.3906 287.926 39.3906 292.316C39.3906 296.706 100.329 300.265 175.501 300.265Z" fill="#F5F5F5"/>
<path d="M84.7884 264.994C84.5497 264.979 84.3636 264.777 84.3693 264.535C84.8887 243.903 85.953 210.058 86.0084 209.873C86.0793 209.636 86.3293 209.507 86.5658 209.571C86.8024 209.642 86.9386 209.891 86.8691 210.129C86.8558 210.174 85.781 244.136 85.2664 264.558C85.2608 264.805 85.0544 265.001 84.8066 264.996C84.8003 264.995 84.7947 264.994 84.7884 264.994Z" fill="#263238"/>
<path d="M82.0152 196.098C82.1879 197.688 84.0904 203.196 85.6797 203.024C87.2683 202.851 87.9422 197.062 87.7695 195.472C87.5968 193.884 86.1683 192.735 84.5796 192.908C82.9903 193.081 81.8425 194.51 82.0152 196.098Z" fill="#CC0000"/>
<path d="M89.7286 213.476C89.5559 211.887 87.6535 206.378 86.0642 206.551C84.4748 206.724 83.8009 212.513 83.9736 214.102C84.1463 215.691 85.5749 216.839 87.1635 216.667C88.7535 216.494 89.902 215.066 89.7286 213.476Z" fill="#CC0000"/>
<path d="M77.1836 208.644C78.773 208.471 84.2816 206.569 84.1089 204.979C83.9362 203.391 78.1468 202.717 76.5582 202.89C74.9688 203.062 73.8211 204.491 73.9938 206.08C74.1664 207.669 75.5943 208.817 77.1836 208.644Z" fill="#CC0000"/>
<path d="M94.5601 200.931C92.9707 201.104 87.4621 203.006 87.6348 204.596C87.8082 206.185 93.5969 206.859 95.1862 206.686C96.7756 206.513 97.9233 205.084 97.7507 203.496C97.578 201.907 96.1487 200.759 94.5601 200.931Z" fill="#CC0000"/>
<path d="M77.0005 201.371C78.2466 202.372 83.487 204.923 84.4887 203.677C85.4905 202.431 81.8731 197.861 80.6277 196.859C79.3817 195.858 77.56 196.056 76.5582 197.302C75.5572 198.547 75.7552 200.369 77.0005 201.371Z" fill="#CC0000"/>
<path d="M94.7432 208.204C93.4972 207.202 88.2568 204.652 87.255 205.898C86.254 207.144 89.8707 211.714 91.1167 212.715C92.3628 213.717 94.1844 213.519 95.1855 212.273C96.188 211.027 95.9893 209.205 94.7432 208.204Z" fill="#CC0000"/>
<path d="M82.455 213.657C83.4561 212.411 86.0064 207.171 84.7604 206.169C83.5143 205.168 78.945 208.785 77.9432 210.031C76.9415 211.277 77.1402 213.099 78.3862 214.1C79.6316 215.102 81.4532 214.904 82.455 213.657Z" fill="#CC0000"/>
<path d="M89.2896 195.917C88.2885 197.163 85.7382 202.403 86.9842 203.405C88.2303 204.406 92.8003 200.789 93.8013 199.543C94.8031 198.297 94.6044 196.476 93.3584 195.475C92.113 194.473 90.2906 194.671 89.2896 195.917Z" fill="#CC0000"/>
<g opacity="0.6">
<path d="M82.0152 196.098C82.1879 197.688 84.0904 203.196 85.6797 203.024C87.2683 202.851 87.9422 197.062 87.7695 195.472C87.5968 193.884 86.1683 192.735 84.5796 192.908C82.9903 193.081 81.8425 194.51 82.0152 196.098Z" fill="white"/>
<path d="M89.7286 213.476C89.5559 211.887 87.6535 206.378 86.0642 206.551C84.4748 206.724 83.8009 212.513 83.9736 214.102C84.1463 215.691 85.5749 216.839 87.1635 216.667C88.7535 216.494 89.902 215.066 89.7286 213.476Z" fill="white"/>
<path d="M77.1836 208.644C78.773 208.471 84.2816 206.569 84.1089 204.979C83.9362 203.391 78.1468 202.717 76.5582 202.89C74.9688 203.062 73.8211 204.491 73.9938 206.08C74.1664 207.669 75.5943 208.817 77.1836 208.644Z" fill="white"/>
<path d="M94.5601 200.931C92.9707 201.104 87.4621 203.006 87.6348 204.596C87.8082 206.185 93.5969 206.859 95.1862 206.686C96.7756 206.513 97.9233 205.084 97.7507 203.496C97.578 201.907 96.1487 200.759 94.5601 200.931Z" fill="white"/>
<path d="M77.0005 201.371C78.2466 202.372 83.487 204.923 84.4887 203.677C85.4905 202.431 81.8731 197.861 80.6277 196.859C79.3817 195.858 77.56 196.056 76.5582 197.302C75.5572 198.547 75.7552 200.369 77.0005 201.371Z" fill="white"/>
<path d="M94.7432 208.204C93.4972 207.202 88.2568 204.652 87.255 205.898C86.254 207.144 89.8707 211.714 91.1167 212.715C92.3628 213.717 94.1844 213.519 95.1855 212.273C96.188 211.027 95.9893 209.205 94.7432 208.204Z" fill="white"/>
<path d="M82.455 213.657C83.4561 212.411 86.0064 207.171 84.7604 206.169C83.5143 205.168 78.945 208.785 77.9432 210.031C76.9415 211.277 77.1402 213.099 78.3862 214.1C79.6316 215.102 81.4532 214.904 82.455 213.657Z" fill="white"/>
<path d="M89.2896 195.917C88.2885 197.163 85.7382 202.403 86.9842 203.405C88.2303 204.406 92.8003 200.789 93.8013 199.543C94.8031 198.297 94.6044 196.476 93.3584 195.475C92.113 194.473 90.2906 194.671 89.2896 195.917Z" fill="white"/>
</g>
<path d="M82.4656 205.158C82.6699 207.04 84.3617 208.4 86.2438 208.195C88.1259 207.991 89.4856 206.299 89.2806 204.417C89.0757 202.535 87.3838 201.175 85.5025 201.38C83.6204 201.585 82.2614 203.276 82.4656 205.158Z" fill="#CC0000"/>
<path d="M82.8021 249.876C78.847 249.963 72.0797 246.309 69.417 242.743C66.715 239.124 74.2924 241.352 73.5069 238.507C72.7207 235.662 63.3925 237.794 61.6578 233.72C59.9232 229.646 66.661 230.565 66.3872 228.48C66.1141 226.396 59.1377 226.84 56.8849 222.511C54.6322 218.182 60.7768 220.593 59.8081 218.799C58.8393 217.005 51.1243 209.465 54.3395 207.879C57.5539 206.293 64.7888 214.148 67.2071 215.021C69.6255 215.893 70.1745 210.45 73.3258 213.043C76.4771 215.637 74.1577 227.017 77.8628 228.507C80.6224 229.617 79.4346 224.412 82.6118 225.717C88.1745 228.002 84.4083 249.841 82.8021 249.876Z" fill="#CC0000"/>
<g opacity="0.2">
<path d="M82.8021 249.876C78.847 249.963 72.0797 246.309 69.417 242.743C66.715 239.124 74.2924 241.352 73.5069 238.507C72.7207 235.662 63.3925 237.794 61.6578 233.72C59.9232 229.646 66.661 230.565 66.3872 228.48C66.1141 226.396 59.1377 226.84 56.8849 222.511C54.6322 218.182 60.7768 220.593 59.8081 218.799C58.8393 217.005 51.1243 209.465 54.3395 207.879C57.5539 206.293 64.7888 214.148 67.2071 215.021C69.6255 215.893 70.1745 210.45 73.3258 213.043C76.4771 215.637 74.1577 227.017 77.8628 228.507C80.6224 229.617 79.4346 224.412 82.6118 225.717C88.1745 228.002 84.4083 249.841 82.8021 249.876Z" fill="white"/>
</g>
<path d="M88.486 244.858C88.552 244.969 87.9602 245.53 89.9131 245.61C94.7225 245.808 103.226 245.484 106.419 241.111C110.979 234.868 100.463 235.441 101.486 231.999C102.508 228.556 113.805 231.367 116.01 226.453C118.215 221.538 109.999 222.498 110.379 219.969C110.76 217.441 119.381 220.717 122.222 215.504C125.063 210.291 117.533 213.08 118.753 210.92C119.973 208.76 129.533 199.768 125.66 197.764C121.787 195.76 112.803 205.146 109.841 206.151C106.878 207.155 106.193 197.949 102.299 201.03C98.4052 204.111 100.961 218.008 96.4193 219.733C93.0363 221.019 94.8819 216.038 90.7078 216.229C85.037 216.489 83.1725 235.975 88.486 244.858Z" fill="#CC0000"/>
<g opacity="0.3">
<path d="M88.486 244.858C88.552 244.969 87.9602 245.53 89.9131 245.61C94.7225 245.808 103.226 245.484 106.419 241.111C110.979 234.868 100.463 235.441 101.486 231.999C102.508 228.556 113.805 231.367 116.01 226.453C118.215 221.538 109.999 222.498 110.379 219.969C110.76 217.441 119.381 220.717 122.222 215.504C125.063 210.291 117.533 213.08 118.753 210.92C119.973 208.76 129.533 199.768 125.66 197.764C121.787 195.76 112.803 205.146 109.841 206.151C106.878 207.155 106.193 197.949 102.299 201.03C98.4052 204.111 100.961 218.008 96.4193 219.733C93.0363 221.019 94.8819 216.038 90.7078 216.229C85.037 216.489 83.1725 235.975 88.486 244.858Z" fill="white"/>
</g>
<path d="M84.8808 261.877C84.8724 261.876 84.8639 261.876 84.8548 261.875C84.6835 261.855 84.5614 261.699 84.5824 261.527C88.5298 229.223 107.138 216.093 107.324 215.965C107.467 215.868 107.661 215.903 107.759 216.046C107.857 216.187 107.821 216.382 107.678 216.48C107.493 216.607 89.1139 229.596 85.203 261.603C85.1834 261.765 85.0423 261.883 84.8808 261.877Z" fill="#263238"/>
<path d="M103.091 220.452C102.964 220.447 102.848 220.363 102.806 220.236C102.753 220.072 102.843 219.896 103.007 219.842C103.123 219.804 105.894 218.928 110.434 219.892C110.603 219.928 110.711 220.094 110.675 220.263C110.639 220.432 110.473 220.541 110.304 220.504C105.942 219.579 103.228 220.429 103.201 220.438C103.164 220.448 103.127 220.453 103.091 220.452Z" fill="#263238"/>
<path d="M99.6506 224.375C99.4849 224.368 99.3529 224.234 99.3508 224.066C99.2546 214.296 104.91 206.663 104.968 206.587C105.071 206.45 105.267 206.422 105.406 206.526C105.544 206.63 105.571 206.825 105.468 206.964C105.412 207.038 99.8829 214.51 99.977 224.06C99.9784 224.233 99.8401 224.374 99.6674 224.376C99.6618 224.376 99.6562 224.375 99.6506 224.375Z" fill="#263238"/>
<path d="M94.1088 232.644C94.0302 232.64 93.9523 232.608 93.894 232.545C93.7754 232.421 93.781 232.223 93.9066 232.103C93.9488 232.064 98.1355 228.193 103.618 230.157C103.78 230.216 103.865 230.395 103.807 230.557C103.749 230.72 103.57 230.805 103.407 230.746C98.2815 228.908 94.3749 232.521 94.3363 232.558C94.2731 232.618 94.1903 232.647 94.1088 232.644Z" fill="#263238"/>
<path d="M91.2134 238.414C91.0968 238.409 90.9873 238.338 90.9389 238.224C90.8511 238.019 88.8006 233.107 89.9308 226.109C89.9589 225.939 90.1126 225.82 90.2895 225.851C90.4601 225.878 90.576 226.038 90.5486 226.209C89.4492 233.018 91.4935 237.93 91.5145 237.978C91.5819 238.137 91.5082 238.321 91.3496 238.388C91.3046 238.407 91.2583 238.415 91.2134 238.414Z" fill="#263238"/>
<path d="M85.0065 273.416C84.8443 273.409 84.7123 273.277 84.7074 273.113L84.3016 264.557C83.1047 236.109 63.5905 216.759 63.3933 216.568C63.2697 216.447 63.2669 216.249 63.3877 216.125C63.5091 216.002 63.7064 216 63.8299 216.12C64.0286 216.314 83.7183 235.828 84.9264 264.535L85.3322 273.094C85.3378 273.267 85.2023 273.411 85.0296 273.417C85.0219 273.416 85.0142 273.416 85.0065 273.416Z" fill="#263238"/>
<path d="M71.4426 227.254C71.4258 227.253 71.4082 227.251 71.3914 227.248C71.364 227.242 71.3303 227.229 71.3001 227.213L71.199 227.172C68.6445 226.111 65.7901 225.56 63.1633 225.618C62.9878 225.626 62.8474 225.485 62.8438 225.312C62.8396 225.139 62.9765 224.997 63.1492 224.992C65.8617 224.934 68.8059 225.501 71.4391 226.594L71.543 226.637C71.562 226.644 71.5795 226.653 71.5964 226.662C71.7192 226.725 71.7901 226.864 71.7606 227.005C71.7291 227.158 71.5922 227.261 71.4426 227.254Z" fill="#263238"/>
<path d="M74.2021 230.918C74.1971 230.918 74.1915 230.917 74.1866 230.916C74.0146 230.902 73.8876 230.749 73.903 230.577C74.6584 222.181 70.3102 215.272 70.2659 215.204C70.1733 215.058 70.2154 214.864 70.3607 214.772C70.5074 214.679 70.6998 214.721 70.7924 214.867C70.8374 214.937 75.3014 222.018 74.5257 230.633C74.5109 230.801 74.3677 230.925 74.2021 230.918Z" fill="#263238"/>
<path d="M77.0495 235.782C76.9737 235.78 76.8979 235.748 76.8403 235.69C76.8087 235.658 73.6399 232.531 69.0025 233.766C68.8347 233.812 68.6641 233.711 68.6199 233.544C68.5757 233.377 68.6747 233.206 68.8417 233.162C73.8407 231.828 77.1478 235.111 77.2854 235.251C77.4068 235.374 77.4054 235.571 77.2826 235.693C77.218 235.756 77.1338 235.786 77.0495 235.782Z" fill="#263238"/>
<path d="M80.6649 243.799C80.62 243.797 80.575 243.786 80.5329 243.764C80.3799 243.684 80.3209 243.495 80.4009 243.342C80.4227 243.3 82.5701 239.103 82.0808 233.047C82.0668 232.875 82.1946 232.724 82.3672 232.711C82.5406 232.69 82.6902 232.825 82.7042 232.998C83.2096 239.243 81.0475 243.456 80.9555 243.633C80.8973 243.742 80.7821 243.803 80.6649 243.799Z" fill="#263238"/>
<path d="M102.602 274.762C102.602 284.74 98.1141 292.833 84.5227 292.833C71.5511 292.833 66.4434 284.74 66.4434 274.762C66.4434 270.999 67.5996 267.498 69.5673 264.604H99.4781C101.446 267.498 102.602 270.999 102.602 274.762Z" fill="#CC0000"/>
<path opacity="0.7" d="M102.602 274.762C102.602 284.74 98.1141 292.833 84.5227 292.833C71.5511 292.833 66.4434 284.74 66.4434 274.762C66.4434 270.999 67.5996 267.498 69.5673 264.604H99.4781C101.446 267.498 102.602 270.999 102.602 274.762Z" fill="white"/>
<path d="M206.458 284.011L213.45 282.99L211.684 266.633L204.691 267.654L206.458 284.011Z" fill="#E8BFBF"/>
<path d="M218.828 283.237C219.435 283.192 220.009 282.943 220.456 282.529C220.647 282.288 220.708 281.969 220.618 281.676C220.578 281.492 220.445 281.341 220.267 281.28C219.332 280.946 216.775 282.83 216.489 283.043C216.434 283.088 216.41 283.16 216.428 283.229C216.451 283.295 216.514 283.339 216.584 283.34C217.333 283.374 218.084 283.339 218.828 283.237ZM219.811 281.597C219.916 281.571 220.027 281.575 220.13 281.605C220.204 281.629 220.258 281.69 220.275 281.765C220.332 281.959 220.293 282.169 220.171 282.33C219.811 282.778 218.67 283.03 217.078 283.03C217.907 282.395 218.838 281.907 219.832 281.586L219.811 281.597Z" fill="#CC0000"/>
<path d="M216.622 283.347L216.68 283.321C217.455 282.81 218.854 281.029 218.592 280.259C218.511 280.087 218.365 279.867 217.896 279.893C217.557 279.898 217.236 280.049 217.013 280.305C216.256 281.174 216.406 283.089 216.408 283.167C216.406 283.226 216.432 283.282 216.478 283.318C216.519 283.35 216.572 283.361 216.622 283.347ZM217.798 280.244L217.891 280.201C218.2 280.188 218.236 280.303 218.246 280.341C218.411 280.807 217.483 282.175 216.711 282.807C216.64 282.002 216.827 281.194 217.245 280.502C217.394 280.346 217.596 280.251 217.812 280.237L217.798 280.244Z" fill="#CC0000"/>
<path d="M212.735 280.094L206.534 281.572C206.255 281.629 206.065 281.889 206.095 282.173L206.295 291.145C206.381 291.774 206.961 292.213 207.589 292.127C207.633 292.121 207.677 292.112 207.719 292.102C210.405 291.433 211.672 290.977 215.088 290.189C217.18 289.707 223.812 289.208 226.529 287.997C229.245 286.788 228.187 284.034 226.948 284.294C222.963 285.151 217.844 283.446 214.935 280.849C214.541 280.656 213.161 279.984 212.735 280.094Z" fill="#263238"/>
<path opacity="0.2" d="M211.684 266.633L212.594 275.064L205.603 276.092L204.686 267.663L211.684 266.633Z" fill="black"/>
<path d="M215.42 271.595L202.482 274.01C202.482 274.01 196.2 265.041 195.015 258.672C193.78 252.04 195.099 229.463 195.015 229.163C191.355 216.81 181.413 184.796 176.612 173.016C173.954 166.488 172.088 162.092 172.088 162.092L173.432 161.791L183.992 157.465L191.688 158.915C191.688 158.915 215.073 206.203 217.525 223.993C219.354 237.275 215.42 271.595 215.42 271.595Z" fill="#CC0000"/>
<path opacity="0.3" d="M215.42 271.595L202.482 274.01C202.482 274.01 196.2 265.041 195.015 258.672C193.78 252.04 195.099 229.463 195.015 229.163C191.355 216.81 181.413 184.796 176.612 173.016C173.954 166.488 172.088 162.092 172.088 162.092L173.432 161.791L183.992 157.465L191.688 158.915C191.688 158.915 215.073 206.203 217.525 223.993C219.354 237.275 215.42 271.595 215.42 271.595Z" fill="white"/>
<path opacity="0.2" d="M191.966 218.465C188.307 206.112 180.926 187.372 176.124 175.591L172.943 164.366L172.332 162.207L173.445 164.247L185.979 192.008C191.509 202.638 192.051 218.764 191.966 218.465Z" fill="black"/>
<path d="M135.186 280.158L141.417 282.784L148.068 268.514L141.836 265.889L135.186 280.158Z" fill="#E8BFBF"/>
<path d="M145.478 285.771C145.972 286.079 146.556 286.211 147.135 286.145C147.419 286.067 147.646 285.854 147.743 285.577C147.816 285.412 147.798 285.221 147.696 285.073C147.163 284.287 144.123 284.297 143.783 284.299C143.715 284.303 143.655 284.345 143.63 284.408C143.611 284.473 143.634 284.542 143.688 284.582C144.247 285.032 144.846 285.43 145.478 285.771ZM147.164 285.06C147.26 285.099 147.343 285.164 147.406 285.247C147.449 285.306 147.458 285.385 147.427 285.452C147.361 285.634 147.213 285.774 147.027 285.829C146.497 285.971 145.472 285.521 144.244 284.621C145.243 284.6 146.238 284.75 147.187 285.064L147.164 285.06Z" fill="#CC0000"/>
<path d="M143.713 284.61L143.773 284.622C144.661 284.666 146.747 284.082 146.979 283.339C147.014 283.161 147.026 282.907 146.649 282.663C146.384 282.475 146.051 282.409 145.735 282.482C144.658 282.725 143.692 284.289 143.649 284.35C143.614 284.394 143.603 284.452 143.618 284.506C143.631 284.554 143.667 284.592 143.713 284.61ZM146.374 282.879L146.471 282.898C146.717 283.063 146.68 283.171 146.665 283.207C146.529 283.66 145.04 284.192 144.087 284.243C144.487 283.581 145.087 283.064 145.801 282.765C146.005 282.73 146.215 282.771 146.389 282.882L146.374 282.879Z" fill="#CC0000"/>
<path d="M142.55 279.904L136.927 277.54C136.679 277.427 136.385 277.52 136.248 277.756L131.332 284.796C131.043 285.33 131.242 285.997 131.776 286.286C131.813 286.307 131.851 286.324 131.89 286.34C134.342 287.341 135.579 287.705 138.661 289.028C140.55 289.838 145.953 293.201 148.733 293.802C151.514 294.404 152.254 291.679 151.15 291.179C147.589 289.589 144.599 285.378 143.822 281.73C143.626 281.358 142.94 280.06 142.55 279.904Z" fill="#263238"/>
<path opacity="0.2" d="M148.339 268.682L144.734 275.952L138.564 273.183L142.164 265.91L148.339 268.682Z" fill="black"/>
<path d="M149.637 276.605L137.226 269.989C137.226 269.989 134.846 261.153 137.226 255.516C141.805 244.669 153.721 228.72 153.801 228.42C156.981 215.934 162.558 181.742 164.463 169.165C165.52 162.195 166.142 160.691 166.142 160.691L167.451 161.12L186.442 161.158C186.442 161.158 190.025 189.917 176.294 234.445C172.877 245.524 167.154 254.736 157.737 267.197C154.16 271.928 149.637 276.605 149.637 276.605Z" fill="#CC0000"/>
<path opacity="0.3" d="M149.637 276.605L137.226 269.989C137.226 269.989 134.846 261.153 137.226 255.516C141.805 244.669 153.721 228.72 153.801 228.42C156.981 215.934 162.558 181.742 164.463 169.165C165.52 162.195 166.142 160.691 166.142 160.691L167.451 161.12L186.442 161.158C186.442 161.158 190.025 189.917 176.294 234.445C172.877 245.524 167.154 254.736 157.737 267.197C154.16 271.928 149.637 276.605 149.637 276.605Z" fill="white"/>
<path d="M203.268 137.661C203.407 135.528 204.821 132.781 206.041 131.511C206.433 131.105 207.913 130.488 208.752 129.941C212.876 127.236 221.129 123.861 221.129 123.861L223.675 126.082C223.675 126.082 218.648 130.941 215.658 133.271C215.07 133.729 214.389 134.285 213.672 134.872C212.372 135.957 206.248 139.996 205.079 141.008L203.268 137.661Z" fill="#E8BFBF"/>
<path d="M228.389 122.605L223.678 126.085L221.035 124.139C221.035 124.139 222.113 122.765 223.222 121.701C223.708 121.234 223.971 120.59 223.977 119.915C223.986 118.878 224.143 117.674 224.707 116.791C224.721 116.77 224.728 116.749 224.741 116.735C225.762 115.196 228.15 115.659 228.633 117.439L229.313 119.95C229.581 120.942 229.214 121.995 228.389 122.605Z" fill="#E8BFBF"/>
<path d="M204.774 138.602L203.532 139.74C203.145 139.43 202.532 138.933 201.759 138.291C195.708 133.268 180.537 121.083 186.585 117.605C191.769 114.624 197.274 123.746 200.02 126.485C200.579 127.051 202.111 128.817 203.346 131.033C204.636 133.357 205.595 136.173 204.774 138.602Z" fill="#263238"/>
<path d="M203.343 129.941C201.195 131.511 199.362 133.509 197.982 135.783C198.977 139.08 201.483 141.949 204.642 143.319C206.373 139.302 207.18 134.982 206.837 130.621C205.741 130.385 204.438 130.177 203.343 129.941Z" fill="#263238"/>
<path d="M170.029 116.894C167.864 117.589 165.386 117.033 163.996 118.833C162.607 120.633 162.189 123.008 162.191 125.282C162.194 128.444 162.917 131.556 163.637 134.635C164.509 138.369 165.381 142.103 166.252 145.836C166.848 148.389 166.222 160.257 166.858 160.456C166.858 160.456 186.702 160.067 191.678 159.37C191.678 159.37 192.111 147.17 192.51 143.014C192.599 142.093 193.998 138.178 194.163 137.195C194.938 132.56 193.418 129.292 191.814 124.875C191.814 124.875 188.299 117.799 186.584 117.606C183.529 117.262 176.061 114.955 170.029 116.894Z" fill="#263238"/>
<path d="M169.194 122.749C169.123 122.337 165.601 115.223 162.226 120.195C157.528 127.117 157.211 135.808 157.211 135.808C157.211 135.808 154.324 144.259 156.336 146.104C158.348 147.95 160.517 149.138 161.924 148.091C163.329 147.044 164.241 144.953 164.241 144.953C164.241 144.953 170.428 129.99 169.194 122.749Z" fill="#263238"/>
<path d="M168.967 114.256C167.485 115.412 167.68 118.092 169.313 119.02C168.903 120.455 169.383 122.106 170.499 123.098C171.615 124.089 173.311 124.37 174.688 123.792C174.093 124.859 174.764 126.266 175.791 126.926C176.818 127.586 178.087 127.706 179.297 127.868C180.507 128.03 181.785 128.291 182.663 129.139C183.914 127.339 185.165 125.54 186.416 123.74C186.903 123.039 187.407 122.287 187.445 121.435C187.483 120.582 186.835 119.642 185.984 119.705C186.849 118.803 186.867 117.221 186.022 116.3C185.176 115.379 183.599 115.261 182.627 116.046C182.801 115.325 182.378 114.559 181.77 114.135C181.16 113.711 180.402 113.566 179.664 113.494L168.967 114.256Z" fill="#263238"/>
<path d="M171.218 105.094C172.194 108.676 173.379 115.281 171.01 117.892C171.01 117.892 177.712 120.576 182.476 125.961C184.693 123.808 184.463 121.388 183.784 119.618C183.258 118.247 182.127 117.229 180.775 116.655C178.166 115.547 178.143 112.978 178.577 110.516L171.218 105.094Z" fill="#E8BFBF"/>
<path opacity="0.2" d="M172.678 111.193L175.142 111.862C176.198 112.149 177.302 112.214 178.384 112.055C178.374 112.585 178.278 113.713 178.612 114.307C177.197 114.99 174.803 114.522 173.745 113.275C173.307 112.788 172.916 111.803 172.678 111.193Z" fill="black"/>
<path d="M166.433 102.044C169.042 107.551 170.029 109.936 174.046 111.688C180.098 114.338 186.272 109.914 185.357 103.74C184.535 98.1862 180.404 90.1132 173.981 90.0844C169.391 90.0395 165.633 93.7229 165.588 98.3132C165.576 99.6049 165.865 100.883 166.433 102.044Z" fill="#E8BFBF"/>
<path d="M169.3 91.528C167.399 90.64 165.036 91.3645 163.453 92.7572C161.842 94.1746 160.861 96.157 159.921 98.0854C159.41 99.1335 158.894 100.196 158.658 101.338C158.421 102.48 158.489 103.729 159.093 104.727C159.684 105.706 160.785 106.348 161.923 106.415C162.577 106.453 163.343 106.926 163.555 107.546C163.752 108.123 163.658 108.747 163.566 109.345C163.477 109.925 163.392 110.53 163.574 111.087C163.877 112.014 164.868 112.576 165.839 112.67C166.809 112.764 167.773 112.483 168.707 112.205C169.299 112.029 169.895 112.131 170.356 112.544C170.471 112.647 170.565 112.771 170.637 112.907C170.927 113.459 171.769 113.372 172.011 112.797C172.861 110.778 171.624 107.551 169.783 105.089C168.806 103.781 168.859 104.115 168.475 102.528C168.156 101.209 168.64 99.8313 169.231 98.6084C170.02 96.9777 171.033 95.3869 170.72 93.4403C170.588 92.6168 170.056 91.8804 169.3 91.528Z" fill="#263238"/>
<path d="M166.599 107.678C167.464 108.599 168.66 109.139 169.923 109.179C171.6 109.215 172.025 107.616 171.216 106.252C170.485 105.022 168.733 103.527 167.215 104.121C165.697 104.715 165.543 106.53 166.599 107.678Z" fill="#E8BFBF"/>
<path d="M176.926 101.064C177.12 101.547 177.503 101.801 177.806 101.677C178.109 101.553 178.184 101.095 178.016 100.628C177.848 100.16 177.44 99.8955 177.136 100.015C176.832 100.134 176.745 100.606 176.926 101.064Z" fill="#263238"/>
<path d="M182.064 98.8548C182.253 99.3385 182.641 99.5919 182.939 99.469C183.238 99.3462 183.317 98.8871 183.149 98.4196C182.981 97.952 182.574 97.6874 182.274 97.8053C181.975 97.9225 181.877 98.3971 182.064 98.8548Z" fill="#263238"/>
<path d="M182.143 97.8868L183.118 97.123C183.118 97.123 182.907 98.2104 182.143 97.8868Z" fill="#263238"/>
<path d="M180.73 99.8848C181.923 101.062 182.821 101.278 184.113 102.086C184.075 103.233 182.996 103.497 182.996 103.497L180.73 99.8848Z" fill="#ED847E"/>
<path d="M182.45 105.744C182.673 105.661 182.888 105.559 183.095 105.44C183.162 105.404 183.187 105.32 183.151 105.253C183.15 105.251 183.149 105.249 183.148 105.246C183.108 105.179 183.024 105.153 182.953 105.186C181.864 105.819 180.538 105.889 179.389 105.374C179.317 105.336 179.228 105.363 179.189 105.435C179.151 105.507 179.178 105.597 179.25 105.635C180.259 106.098 181.411 106.137 182.45 105.744Z" fill="#263238"/>
<path d="M176.734 97.2434C176.727 97.3746 176.637 97.487 176.51 97.5221C175.163 97.9215 174.566 99.6302 174.563 99.6442C174.51 99.8028 174.338 99.8885 174.18 99.8351C174.021 99.7818 173.936 99.6105 173.988 99.4518C174.04 99.3873 174.692 97.4273 176.333 96.9373C176.493 96.8924 176.66 96.9829 176.709 97.1423C176.726 97.1732 176.734 97.2083 176.734 97.2434Z" fill="#263238"/>
<path d="M182.947 96.4165C182.835 96.4853 182.691 96.4748 182.59 96.3905C181.495 95.5116 179.75 95.9946 179.737 96.0002C179.577 96.0472 179.408 95.9546 179.362 95.7938C179.315 95.6331 179.407 95.4646 179.568 95.4183C179.651 95.4239 181.633 94.8426 182.971 95.9125C183.099 96.0185 183.12 96.2073 183.017 96.3386C183 96.3695 182.976 96.3961 182.947 96.4165Z" fill="#263238"/>
<path d="M177.014 100.097L177.99 99.3379C177.99 99.3379 177.769 100.423 177.014 100.097Z" fill="#263238"/>
<path d="M169.719 90.6088C168.186 90.7317 166.73 91.6042 165.899 92.898C165.34 93.7664 165.144 95.0862 165.969 95.706C166.356 95.996 166.864 96.0486 167.346 96.0907C169.483 96.2782 172.117 94.6278 172.117 94.6278C171.293 91.1388 178.613 88.4389 182.221 93.8436C183.281 95.4316 182.995 96.5849 184.758 97.3185C185.588 97.6639 186.681 97.5684 187.213 98.2936C188.094 99.4961 186.4 101.533 187.476 102.565C188.212 103.271 189.882 103.002 189.984 104.017C190.033 104.494 189.72 105.185 190.179 105.325C190.433 105.402 190.667 105.17 190.831 104.961C191.228 104.457 191.637 103.93 191.773 103.304C191.909 102.677 191.686 101.922 191.102 101.657C190.654 101.453 189.468 101.681 189.549 102.167C189.646 102.751 189.144 99.8815 189.369 98.7969C189.564 97.8528 190.466 97.0342 190.193 96.109C189.901 95.122 188.728 94.7282 187.711 94.5772C186.693 94.4263 185.538 94.3027 184.913 93.4856C184.214 92.573 184.532 91.2694 184.308 90.142C184.022 88.7085 182.827 87.5916 181.485 87.0104C177.416 85.2448 171.12 85.4954 169.719 90.6088Z" fill="#263238"/>
<path d="M181.28 109.339L167.243 116.39C162.628 118.708 160.541 124.159 162.426 128.968L169.196 146.232C171.081 151.04 176.319 153.625 181.282 152.193L196.376 147.84C202.033 146.209 205.061 140.07 202.912 134.59L195.085 114.627C192.936 109.147 186.54 106.697 181.28 109.339ZM178.96 138.989C175.831 140.214 172.298 138.67 171.071 135.541C169.844 132.412 171.388 128.883 174.517 127.658C177.647 126.433 181.178 127.976 182.405 131.104C183.632 134.233 182.09 137.764 178.96 138.989Z" fill="#CC0000"/>
<path d="M181.28 109.339L167.243 116.39C162.628 118.708 160.541 124.159 162.426 128.968L169.196 146.232C171.081 151.04 176.319 153.625 181.282 152.193L196.376 147.84C202.033 146.209 205.061 140.07 202.912 134.59L195.085 114.627C192.936 109.147 186.54 106.697 181.28 109.339ZM178.96 138.989C175.831 140.214 172.298 138.67 171.071 135.541C169.844 132.412 171.388 128.883 174.517 127.658C177.647 126.433 181.178 127.976 182.405 131.104C183.632 134.233 182.09 137.764 178.96 138.989Z" fill="#CC0000"/>
<path opacity="0.1" d="M202.914 134.594L195.083 114.632C192.937 109.146 186.54 106.696 181.282 109.339L177.204 111.388L174.465 112.762L167.248 116.391C162.632 118.71 160.541 124.161 162.425 128.97L169.194 146.234C171.084 151.044 176.322 153.624 181.283 152.196L196.381 147.843C197.616 147.484 198.727 146.911 199.686 146.173C200.431 145.607 201.08 144.944 201.625 144.206C203.605 141.542 204.226 137.947 202.914 134.594ZM178.957 138.989C175.831 140.217 172.297 138.672 171.07 135.539C169.841 132.413 171.387 128.88 174.52 127.659C177.645 126.43 181.178 127.976 182.407 131.102C183.628 134.235 182.09 137.761 178.957 138.989Z" fill="white"/>
<path d="M181.425 110.654L168.26 117.267C163.932 119.441 161.974 124.553 163.743 129.064L170.091 145.255C171.86 149.764 176.772 152.187 181.427 150.846L195.584 146.763C200.889 145.233 203.729 139.476 201.714 134.336L194.372 115.613C192.357 110.474 186.357 108.175 181.425 110.654ZM171.071 135.542C169.844 132.414 171.387 128.884 174.517 127.659C177.646 126.434 181.177 127.977 182.405 131.106C183.632 134.235 182.089 137.765 178.96 138.99C175.83 140.215 172.298 138.671 171.071 135.542Z" fill="#CC0000"/>
<path opacity="0.1" d="M181.425 110.654L168.26 117.267C163.932 119.441 161.974 124.553 163.743 129.064L170.091 145.255C171.86 149.764 176.772 152.187 181.427 150.846L195.584 146.763C200.889 145.233 203.729 139.476 201.714 134.336L194.372 115.613C192.357 110.474 186.357 108.175 181.425 110.654ZM171.071 135.542C169.844 132.414 171.387 128.884 174.517 127.659C177.646 126.434 181.177 127.977 182.405 131.106C183.632 134.235 182.089 137.765 178.96 138.99C175.83 140.215 172.298 138.671 171.071 135.542Z" fill="#CC0000"/>
<path d="M246.836 104.41L246.433 105.145L246.21 105.552L245.575 106.713L245.841 109.683C245.852 109.81 245.837 109.936 245.8 110.052C245.715 110.308 245.52 110.523 245.257 110.626L239.709 112.798C239.447 112.9 239.159 112.877 238.922 112.744C238.845 112.702 238.774 112.65 238.711 112.584L235.575 109.395L235.567 109.386L231.106 111.132L231.753 112.78L227.293 114.526L228.357 117.241L225.073 118.526C224.804 118.631 224.507 118.613 224.258 118.483C224.176 118.443 224.1 118.388 224.031 118.324L222.138 116.544L217.678 118.29L218.742 121.004L214.052 122.84L215.121 125.566C215.296 126.011 215.076 126.513 214.631 126.688L201.787 131.716L196.213 117.502L242.675 99.3145L243.401 99.6872L245.757 100.897C247.041 101.556 247.529 103.145 246.836 104.41Z" fill="#CC0000"/>
<g opacity="0.1">
<path d="M246.836 104.41L246.433 105.145L246.21 105.552L245.575 106.713L245.841 109.683C245.852 109.81 245.837 109.936 245.8 110.052C245.715 110.308 245.52 110.523 245.257 110.626L239.709 112.798C239.447 112.9 239.159 112.877 238.922 112.744C238.845 112.702 238.774 112.65 238.711 112.584L235.575 109.395L235.567 109.386L231.106 111.132L231.753 112.78L227.293 114.526L228.357 117.241L225.073 118.526C224.804 118.631 224.507 118.613 224.258 118.483C224.176 118.443 224.1 118.388 224.031 118.324L222.138 116.544L217.678 118.29L218.742 121.004L214.052 122.84L215.121 125.566C215.296 126.011 215.076 126.513 214.631 126.688L201.787 131.716L196.213 117.502L242.675 99.3145L243.401 99.6872L245.757 100.897C247.041 101.556 247.529 103.145 246.836 104.41Z" fill="white"/>
</g>
<path d="M246.653 102.792L196.979 122.237L195.531 118.589L242.893 100.049L245.249 101.258C246.146 101.719 246.661 102.146 246.653 102.792Z" fill="#CC0000"/>
<path opacity="0.1" d="M246.653 102.792L196.979 122.237L195.531 118.589L242.893 100.049L245.249 101.258C246.146 101.719 246.661 102.146 246.653 102.792Z" fill="black"/>
<path d="M245.672 105.53L245.191 106.61C245.183 106.627 245.179 106.647 245.182 106.666L245.45 109.607C245.46 109.714 245.451 109.821 245.426 109.921C245.417 109.956 245.391 109.983 245.358 109.996L239.325 112.371C239.293 112.383 239.256 112.382 239.226 112.363C239.167 112.326 239.112 112.282 239.063 112.232L235.613 108.765C235.581 108.733 235.533 108.723 235.491 108.74L230.594 110.667C230.536 110.691 230.507 110.756 230.53 110.814L231.113 112.292C231.136 112.35 231.107 112.415 231.049 112.439L226.873 114.083C226.814 114.106 226.786 114.171 226.809 114.229L227.815 116.78C227.838 116.839 227.809 116.904 227.751 116.927L224.687 118.133C224.656 118.146 224.62 118.144 224.59 118.128C224.526 118.09 224.466 118.045 224.41 117.994L222.17 115.929C222.138 115.899 222.092 115.891 222.052 115.907L217.187 117.822C217.129 117.845 217.1 117.911 217.123 117.969L218.154 120.583C218.177 120.641 218.148 120.707 218.09 120.73L199.411 128.081C199.353 128.104 199.288 128.075 199.264 128.017L197.401 123.339C197.377 123.28 197.406 123.214 197.464 123.191L246.138 104.034C246.233 103.996 246.325 104.093 246.283 104.186L245.672 105.53Z" fill="#CC0000"/>
<path opacity="0.1" d="M245.672 105.53L245.191 106.61C245.183 106.627 245.179 106.647 245.182 106.666L245.45 109.607C245.46 109.714 245.451 109.821 245.426 109.921C245.417 109.956 245.391 109.983 245.358 109.996L239.325 112.371C239.293 112.383 239.256 112.382 239.226 112.363C239.167 112.326 239.112 112.282 239.063 112.232L235.613 108.765C235.581 108.733 235.533 108.723 235.491 108.74L230.594 110.667C230.536 110.691 230.507 110.756 230.53 110.814L231.113 112.292C231.136 112.35 231.107 112.415 231.049 112.439L226.873 114.083C226.814 114.106 226.786 114.171 226.809 114.229L227.815 116.78C227.838 116.839 227.809 116.904 227.751 116.927L224.687 118.133C224.656 118.146 224.62 118.144 224.59 118.128C224.526 118.09 224.466 118.045 224.41 117.994L222.17 115.929C222.138 115.899 222.092 115.891 222.052 115.907L217.187 117.822C217.129 117.845 217.1 117.911 217.123 117.969L218.154 120.583C218.177 120.641 218.148 120.707 218.09 120.73L199.411 128.081C199.353 128.104 199.288 128.075 199.264 128.017L197.401 123.339C197.377 123.28 197.406 123.214 197.464 123.191L246.138 104.034C246.233 103.996 246.325 104.093 246.283 104.186L245.672 105.53Z" fill="black"/>
<path opacity="0.3" d="M174.146 126.141C170.22 127.677 168.285 132.105 169.823 136.03C171.363 139.956 175.793 141.891 179.719 140.355C183.645 138.818 185.58 134.391 184.041 130.465C182.502 126.539 178.072 124.604 174.146 126.141ZM178.96 138.99C175.83 140.215 172.298 138.671 171.071 135.543C169.844 132.414 171.388 128.884 174.517 127.659C177.647 126.434 181.178 127.977 182.405 131.106C183.632 134.235 182.09 137.765 178.96 138.99Z" fill="white"/>
<path opacity="0.1" d="M201.621 144.2C201.075 144.939 200.427 145.601 199.682 146.167L174.462 112.756L174.441 112.728C174.441 112.728 176.663 111.611 177.167 111.279C177.167 111.307 177.181 111.342 177.201 111.382C178.305 113.749 198.129 139.487 201.621 144.2Z" fill="white"/>
<path opacity="0.1" d="M197.978 147.222C197.82 147.298 190.471 149.534 190.471 149.534L182.281 138.686C184.399 136.609 185.193 133.394 184.04 130.461C182.501 126.535 178.072 124.596 174.145 126.135C173.8 126.266 173.476 126.424 173.165 126.603L165.92 117.005C165.92 117.005 172.289 113.969 172.993 113.527C173.179 114.874 197.978 146.939 197.978 147.222Z" fill="white"/>
<path d="M167.91 94.5269C167.089 95.5027 166.754 96.8688 167.031 98.1135C167.307 99.3581 168.188 100.454 169.345 100.992C169.944 101.27 170.604 101.404 171.197 101.696C171.79 101.988 172.339 102.502 172.403 103.16C172.472 103.887 171.936 104.566 171.987 105.294C172.033 105.96 172.555 106.49 173.081 106.902C173.608 107.314 174.196 107.703 174.486 108.305C174.776 108.907 174.588 109.8 173.943 109.975C173.807 110.184 173.755 110.681 173.928 110.86C174.101 111.038 174.402 111.076 174.614 110.945C175.604 110.336 176.285 109.187 176.292 108.024C176.3 106.86 175.57 105.725 174.509 105.249C174.318 104.862 174.466 104.372 174.626 103.971C174.947 103.167 175.268 102.363 175.59 101.56C175.716 101.244 175.604 100.669 175.388 100.406C175.173 100.144 174.848 100 174.535 99.8664L172.466 98.979C171.684 98.6442 169.366 95.5371 172.118 94.6301C171.759 93.832 171.138 93.5814 170.276 93.4241C169.415 93.2669 168.473 93.8565 167.91 94.5269Z" fill="#263238"/>
<path d="M171.665 91.1835C171.597 92.0006 171.528 92.8171 171.459 93.6342C172.145 92.5082 173.415 90.3257 173.372 90.4106C172.833 90.7033 172.205 90.8901 171.665 91.1835Z" fill="#263238"/>
<path d="M172.594 92.5254C173.553 91.6388 174.511 90.7522 175.47 89.8663C174.73 89.589 173.834 89.7954 173.29 90.3689C173.306 90.3085 172.863 91.6704 172.594 92.5254Z" fill="#263238"/>
<path d="M166.748 158.941C163.003 163.587 164.249 167.15 159.082 175.375C165.599 180.206 172.745 181.007 181.628 180.317C182.678 178.457 183.208 176.516 184.259 174.656C185.764 176.524 186.973 178.094 188.478 179.962C193.133 179.233 198.662 177.925 202.343 175.553C199.093 171.825 197.074 167.169 194.993 163.059C194.017 161.132 194.426 160.32 191.837 157.793C183.59 158.173 175.411 158.375 167.163 158.755C167.382 158.767 166.53 158.93 166.748 158.941Z" fill="#263238"/>
<path d="M167.775 158.164L167.258 160.333C167.183 160.503 167.384 160.665 167.662 160.649L190.395 159.643C190.612 159.647 190.786 159.518 190.795 159.386L190.915 157.231C190.918 157.086 190.729 156.964 190.491 156.98L168.154 157.966C168.001 157.959 167.857 158.035 167.775 158.164Z" fill="#CC0000"/>
<path d="M167.775 158.164L167.258 160.333C167.183 160.503 167.384 160.665 167.662 160.649L190.395 159.643C190.612 159.647 190.786 159.518 190.795 159.386L190.915 157.231C190.918 157.086 190.729 156.964 190.491 156.98L168.154 157.966C168.001 157.959 167.857 158.035 167.775 158.164Z" fill="#CC0000"/>
<path d="M172.781 160.653L172.121 160.681C171.995 160.679 171.89 160.625 171.899 160.546L172.077 157.745C172.078 157.666 172.191 157.595 172.323 157.59L172.984 157.555C173.109 157.557 173.214 157.612 173.205 157.697L173.028 160.491C173.02 160.57 172.906 160.648 172.781 160.653Z" fill="#263238"/>
<path d="M189.195 159.944L188.535 159.973C188.409 159.971 188.305 159.916 188.313 159.838L188.491 157.043C188.492 156.957 188.605 156.887 188.731 156.882L189.391 156.854C189.516 156.856 189.621 156.91 189.612 156.989L189.435 159.783C189.433 159.869 189.327 159.94 189.195 159.944Z" fill="#263238"/>
<path d="M175.717 147.019C175.76 147.226 177.525 150.035 178.909 149.84C178.92 149.839 178.932 149.837 178.943 149.835C179.347 149.778 179.749 149.942 179.998 150.265C180.554 150.989 180.889 151.404 181.265 151.879C181.874 152.65 182.932 152.897 183.823 152.483C184.087 152.36 184.349 152.226 184.608 152.088C185.465 151.633 185.903 150.651 185.67 149.709C185.414 148.676 185.017 147.679 184.489 146.756C184.309 146.44 184.101 146.121 183.788 145.939C183.474 145.755 180.428 144.835 179.245 144.872C178.013 144.911 176.844 146.523 175.717 147.019Z" fill="#E8BFBF"/>
<path d="M179.276 144.78C179.276 144.78 160.615 139.13 156.59 142.892C154.224 145.104 155.341 147.192 156.664 148.539C157.648 149.54 159.792 149.294 161.194 149.229L175.894 147.787L179.276 144.78Z" fill="#E8BFBF"/>
<path d="M168.552 142.199C168.451 141.189 167.669 140.35 166.761 139.897C165.852 139.444 164.823 139.31 163.817 139.183C161.472 138.886 159.127 138.588 156.782 138.291C155.592 139.797 154.735 141.865 154.773 143.784C154.81 145.703 155.532 147.602 156.78 149.061C157.901 146.892 159.381 144.659 161.572 143.581C163.764 142.504 166.149 141.764 168.552 142.199Z" fill="#263238"/>
<path opacity="0.1" d="M163.74 108.117C163.719 108.075 163.719 108.054 163.74 108.047C163.888 108.005 163.867 108.033 163.74 108.117Z" fill="white"/>
<path d="M210.1 77.905L215.299 87.5448L236.512 69.5315C236.698 69.3729 236.482 69.0857 236.278 69.2205L216.392 82.3465L213.326 76.3676L210.1 77.905Z" fill="#CC0000"/>
<path d="M243.569 77.95C243.569 86.5411 234.55 93.5028 223.427 93.5028C219.156 93.5028 215.202 92.4814 211.945 90.7222L200.119 95.8629L207.584 87.5477C204.893 84.9117 203.285 81.5793 203.285 77.9493C203.285 69.3582 212.304 62.3965 223.427 62.3965C234.55 62.3972 243.569 69.3596 243.569 77.95Z" stroke="#CC0000" stroke-width="1.3" stroke-miterlimit="10"/>
</svg>
