<svg width="20" height="21" viewBox="0 0 20 21" fill="none" xmlns="http://www.w3.org/2000/svg">
<g id="Group">
<path id="Vector" d="M5.83333 5.50033V3.00033C5.83333 2.77931 5.92113 2.56735 6.07741 2.41107C6.23369 2.25479 6.44565 2.16699 6.66667 2.16699H16.6667C16.8877 2.16699 17.0996 2.25479 17.2559 2.41107C17.4122 2.56735 17.5 2.77931 17.5 3.00033V14.667C17.5 14.888 17.4122 15.1 17.2559 15.2562C17.0996 15.4125 16.8877 15.5003 16.6667 15.5003H14.1667V18.0003C14.1667 18.4603 13.7917 18.8337 13.3275 18.8337H3.33917C3.22927 18.8343 3.12033 18.8133 3.0186 18.7717C2.91687 18.7301 2.82436 18.6688 2.74638 18.5914C2.6684 18.514 2.60649 18.4219 2.56421 18.3205C2.52193 18.219 2.50011 18.1102 2.5 18.0003L2.5025 6.33366C2.5025 5.87366 2.8775 5.50033 3.34083 5.50033H5.83333ZM4.16833 7.16699L4.16667 17.167H12.5V7.16699H4.16833ZM7.5 5.50033H14.1667V13.8337H15.8333V3.83366H7.5V5.50033ZM5.83333 9.66699H10.8333V11.3337H5.83333V9.66699ZM5.83333 13.0003H10.8333V14.667H5.83333V13.0003Z" fill="#737373"/>
</g>
</svg>
