<svg width="42" height="38" viewBox="0 0 42 38" fill="none" xmlns="http://www.w3.org/2000/svg">
<path d="M38 4.41669C35.7916 2.20253 32.8642 0.851144 29.7466 0.606623C26.6289 0.362102 23.5266 1.24057 21 3.08335C18.3493 1.11176 15.05 0.217751 11.7665 0.581347C8.48306 0.944943 5.4593 2.53914 3.30416 5.0429C1.14902 7.54667 0.0225915 10.774 0.151714 14.075C0.280837 17.3761 1.65592 20.5056 4.00004 22.8334L16.9375 35.7917C18.0209 36.8579 19.48 37.4555 21 37.4555C22.5201 37.4555 23.9792 36.8579 25.0625 35.7917L38 22.8334C40.4325 20.386 41.7978 17.0756 41.7978 13.625C41.7978 10.1744 40.4325 6.86405 38 4.41669ZM35.0625 19.9584L22.125 32.8959C21.9778 33.0445 21.8026 33.1625 21.6095 33.243C21.4164 33.3236 21.2093 33.365 21 33.365C20.7908 33.365 20.5837 33.3236 20.3906 33.243C20.1975 33.1625 20.0223 33.0445 19.875 32.8959L6.93754 19.8959C5.30371 18.2257 4.38882 15.9822 4.38882 13.6459C4.38882 11.3095 5.30371 9.06597 6.93754 7.39585C8.60245 5.75208 10.8479 4.83037 13.1875 4.83037C15.5272 4.83037 17.7726 5.75208 19.4375 7.39585C19.6312 7.59112 19.8616 7.74611 20.1155 7.85188C20.3694 7.95764 20.6417 8.0121 20.9167 8.0121C21.1917 8.0121 21.464 7.95764 21.7179 7.85188C21.9718 7.74611 22.2022 7.59112 22.3959 7.39585C24.0608 5.75208 26.3062 4.83037 28.6459 4.83037C30.9855 4.83037 33.231 5.75208 34.8959 7.39585C36.5522 9.04408 37.4971 11.2754 37.5283 13.6119C37.5594 15.9483 36.6743 18.204 35.0625 19.8959V19.9584Z" fill="#B3B3B3"/>
</svg>
