<svg width="28" height="28" viewBox="0 0 28 28" fill="none" xmlns="http://www.w3.org/2000/svg">
<g id="Group">
<path id="Vector" d="M21.4247 20.2576L14 27.6822L6.57534 20.2576C5.1069 18.7891 4.10688 16.9182 3.70175 14.8814C3.29662 12.8446 3.50456 10.7334 4.29928 8.8148C5.09401 6.89618 6.43982 5.25632 8.16653 4.10257C9.89324 2.94882 11.9233 2.33301 14 2.33301C16.0767 2.33301 18.1068 2.94882 19.8335 4.10257C21.5602 5.25632 22.906 6.89618 23.7007 8.8148C24.4955 10.7334 24.7034 12.8446 24.2983 14.8814C23.8931 16.9182 22.8931 18.7891 21.4247 20.2576ZM14 15.1662C14.6188 15.1662 15.2123 14.9204 15.6499 14.4828C16.0875 14.0452 16.3333 13.4518 16.3333 12.8329C16.3333 12.2141 16.0875 11.6206 15.6499 11.183C15.2123 10.7454 14.6188 10.4996 14 10.4996C13.3812 10.4996 12.7877 10.7454 12.3501 11.183C11.9125 11.6206 11.6667 12.2141 11.6667 12.8329C11.6667 13.4518 11.9125 14.0452 12.3501 14.4828C12.7877 14.9204 13.3812 15.1662 14 15.1662Z" fill="#CC0000"/>
</g>
</svg>
