<svg width="240" height="237" viewBox="0 0 240 237" fill="none" xmlns="http://www.w3.org/2000/svg">
<g id="Illustration" opacity="0.7">
<g id="Group">
<path id="Vector" opacity="0.3" d="M226.963 157.428C204.565 210.165 144.904 239.709 93.1655 231.739C84.7467 230.442 61.666 226.58 41.2313 208.356C1.89314 173.275 -6.51964 103.808 25.2133 54.8538C48.3093 19.2235 89.7112 -0.97412 129.051 0.0361745C137.525 0.253753 170 1.59498 198.54 25.1285C202.732 28.5852 211.978 36.7991 220.311 49.8298C239.878 80.4284 241.559 123.059 226.963 157.428Z" fill="url(#paint0_linear_456_10464)"/>
<g id="Group_2">
<path id="Vector_2" d="M13.4799 2.37977C13.0953 1.19298 14.4792 0.217763 15.4791 0.963649C25.6339 8.53705 50.6126 31.8334 50.2442 77.5494C49.782 134.907 63.9135 154.211 80.0142 165.135C80.0142 165.135 59.1953 161.504 44.1393 141.997C7.17355 94.1049 20.3165 23.481 13.4799 2.37977Z" fill="url(#paint1_linear_456_10464)"/>
<path id="Vector_3" d="M22.4712 19.2589C24.3349 25.4265 26.0761 31.6276 27.5881 37.8835C29.1326 44.1303 30.4871 50.4211 31.6434 56.7451C32.7755 63.073 33.7887 69.4211 34.5307 75.8029C35.3013 82.1811 35.7972 88.5851 36.2726 95.0166C36.7836 101.442 37.2618 107.917 38.4045 114.364C39.5389 120.798 41.4595 127.2 44.4929 133.061C45.2507 134.521 46.038 135.974 46.9031 137.365C47.7427 138.773 48.645 140.145 49.5713 141.499C51.4381 144.2 53.4872 146.781 55.7186 149.199C60.1942 154.024 65.4012 158.163 71.0018 161.53C71.5913 161.885 72.3564 161.694 72.7109 161.105C73.0589 160.526 72.8814 159.778 72.3168 159.415L72.3128 159.413C70.9738 158.555 69.6463 157.683 68.3622 156.755C67.7126 156.301 67.0845 155.82 66.4476 155.35C65.8293 154.857 65.1916 154.387 64.5891 153.876C62.1456 151.87 59.8457 149.694 57.7181 147.36C53.4445 142.717 49.8428 137.412 46.9351 131.818C45.5124 129.003 44.2996 126.089 43.3152 123.091C42.3329 120.093 41.5796 117.014 41.0014 113.89C39.844 107.639 39.3177 101.233 38.7605 94.8121C38.195 88.3904 37.5825 81.9409 36.7056 75.5269C36.2758 72.3191 35.7884 69.1193 35.244 65.9299C34.9811 64.3337 34.6872 62.7429 34.3962 61.1518C34.09 59.5635 33.775 57.9771 33.4472 56.3937C32.1241 50.0617 30.6085 43.7733 28.8963 37.5416C27.1542 31.3181 25.2477 25.1428 23.1064 19.0516C23.0451 18.8774 22.8545 18.7859 22.6804 18.8472C22.5111 18.9065 22.4202 19.089 22.4712 19.2589Z" fill="white"/>
</g>
<g id="Group_3">
<g id="Group_4">
<path id="Vector_4" d="M41.275 174.948C40.5278 177.122 37.8035 177.826 36.0765 176.309C26.5473 167.94 1.74478 141.839 3.42083 98.0869C4.83619 61.1406 2.09262 40.9723 0.212775 31.9029C-0.184767 29.9851 2.0971 28.6745 3.55582 29.9813C19.6503 44.3999 68.3472 96.1796 41.275 174.948Z" fill="url(#paint2_linear_456_10464)"/>
<path id="Vector_5" d="M38.1642 175.016C38.1172 175.049 38.0666 175.077 38.0122 175.1C37.5576 175.297 37.0291 175.089 36.8318 174.634C36.6081 174.119 14.4621 122.503 14.1094 71.0424C14.1062 70.5472 14.505 70.1426 15.0008 70.1387C15.4964 70.1355 15.9008 70.5344 15.9045 71.0301C16.2544 122.116 38.2561 173.408 38.4782 173.92C38.6521 174.32 38.5111 174.778 38.1642 175.016Z" fill="white"/>
</g>
</g>
<g id="Group_5">
<g id="Group_6">
<g id="Group_7" opacity="0.3">
<path id="Vector_6" d="M176.512 65.1984C176.738 65.4851 176.715 65.902 176.447 66.1618C175.863 66.73 175.244 67.2813 174.61 67.8003C174.301 68.0528 173.846 68.0074 173.594 67.6988C173.591 67.695 173.588 67.6913 173.585 67.6877C173.343 67.3794 173.391 66.9322 173.696 66.6828C174.298 66.1898 174.886 65.6661 175.441 65.1264C175.727 64.8485 176.184 64.855 176.462 65.1411C176.48 65.1594 176.497 65.1787 176.512 65.1984ZM171.541 69.0503C171.558 69.0724 171.575 69.096 171.59 69.1207C171.798 69.4609 171.691 69.9053 171.351 70.1133C170.652 70.5405 169.928 70.9421 169.199 71.3066C168.842 71.4851 168.411 71.3414 168.23 70.9842C168.052 70.6275 168.197 70.1939 168.553 70.0156C169.246 69.669 169.933 69.2875 170.597 68.8814C170.913 68.6884 171.318 68.7667 171.541 69.0503ZM165.845 71.7118C165.894 71.7749 165.934 71.8476 165.962 71.9281C166.088 72.306 165.885 72.7154 165.507 72.8425C164.733 73.1031 163.937 73.3331 163.142 73.5262C162.755 73.6201 162.365 73.3821 162.27 72.9952C162.176 72.6078 162.414 72.2174 162.801 72.1232C163.556 71.9398 164.311 71.7214 165.047 71.474C165.344 71.374 165.661 71.4786 165.845 71.7118ZM159.695 73.033C159.777 73.1374 159.832 73.2657 159.846 73.4076C159.885 73.8043 159.595 74.1579 159.199 74.1973C158.385 74.2778 157.558 74.3243 156.74 74.3352C156.342 74.3402 156.015 74.0215 156.009 73.623C156.004 73.2244 156.323 72.897 156.721 72.8915C157.497 72.8811 158.283 72.8371 159.056 72.7603C159.311 72.7352 159.548 72.8457 159.695 73.033ZM153.406 72.9498C153.521 73.0962 153.58 73.2867 153.555 73.486C153.505 73.8817 153.144 74.1621 152.749 74.1123C151.939 74.0106 151.123 73.8729 150.322 73.7026C149.932 73.62 149.683 73.2367 149.766 72.8465C149.849 72.4566 150.232 72.2076 150.622 72.2904C151.383 72.4524 152.159 72.5832 152.928 72.6798C153.125 72.7046 153.293 72.8058 153.406 72.9498ZM147.292 71.4774C147.441 71.667 147.492 71.9269 147.404 72.1704C147.268 72.5452 146.854 72.7387 146.479 72.603C145.711 72.3244 144.945 72.0094 144.203 71.6665C143.841 71.4991 143.683 71.0702 143.851 70.7082C144.018 70.3464 144.447 70.1886 144.809 70.3558C145.514 70.6815 146.241 70.9809 146.971 71.2456C147.103 71.2933 147.211 71.3752 147.292 71.4774ZM129.585 51.7495C129.647 51.8281 129.693 51.9206 129.718 52.024C129.903 52.7773 130.122 53.5328 130.372 54.2692C130.499 54.6468 130.297 55.0566 129.919 55.1843C129.542 55.3123 129.132 55.1096 129.004 54.732C128.742 53.9564 128.51 53.1607 128.316 52.3674C128.221 51.9801 128.458 51.5893 128.845 51.4946C129.129 51.4249 129.415 51.5339 129.585 51.7495ZM141.66 68.6885C141.845 68.9239 141.871 69.26 141.699 69.5258C141.483 69.8611 141.037 69.9577 140.701 69.7419C140.014 69.2995 139.338 68.8218 138.692 68.322C138.377 68.0768 138.318 67.6249 138.562 67.3092C138.806 66.9939 139.259 66.9358 139.575 67.1797C140.189 67.6544 140.831 68.108 141.483 68.5281C141.552 68.5729 141.612 68.6272 141.66 68.6885ZM131.759 57.6503C131.789 57.6878 131.815 57.7286 131.837 57.7728C132.186 58.4662 132.569 59.1537 132.976 59.8163C133.185 60.1562 133.078 60.6007 132.739 60.8094C132.399 61.0178 131.953 60.913 131.746 60.5719C131.318 59.8746 130.914 59.1512 130.547 58.4217C130.368 58.0655 130.512 57.6313 130.868 57.4524C131.18 57.2955 131.551 57.3862 131.759 57.6503ZM136.792 64.7115C137.017 64.9978 136.995 65.4139 136.728 65.6739C136.443 65.9523 135.986 65.9465 135.707 65.6613C135.137 65.0768 134.585 64.4599 134.066 63.8275C134.062 63.8237 134.059 63.8195 134.056 63.8156C133.814 63.5077 133.861 63.0614 134.165 62.8116C134.474 62.5585 134.928 62.6031 135.181 62.9114C135.675 63.512 136.199 64.0979 136.741 64.6531C136.759 64.6719 136.776 64.6914 136.792 64.7115Z" fill="url(#paint3_linear_456_10464)"/>
<path id="Vector_7" d="M128.83 46.7371C128.918 46.8488 128.974 46.9876 128.983 47.1403C129.005 47.5119 129.035 47.8892 129.072 48.2618C129.111 48.6585 128.822 49.0124 128.425 49.0518C128.029 49.0917 127.674 48.8022 127.635 48.4052C127.596 48.0132 127.564 47.6165 127.541 47.2254C127.518 46.8275 127.822 46.4856 128.219 46.4622C128.465 46.4478 128.689 46.5576 128.83 46.7371Z" fill="url(#paint4_linear_456_10464)"/>
</g>
<g id="Group_8" opacity="0.3">
<path id="Vector_8" d="M136.216 25.9998C136.431 26.2737 136.422 26.6709 136.178 26.9352C135.926 27.2086 135.675 27.492 135.433 27.7773C135.175 28.0813 134.719 28.1183 134.415 27.8604C134.11 27.6011 134.074 27.1465 134.332 26.8427C134.587 26.5424 134.852 26.2438 135.117 25.9559C135.388 25.6629 135.845 25.6447 136.138 25.915C136.166 25.9415 136.192 25.9699 136.216 25.9998Z" fill="url(#paint5_linear_456_10464)"/>
<path id="Vector_9" d="M178.973 27.6463C179.178 27.9073 179.38 28.1729 179.578 28.4429C179.814 28.7644 179.744 29.2162 179.423 29.4521C179.101 29.6879 178.647 29.6179 178.413 29.2971C177.956 28.6742 177.475 28.0711 176.977 27.4983C176.716 27.1967 176.747 26.7415 177.048 26.4799C177.349 26.2181 177.805 26.25 178.067 26.551C178.375 26.9052 178.68 27.2739 178.973 27.6463ZM181.617 31.6629C181.642 31.6946 181.665 31.7289 181.684 31.7657C182.069 32.4735 182.427 33.2056 182.75 33.9414C182.91 34.3064 182.744 34.7323 182.379 34.8924C182.014 35.0525 181.587 34.8864 181.428 34.5212C181.121 33.8223 180.781 33.127 180.416 32.4542C180.225 32.1039 180.355 31.6657 180.706 31.4756C181.019 31.3051 181.403 31.3914 181.617 31.6629ZM175.381 23.8637C175.592 24.1312 175.589 24.5187 175.357 24.7843C175.095 25.0846 174.639 25.1152 174.338 24.8529C173.764 24.351 173.161 23.867 172.544 23.4142C172.223 23.1777 172.153 22.7263 172.389 22.4051C172.626 22.0837 173.077 22.0145 173.399 22.2505C174.048 22.7274 174.684 23.2372 175.289 23.7656C175.323 23.796 175.354 23.8289 175.381 23.8637ZM183.953 37.3955C184.01 37.4675 184.053 37.5516 184.08 37.6452C184.299 38.4195 184.487 39.2125 184.64 40.0021C184.716 40.3935 184.461 40.7721 184.069 40.8479C183.677 40.9238 183.299 40.6683 183.223 40.2765C183.078 39.5268 182.899 38.7737 182.691 38.0384C182.582 37.6548 182.805 37.2558 183.189 37.1472C183.478 37.0651 183.777 37.1724 183.953 37.3955ZM170.302 20.3348C170.474 20.5543 170.511 20.864 170.369 21.1253C170.18 21.4759 169.741 21.6062 169.391 21.4164C168.72 21.0533 168.025 20.714 167.324 20.4075C166.959 20.2478 166.792 19.8223 166.952 19.4568C167.111 19.0916 167.537 18.925 167.902 19.0847C168.64 19.4072 169.372 19.7645 170.078 20.1468C170.168 20.1951 170.243 20.2598 170.302 20.3348ZM164.571 18.0061C164.709 18.1815 164.764 18.4182 164.698 18.6494C164.59 19.033 164.191 19.256 163.807 19.1474C163.071 18.9392 162.318 18.7595 161.569 18.6133C161.177 18.5376 160.922 18.1586 160.998 17.7668C161.075 17.3754 161.454 17.1201 161.845 17.1962C162.634 17.35 163.426 17.539 164.2 17.7583C164.353 17.8014 164.48 17.8903 164.571 18.0061ZM158.468 16.9821C158.573 17.1155 158.632 17.2861 158.621 17.469C158.599 17.867 158.258 18.1715 157.86 18.149C157.096 18.1058 156.322 18.0942 155.559 18.1149C155.16 18.1258 154.829 17.8119 154.818 17.4128C154.807 17.0143 155.121 16.6825 155.52 16.6716C156.323 16.65 157.138 16.6619 157.941 16.7074C158.157 16.7197 158.345 16.8249 158.468 16.9821ZM152.288 17.3133C152.361 17.4058 152.412 17.5172 152.433 17.6415C152.498 18.0348 152.232 18.4063 151.838 18.4714C151.084 18.5962 150.326 18.7547 149.586 18.9425C149.2 19.0405 148.807 18.8064 148.709 18.4206C148.61 18.034 148.844 17.6412 149.231 17.5432C150.01 17.3453 150.808 17.1784 151.602 17.047C151.872 17.0025 152.131 17.1131 152.288 17.3133ZM146.329 18.9939C146.37 19.0459 146.404 19.1044 146.43 19.1688C146.581 19.538 146.403 19.9593 146.034 20.1092C145.327 20.3967 144.623 20.718 143.942 21.0648C143.586 21.2456 143.151 21.1028 142.971 20.7486C142.79 20.3933 142.932 19.9586 143.287 19.7778C144.005 19.4128 144.746 19.0744 145.49 18.772C145.795 18.648 146.135 18.7475 146.329 18.9939ZM140.889 21.9405C140.898 21.9521 140.907 21.9642 140.915 21.9765C141.142 22.3042 141.06 22.754 140.733 22.9809C140.27 23.3012 139.812 23.6397 139.37 23.987C139.211 24.1127 139.053 24.2402 138.896 24.3686C138.588 24.6218 138.133 24.5776 137.88 24.2696C137.618 23.9628 137.671 23.5068 137.979 23.2536C138.143 23.1183 138.309 22.9847 138.478 22.8523C138.942 22.487 139.424 22.1309 139.911 21.794C140.226 21.5755 140.655 21.6429 140.889 21.9405Z" fill="url(#paint6_linear_456_10464)"/>
<path id="Vector_10" d="M184.968 43.5192C185.057 43.632 185.113 43.7721 185.121 43.926C185.143 44.3163 185.156 44.7144 185.161 45.1093C185.166 45.508 184.847 45.8353 184.448 45.8403C184.049 45.8452 183.722 45.5267 183.717 45.1277C183.712 44.7526 183.7 44.3745 183.68 44.004C183.658 43.6061 183.963 43.2658 184.362 43.2442C184.606 43.2311 184.828 43.3408 184.968 43.5192Z" fill="url(#paint7_linear_456_10464)"/>
</g>
<g id="Group_9">
<path id="Vector_11" d="M177.787 47.9295C177.818 47.7891 177.757 47.644 177.634 47.5686L174.137 45.4158C174.117 43.4982 173.792 41.5698 173.142 39.7063L175.7 36.4975C175.79 36.3849 175.798 36.2278 175.721 36.1063L173.081 31.9477C173.004 31.8261 172.858 31.767 172.718 31.8003L168.726 32.7501C167.316 31.3691 165.71 30.2538 163.983 29.42L163.523 25.3393C163.506 25.1962 163.401 25.0792 163.261 25.0478L158.454 23.9739C158.313 23.9426 158.168 24.0038 158.093 24.1264L155.94 27.6233C154.022 27.6431 152.094 27.9688 150.23 28.6187L147.022 26.0602C146.909 25.9704 146.752 25.962 146.63 26.0392L142.472 28.6792C142.35 28.7563 142.291 28.9021 142.325 29.0422L143.274 33.0346C141.893 34.4445 140.778 36.0509 139.944 37.7779L135.864 38.2381C135.721 38.2542 135.604 38.3593 135.572 38.4998L134.498 43.3071C134.467 43.4476 134.528 43.5925 134.651 43.6679L138.148 45.8207C138.167 47.7384 138.493 49.6667 139.143 51.5303L136.585 54.7391C136.495 54.8516 136.486 55.0086 136.564 55.1302L139.204 59.2888C139.281 59.4103 139.426 59.4695 139.566 59.4362L143.559 58.4863C144.969 59.8675 146.575 60.9827 148.302 61.8165L148.762 65.8972C148.779 66.0403 148.884 66.1574 149.024 66.1887L153.831 67.2625C153.972 67.2939 154.117 67.2327 154.192 67.1101L156.345 63.6131C158.263 63.5934 160.191 63.2677 162.055 62.6178L165.264 65.1762C165.376 65.2659 165.533 65.2745 165.655 65.1972L169.813 62.5573C169.935 62.4801 169.994 62.3344 169.961 62.1943L169.011 58.2018C170.392 56.7919 171.507 55.1856 172.341 53.4585L176.422 52.9984C176.565 52.9822 176.682 52.8771 176.713 52.7367L177.787 47.9295Z" fill="url(#paint8_linear_456_10464)"/>
<path id="Vector_12" opacity="0.56" d="M160.036 42.5617C161.529 44.4587 161.446 47.2202 159.739 49.0242C157.862 51.0072 154.722 51.0934 152.739 49.2168C151.778 48.3078 151.23 47.0789 151.193 45.7571C151.157 44.4352 151.637 43.178 152.547 42.2175C154.424 40.2345 157.563 40.1482 159.546 42.0247C159.725 42.194 159.889 42.3737 160.036 42.5617ZM153.154 47.9621C153.269 48.1086 153.395 48.2475 153.533 48.378C155.053 49.8169 157.461 49.7505 158.9 48.2304C160.339 46.71 160.273 44.3024 158.752 42.8636C157.232 41.4247 154.824 41.4912 153.386 43.0113C152.688 43.7479 152.32 44.7116 152.348 45.7252C152.371 46.5491 152.653 47.326 153.154 47.9621Z" fill="white"/>
<path id="Vector_13" opacity="0.56" d="M165.594 38.0585C165.851 38.3843 166.092 38.7249 166.317 39.0795C166.388 39.1911 166.457 39.304 166.524 39.4179C166.856 39.9795 167.143 40.5667 167.379 41.1701C167.383 41.1783 167.386 41.1866 167.389 41.1948C167.398 41.2182 167.407 41.2415 167.416 41.2651C167.434 41.3107 167.451 41.3565 167.468 41.4022C167.512 41.5226 167.471 41.6535 167.376 41.729C167.352 41.7473 167.326 41.7623 167.297 41.7731C167.147 41.8283 166.981 41.7513 166.926 41.602C166.642 40.832 166.273 40.0876 165.83 39.3893C163.628 35.9195 159.875 34.0178 156.042 34.0107C153.91 34.0065 151.753 34.5888 149.823 35.8139C149.485 36.0286 149.16 36.259 148.849 36.5035C146.758 38.149 145.309 40.4444 144.721 43.0763C144.046 46.0994 144.588 49.2048 146.248 51.8198C149.677 57.2204 156.856 58.8222 162.254 55.3952C162.587 55.1839 162.908 54.9565 163.216 54.7143C164.55 53.6646 165.639 52.3347 166.401 50.8163C166.421 50.777 166.448 50.7443 166.48 50.7189C166.565 50.6519 166.685 50.6358 166.788 50.6877C166.931 50.7597 166.989 50.9325 166.917 51.0754C166.117 52.6696 164.973 54.066 163.573 55.168C163.25 55.4224 162.913 55.6609 162.564 55.8828C156.896 59.4809 149.358 57.7952 145.761 52.1295C144.018 49.3841 143.449 46.1243 144.158 42.9506C144.775 40.1875 146.296 37.7778 148.491 36.0503C148.818 35.7936 149.159 35.5519 149.514 35.3264C152.26 33.5834 155.519 33.014 158.693 33.7229C161.457 34.3401 163.867 35.8626 165.594 38.0585Z" fill="white"/>
</g>
</g>
<g id="Group_10">
<g id="Group_11" opacity="0.3">
<path id="Vector_14" d="M206.695 72.7924C206.815 72.944 206.826 73.1615 206.708 73.3267C206.489 73.635 206.257 73.941 206.019 74.2359C205.864 74.4275 205.584 74.4576 205.392 74.3031C205.199 74.1491 205.17 73.8677 205.325 73.6761C205.551 73.3951 205.772 73.1035 205.982 72.8093C206.124 72.6088 206.403 72.562 206.604 72.7046C206.639 72.7301 206.67 72.7597 206.695 72.7924Z" fill="url(#paint9_linear_456_10464)"/>
<path id="Vector_15" d="M204.458 75.3907C204.598 75.5683 204.583 75.8264 204.417 75.9866C203.949 76.4395 203.451 76.8734 202.939 77.2762C202.832 77.361 202.722 77.4449 202.612 77.528C202.415 77.6761 202.135 77.6207 201.987 77.4403C201.839 77.2436 201.879 76.9641 202.075 76.8159C202.181 76.7365 202.285 76.6564 202.388 76.5754C202.876 76.1912 203.351 75.7773 203.798 75.3456C203.975 75.1743 204.257 75.1793 204.428 75.3561C204.439 75.3675 204.449 75.3789 204.458 75.3907ZM200.76 78.1756C200.773 78.1922 200.785 78.2099 200.796 78.2285C200.919 78.442 200.846 78.7147 200.633 78.8379C199.949 79.2332 199.234 79.5894 198.509 79.8965C198.282 79.9927 198.02 79.8852 197.924 79.6599C197.828 79.4329 197.934 79.1716 198.161 79.0754C198.853 78.7824 199.535 78.4425 200.187 78.0656C200.381 77.9535 200.625 78.0041 200.76 78.1756ZM196.497 79.9804C196.532 80.0249 196.559 80.0768 196.575 80.1344C196.642 80.3713 196.505 80.6178 196.268 80.685C195.509 80.8998 194.728 81.0698 193.947 81.1893C193.703 81.2268 193.476 81.0601 193.439 80.816C193.401 80.5727 193.569 80.3451 193.812 80.3078C194.557 80.1938 195.301 80.032 196.025 79.8268C196.204 79.7763 196.388 79.8427 196.497 79.9804ZM191.92 80.682C191.977 80.7546 192.012 80.8454 192.015 80.9445C192.022 81.1906 191.828 81.3962 191.582 81.4031C190.792 81.4255 189.994 81.3991 189.209 81.3243C188.964 81.3008 188.785 81.0827 188.808 80.8381C188.831 80.593 189.049 80.4133 189.294 80.4365C190.042 80.5079 190.804 80.5331 191.557 80.5118C191.704 80.5074 191.836 80.5747 191.92 80.682ZM187.311 80.2446C187.391 80.3458 187.426 80.4809 187.396 80.6167C187.343 80.8571 187.105 81.0088 186.865 80.9559C186.094 80.7854 185.326 80.566 184.583 80.3034C184.351 80.2217 184.229 79.9667 184.311 79.7345C184.394 79.5023 184.648 79.3805 184.88 79.4626C185.589 79.7131 186.321 79.9225 187.057 80.0849C187.162 80.1081 187.25 80.1664 187.311 80.2446ZM182.948 78.7019C183.052 78.8332 183.077 79.0175 182.997 79.177C182.887 79.3972 182.619 79.4865 182.399 79.3768C181.693 79.0243 181.002 78.6243 180.346 78.1879C180.141 78.0503 180.086 77.7744 180.222 77.5695C180.358 77.3645 180.635 77.3089 180.84 77.4453C181.466 77.8615 182.124 78.2427 182.797 78.5787C182.858 78.6091 182.909 78.6517 182.948 78.7019ZM179.096 76.1401C179.226 76.3043 179.225 76.5423 179.084 76.7062C178.923 76.8928 178.641 76.9138 178.455 76.7532C177.859 76.2398 177.287 75.6823 176.755 75.096C176.593 74.9104 176.604 74.6311 176.787 74.4661C176.969 74.3007 177.251 74.3146 177.416 74.4969C177.923 75.0565 178.468 75.5882 179.037 76.0776C179.059 76.0968 179.079 76.1178 179.096 76.1401ZM174.772 70.7343C174.788 70.7545 174.802 70.7766 174.815 70.8003C175.121 71.3735 175.464 71.9401 175.835 72.4843C175.891 72.5671 175.946 72.6476 176.003 72.7274C176.145 72.9288 176.097 73.2068 175.896 73.3488C175.694 73.4914 175.409 73.4463 175.274 73.2419C175.214 73.1566 175.155 73.0712 175.096 72.9844C174.709 72.4157 174.35 71.8218 174.028 71.2205C173.912 71.0031 173.994 70.7332 174.211 70.6172C174.405 70.5138 174.64 70.5675 174.772 70.7343Z" fill="url(#paint10_linear_456_10464)"/>
</g>
<g id="Group_12" opacity="0.3">
<path id="Vector_16" d="M205.991 50.0412C206.141 50.2325 206.11 50.51 205.92 50.6636C205.729 50.8183 205.448 50.7887 205.293 50.597C204.827 50.0203 204.322 49.4672 203.792 48.953C203.618 48.7811 203.611 48.4993 203.782 48.3224C203.954 48.1455 204.236 48.1415 204.413 48.3127C204.969 48.8523 205.499 49.4319 205.987 50.0363C205.988 50.0379 205.99 50.0396 205.991 50.0412ZM207.315 51.8984C207.325 51.9111 207.334 51.9241 207.343 51.9381C207.755 52.5958 208.131 53.2854 208.461 53.9874C208.566 54.2104 208.471 54.4757 208.248 54.5805C208.025 54.6856 207.759 54.5882 207.654 54.367C207.339 53.6971 206.98 53.0392 206.587 52.4113C206.456 52.2027 206.52 51.9275 206.728 51.7969C206.924 51.6746 207.176 51.7219 207.315 51.8984ZM202.722 46.8722C202.844 47.0275 202.852 47.2514 202.727 47.4166C202.579 47.6127 202.299 47.6518 202.103 47.5033C201.511 47.0563 200.887 46.6416 200.248 46.2707C200.035 46.146 199.962 45.8742 200.086 45.6612C200.21 45.4483 200.483 45.3758 200.696 45.4994C201.366 45.8882 202.02 46.3232 202.64 46.7919C202.672 46.8158 202.699 46.8427 202.722 46.8722ZM209.251 56.022C209.282 56.0618 209.307 56.1078 209.324 56.1588C209.566 56.8968 209.765 57.6573 209.915 58.4189C209.962 58.6606 209.805 58.895 209.563 58.9427C209.322 58.9899 209.088 58.8325 209.04 58.5914C208.897 57.8652 208.707 57.1404 208.476 56.4366C208.4 56.2026 208.527 55.9506 208.761 55.874C208.944 55.8142 209.138 55.879 209.251 56.022ZM198.785 44.5876C198.882 44.7117 198.911 44.8839 198.844 45.0389C198.747 45.2656 198.485 45.3704 198.259 45.2736C197.579 44.9823 196.874 44.7298 196.163 44.5233C195.926 44.4545 195.79 44.2069 195.859 43.9704C195.928 43.734 196.176 43.598 196.412 43.6668C197.157 43.8838 197.897 44.1484 198.61 44.4535C198.681 44.484 198.74 44.531 198.785 44.5876ZM194.414 43.3142C194.489 43.4091 194.525 43.5338 194.504 43.6621C194.464 43.9051 194.234 44.0699 193.992 44.03C193.26 43.9102 192.514 43.8335 191.776 43.8023C191.529 43.792 191.338 43.5837 191.349 43.338C191.359 43.0919 191.567 42.9011 191.813 42.9115C192.587 42.9441 193.369 43.0242 194.136 43.1499C194.25 43.1688 194.347 43.2296 194.414 43.3142ZM189.863 43.1245C189.916 43.1912 189.95 43.2734 189.957 43.3646C189.977 43.6101 189.793 43.825 189.548 43.8445C188.809 43.9027 188.067 44.0074 187.342 44.1551C187.102 44.2039 186.866 44.0485 186.817 43.8072C186.768 43.5659 186.923 43.3305 187.165 43.2812C187.924 43.1266 188.702 43.0167 189.478 42.9552C189.632 42.9431 189.774 43.0112 189.863 43.1245Z" fill="url(#paint11_linear_456_10464)"/>
<path id="Vector_17" d="M210.135 60.5133C210.189 60.5809 210.223 60.6645 210.229 60.7567C210.257 61.1374 210.273 61.5206 210.278 61.8957C210.281 62.1418 210.084 62.3442 209.838 62.3473C209.592 62.3498 209.39 62.1532 209.386 61.907C209.382 61.5493 209.366 61.1837 209.34 60.8205C209.322 60.5748 209.507 60.3614 209.753 60.3439C209.906 60.3331 210.047 60.4009 210.135 60.5133Z" fill="url(#paint12_linear_456_10464)"/>
</g>
<g id="Group_13">
<path id="Vector_18" d="M205.376 63.7852C205.397 63.6912 205.356 63.5943 205.274 63.5438L202.934 62.1033C202.921 60.8201 202.703 59.5297 202.268 58.2827L203.98 56.1355C204.04 56.0602 204.046 55.9551 203.994 55.8738L202.228 53.0911C202.176 53.0098 202.079 52.9702 201.985 52.9924L199.313 53.6281C198.37 52.7039 197.295 51.9576 196.139 51.3997L195.832 48.669C195.821 48.5733 195.75 48.495 195.656 48.474L192.44 47.7554C192.346 47.7345 192.249 47.7754 192.198 47.8575L190.758 50.1975C189.474 50.2107 188.184 50.4287 186.937 50.8635L184.79 49.1515C184.715 49.0915 184.61 49.0858 184.528 49.1374L181.745 50.904C181.664 50.9556 181.624 51.0532 181.647 51.1468L182.282 53.8184C181.358 54.7618 180.612 55.8368 180.054 56.9924L177.323 57.3003C177.228 57.3111 177.149 57.3815 177.128 57.4754L176.41 60.6922C176.389 60.7862 176.43 60.8832 176.512 60.9337L178.852 62.3743C178.865 63.6574 179.083 64.9479 179.518 66.1948L177.806 68.342C177.746 68.4174 177.74 68.5224 177.792 68.6037L179.558 71.3865C179.61 71.4678 179.707 71.5074 179.801 71.4852L182.473 70.8495C183.416 71.7737 184.491 72.52 185.647 73.078L185.955 75.8085C185.965 75.9043 186.036 75.9826 186.13 76.0036L189.347 76.7222C189.441 76.7431 189.537 76.7022 189.588 76.6202L191.029 74.2802C192.312 74.267 193.602 74.049 194.849 73.6141L196.996 75.3262C197.072 75.3862 197.177 75.3919 197.258 75.3402L200.041 73.5737C200.122 73.5221 200.162 73.4245 200.139 73.3309L199.504 70.6593C200.428 69.7159 201.174 68.641 201.732 67.4853L204.463 67.1774C204.559 67.1666 204.637 67.0962 204.658 67.0023L205.376 63.7852Z" fill="url(#paint13_linear_456_10464)"/>
<path id="Vector_19" opacity="0.56" d="M193.549 60.1588C193.994 60.7241 194.244 61.4142 194.265 62.1463C194.289 63.0467 193.962 63.903 193.343 64.5573C192.065 65.9077 189.926 65.9666 188.575 64.6886C187.225 63.4063 187.166 61.271 188.444 59.9206C189.063 59.2661 189.9 58.8921 190.8 58.8675C191.701 58.8426 192.557 59.17 193.212 59.7897C193.334 59.9054 193.447 60.0289 193.549 60.1588ZM188.942 63.7718C189.017 63.8662 189.098 63.956 189.188 64.041C190.182 64.981 191.755 64.9377 192.695 63.9441C193.151 63.463 193.392 62.833 193.373 62.1708C193.355 61.5081 193.079 60.893 192.599 60.4369C192.117 59.9815 191.487 59.7406 190.825 59.7587C190.163 59.777 189.547 60.0521 189.091 60.5336C188.236 61.4373 188.195 62.8213 188.942 63.7718Z" fill="white"/>
<path id="Vector_20" opacity="0.56" d="M197.422 57.0323C197.596 57.2541 197.761 57.4864 197.915 57.7294C198.222 58.212 198.48 58.7263 198.682 59.2594C198.691 59.2834 198.7 59.3074 198.709 59.3315C198.777 59.5174 198.714 59.7196 198.566 59.8361C198.531 59.8643 198.49 59.8875 198.444 59.9041C198.213 59.9894 197.958 59.8702 197.872 59.64C197.688 59.1405 197.449 58.6587 197.162 58.2076L197.162 58.2075C197.147 58.1827 197.131 58.158 197.115 58.1336C196.427 57.0724 195.5 56.2229 194.417 55.6352C193.83 55.3161 193.195 55.0746 192.527 54.9189C192.522 54.9177 192.516 54.9164 192.511 54.9151C192.494 54.9114 192.478 54.9074 192.461 54.9039C190.504 54.4669 188.493 54.8178 186.801 55.8927C186.581 56.0317 186.371 56.1807 186.17 56.3389C184.816 57.4042 183.878 58.8903 183.497 60.5942C183.06 62.5513 183.411 64.5614 184.486 66.2541C185.561 67.9456 187.231 69.1202 189.187 69.5577C191.145 69.9947 193.155 69.6438 194.848 68.5689C195.063 68.4323 195.271 68.285 195.47 68.1283C196.334 67.4486 197.039 66.5879 197.532 65.6049C197.563 65.5443 197.605 65.4936 197.655 65.4545C197.786 65.3511 197.971 65.3262 198.13 65.4063C198.35 65.5174 198.44 65.7845 198.329 66.005C197.777 67.1049 196.988 68.0682 196.022 68.8286C195.799 69.0041 195.567 69.1688 195.326 69.3217C193.432 70.5242 191.183 70.917 188.993 70.4279C186.804 69.9386 184.935 68.6282 183.733 66.7322C182.531 64.8382 182.138 62.5894 182.627 60.3996C183.053 58.4934 184.103 56.8308 185.617 55.639C185.842 55.4621 186.077 55.2952 186.322 55.1396C189.99 52.8121 194.792 53.6892 197.422 57.0323Z" fill="white"/>
</g>
</g>
</g>
<g id="Group_14">
<g id="Group_15">
<path id="Vector_21" d="M16.514 185.868C16.514 187.936 18.2081 189.629 20.2785 189.629H223.848C225.918 189.629 227.612 187.936 227.612 185.868L229.306 68.882C229.306 66.8136 226.869 62.7754 222.403 63.0788L23.4526 57.9309C20.8548 57.8637 18.343 58.8636 16.5033 60.6972C14.6637 62.5309 13.657 65.0379 13.7185 67.6334L16.514 185.868Z" fill="url(#paint14_linear_456_10464)"/>
<path id="Vector_22" d="M20.2322 182.258C20.2322 184.217 21.8349 185.82 23.7937 185.82H218.94C220.899 185.82 222.502 184.217 222.502 182.258L224.1 76.0579C223.912 69.667 218.309 67.3701 214.912 67.5056L24.2367 62.3901C22.4117 62.3411 20.647 63.0443 19.3544 64.3337C18.0618 65.623 17.3508 67.3875 17.3966 69.2127L20.2322 182.258Z" fill="url(#paint15_linear_456_10464)"/>
<g id="Group_16">
<path id="Vector_23" d="M220.39 131.802C220.388 131.802 220.385 131.802 220.382 131.802C220.094 131.798 219.864 131.561 219.868 131.272L219.995 122.66C219.999 122.374 220.232 122.146 220.516 122.146C220.519 122.146 220.521 122.146 220.524 122.146C220.812 122.15 221.042 122.387 221.038 122.675L220.912 131.288C220.908 131.573 220.675 131.802 220.39 131.802Z" fill="white"/>
<path id="Vector_24" d="M220.701 110.698C220.698 110.698 220.695 110.698 220.693 110.698C220.405 110.694 220.174 110.457 220.179 110.169L220.663 77.1817C220.654 75.2223 220.059 73.6579 218.895 72.5425C216.722 70.4607 213.272 70.567 213.127 70.5737L152.183 68.9394C151.895 68.9322 151.667 68.692 151.675 68.4039C151.683 68.1158 151.904 67.8704 152.211 67.8964L213.119 69.5307C213.498 69.5083 217.171 69.4447 219.617 71.7886C220.993 73.1071 221.696 74.9238 221.707 77.1869L221.222 110.184C221.218 110.47 220.985 110.698 220.701 110.698Z" fill="white"/>
</g>
<path id="Vector_25" d="M0.477931 199.339H239.522C239.785 199.339 240 199.124 240 198.861V189.538C240 189.276 239.785 189.061 239.522 189.061H0.477931C0.215044 189.061 0 189.276 0 189.538V198.861C0 199.124 0.215044 199.339 0.477931 199.339Z" fill="url(#paint16_linear_456_10464)"/>
</g>
</g>
<g id="Group_17">
<g id="Group_18" opacity="0.6">
<g id="Group_19" opacity="0.8">
<path id="Vector_26" d="M158.515 105.327C158.082 104.794 157.402 104.573 156.681 104.588L91.0379 105.965L89.3797 100.698C89.1492 99.9638 88.4592 99.4939 87.6788 99.5143L78.6661 99.7512C77.6997 99.7765 76.917 100.449 76.917 101.413C76.917 102.378 77.6997 103.011 78.6661 102.988L86.368 102.806L100.304 147.339C100.539 148.088 101.243 148.604 102.04 148.614L148.115 149.233C149.196 149.248 150.074 148.569 150.074 147.547C150.074 146.524 149.196 145.824 148.115 145.813L103.385 145.33L99.7947 133.768L148.949 133.843C149.956 133.844 150.843 133.185 151.125 132.272L158.883 107.188C159.085 106.533 158.949 105.86 158.515 105.327Z" fill="white"/>
<path id="Vector_27" d="M108.782 151.36C104.991 151.301 101.924 154.252 101.924 157.937C101.924 161.623 104.991 164.701 108.782 164.801C112.596 164.901 115.716 161.952 115.716 158.226C115.716 154.499 112.596 151.419 108.782 151.36ZM108.782 161.217C107.01 161.175 105.572 159.738 105.572 158.014C105.572 156.289 107.01 154.912 108.782 154.944C110.559 154.977 112.008 156.414 112.008 158.148C112.008 159.882 110.559 161.258 108.782 161.217Z" fill="white"/>
<path id="Vector_28" d="M139.493 151.836C135.515 151.774 132.296 154.795 132.296 158.571C132.296 162.346 135.515 165.502 139.493 165.606C143.497 165.711 146.772 162.691 146.772 158.873C146.772 155.055 143.497 151.898 139.493 151.836ZM139.493 161.934C137.634 161.89 136.124 160.417 136.124 158.651C136.124 156.883 137.634 155.474 139.493 155.508C141.358 155.542 142.88 157.015 142.88 158.792C142.88 160.568 141.358 161.978 139.493 161.934Z" fill="white"/>
</g>
</g>
<path id="Vector_29" d="M120.923 182.193C89.3472 182.193 63.6582 156.504 63.6582 124.928C63.6582 93.352 89.3472 67.6631 120.923 67.6631C152.499 67.6631 178.188 93.352 178.188 124.928C178.188 156.504 152.499 182.193 120.923 182.193ZM120.923 72.2661C91.8852 72.2661 68.2612 95.8901 68.2612 124.928C68.2612 153.966 91.8852 177.59 120.923 177.59C149.961 177.59 173.585 153.966 173.585 124.928C173.585 95.8901 149.961 72.2661 120.923 72.2661Z" fill="white"/>
<path id="Vector_30" d="M158.258 85.3902L79.5537 160.271L82.7265 163.605L161.431 88.725L158.258 85.3902Z" fill="white"/>
</g>
<g id="Group_20">
<path id="Vector_31" d="M190.056 230.719C192.541 230.934 196.854 231.282 200.254 231.432C202.298 231.522 203.475 231.322 204.153 231.051C204.152 231.127 204.149 231.199 204.146 231.266C204.13 231.624 203.84 231.91 203.478 231.93C197.053 232.289 191.944 232.055 190.125 231.944C189.749 231.921 189.524 231.512 189.717 231.192C189.813 231.031 189.93 230.874 190.056 230.719Z" fill="url(#paint17_linear_456_10464)"/>
<path id="Vector_32" d="M200.255 231.431C196.855 231.281 192.542 230.932 190.057 230.717C192.5 227.72 200.255 225.699 200.255 225.699H202.445C203.951 227.871 204.17 229.938 204.153 231.049C203.476 231.32 202.299 231.52 200.255 231.431Z" fill="url(#paint18_linear_456_10464)"/>
<path id="Vector_33" d="M202.813 222.122L202.608 226.178C202.586 226.617 202.257 226.986 201.817 227.049C201.379 227.112 200.793 227.12 200.172 226.913C199.789 226.786 199.505 226.463 199.435 226.07L198.727 222.122H202.813Z" fill="url(#paint19_linear_456_10464)"/>
<g id="Group_21">
<path id="Vector_34" d="M228.234 235.394C229.312 235.2 229.799 234.477 230.004 233.703C230.005 233.71 230.007 233.717 230.008 233.724C230.166 234.54 229.799 235.386 229.064 235.788C228.176 236.274 227.205 236.357 226.451 236.317C225.642 236.273 224.899 235.841 224.491 235.148L224.485 235.138C225.297 235.657 226.437 235.718 228.234 235.394Z" fill="url(#paint20_linear_456_10464)"/>
<path id="Vector_35" d="M223.153 223.372H224.959C227.71 223.299 229.438 230.799 230.003 233.703C229.799 234.477 229.311 235.2 228.234 235.395C226.436 235.718 225.297 235.657 224.485 235.138C222.998 232.61 222.261 228.908 221.907 226.747C221.504 224.29 223.153 223.372 223.153 223.372Z" fill="url(#paint21_linear_456_10464)"/>
</g>
<path id="Vector_36" d="M224.728 219.608L225.731 223.598C225.854 224.087 225.619 224.593 225.167 224.825C224.606 225.113 223.816 225.415 223.09 225.328C222.749 225.286 222.465 225.046 222.352 224.724L220.88 220.527L224.728 219.608Z" fill="url(#paint22_linear_456_10464)"/>
<path id="Vector_37" d="M189.442 167.068C189.442 167.068 198.406 223.096 198.258 223.404C198.258 223.404 200.733 224.529 203.432 223.547C203.432 223.547 202.622 193.597 200.722 182.113C200.722 182.113 216.02 208.883 220.877 222.222C220.877 222.222 223.411 221.92 225.508 220.539C225.508 220.539 209.038 172.354 204.643 165.937L189.442 167.068Z" fill="url(#paint23_linear_456_10464)"/>
<path id="Vector_38" d="M200.366 181.821C200.414 181.821 200.462 181.808 200.506 181.781C200.63 181.703 200.667 181.54 200.59 181.416L197.24 176.066C197.202 176.004 197.139 175.961 197.068 175.947L194.603 175.45C194.459 175.422 194.32 175.515 194.291 175.658C194.263 175.801 194.355 175.941 194.499 175.97L196.852 176.443L200.141 181.697C200.191 181.777 200.278 181.821 200.366 181.821Z" fill="url(#paint24_linear_456_10464)"/>
<path id="Vector_39" d="M148.312 112.203C148.312 112.203 154.36 113.537 158.039 115.236C158.769 115.573 159.352 116.163 159.684 116.89C160.784 119.3 164.076 125.343 170.46 128.227C169.54 129.448 168.06 131.986 167.415 136.252C163.581 133.398 160.271 128.632 158.682 120.816C158.682 120.816 157.472 121.474 155.962 120.741C155.165 120.354 154.244 119.804 153.552 119.372C152.864 118.942 152.351 118.272 152.151 117.491C151.888 116.459 152.043 115.551 152.043 114.577L148.934 113.614C148.934 113.614 148 113.261 148.312 112.203Z" fill="url(#paint25_linear_456_10464)"/>
<path id="Vector_40" d="M167.415 136.256C168.06 131.99 169.54 129.452 170.459 128.231C174.425 130.023 179.584 130.596 186.153 128.32C186.758 128.11 187.39 127.987 188.03 127.949C191.527 127.744 203.051 127.37 212.586 130.521C214.593 131.184 216.218 132.667 217.056 134.589C219.636 140.509 223.812 153.99 212.218 160.796C211.328 158.584 210.3 156.807 209.421 155.501C211.288 152.352 211.841 148.05 208.527 142.449C206.112 148.973 204.978 158.491 204.741 162.703C204.663 164.09 204.907 165.474 205.451 166.755L205.51 166.894C205.627 167.168 205.466 167.483 205.173 167.549C198.647 169.015 191.859 168.617 189.831 168.449C189.469 168.419 189.168 168.16 189.085 167.81C185.911 154.438 185.904 145.316 186.681 139.549C183.712 140.213 174.634 141.628 167.415 136.256Z" fill="url(#paint26_linear_456_10464)"/>
<path id="Vector_41" d="M186.667 139.906C186.798 139.906 186.912 139.809 186.929 139.676C187.675 134.046 189.193 131.588 189.208 131.564C189.286 131.441 189.249 131.277 189.125 131.199C189.002 131.121 188.839 131.158 188.761 131.281C188.696 131.383 187.167 133.843 186.405 139.607C186.386 139.751 186.487 139.885 186.632 139.904C186.644 139.905 186.656 139.906 186.667 139.906Z" fill="url(#paint27_linear_456_10464)"/>
<path id="Vector_42" d="M202.775 120.155C202.775 120.155 203.435 127.136 204.016 129.201C204.105 129.515 203.968 129.845 203.684 130.008C202.697 130.571 200.331 131.491 197.094 129.905C196.569 129.648 196.254 129.101 196.279 128.522L196.564 121.776L202.775 120.155Z" fill="url(#paint28_linear_456_10464)"/>
<g id="Group_22">
<path id="Vector_43" d="M196.421 111.226C196.421 111.226 194.309 116.077 194.168 118.623C194.026 121.169 193.477 122.821 196.421 123.334C199.365 123.847 201.845 122.38 203.189 119.844C203.189 119.844 205.294 115.936 204.822 114.335C204.35 112.735 196.421 111.226 196.421 111.226Z" fill="url(#paint29_linear_456_10464)"/>
<path id="Vector_44" d="M202.183 118.02L202.015 117.946C201.802 117.852 201.71 117.598 201.818 117.391C202.233 116.589 203.042 114.751 201.996 114.322C200.649 113.769 195.312 112.681 194.16 110.787C193.053 108.967 194.034 106.617 195.508 105.949C195.606 105.904 195.723 105.94 195.773 106.035L195.896 106.268C195.98 106.427 196.215 106.403 196.265 106.23C196.313 106.064 196.534 106.032 196.625 106.178C196.979 106.745 197.935 107.663 200.491 108.135C204.123 108.805 206.524 110.275 206.584 112.785C206.588 112.944 206.757 113.033 206.893 112.95C207.162 112.787 207.591 112.71 208.164 113.192C209.162 114.031 208.753 116.207 206.567 117.996C206.463 118.081 206.464 118.243 206.576 118.317C206.973 118.575 207.564 119.189 206.032 120.007C204.449 120.854 203.266 120.784 202.811 120.709C202.697 120.691 202.624 120.581 202.649 120.469L203.135 118.263C203.163 118.138 203.068 118.02 202.94 118.02H202.183Z" fill="url(#paint30_linear_456_10464)"/>
<path id="Vector_45" d="M202.091 118.486C202.091 118.486 202.896 115.387 204.286 116.256C205.675 117.125 203.565 119.728 202.448 119.844L202.091 118.486Z" fill="url(#paint31_linear_456_10464)"/>
</g>
<path id="Vector_46" d="M157.069 120.099C157.128 120.099 157.187 120.08 157.236 120.04C157.35 119.948 157.367 119.781 157.274 119.668C157.046 119.386 155.016 116.905 154.234 116.463C153.949 116.302 153.78 116.136 153.744 115.983C153.727 115.91 153.738 115.827 153.779 115.734L156.164 116.212L157.515 117.371C157.626 117.466 157.793 117.454 157.889 117.343C157.984 117.232 157.971 117.065 157.86 116.969L156.457 115.765C156.422 115.735 156.381 115.715 156.336 115.706L153.696 115.177C153.59 115.156 153.484 115.2 153.425 115.289C153.231 115.576 153.167 115.843 153.229 116.104C153.302 116.414 153.545 116.682 153.974 116.924C154.562 117.256 156.259 119.258 156.864 120.002C156.916 120.066 156.992 120.099 157.069 120.099Z" fill="#F8A570"/>
<path id="Vector_47" d="M202.194 164.151L192.859 164.266L196.126 161.191C196.938 160.427 198.178 160.303 199.115 160.911C199.664 161.267 200.259 161.75 200.775 162.39C200.775 162.39 206.598 160.262 209.42 155.501C210.299 156.807 211.328 158.585 212.218 160.796C209.688 162.282 206.407 163.45 202.194 164.151Z" fill="url(#paint32_linear_456_10464)"/>
<g id="Group_23">
<path id="Vector_48" d="M201.189 165.356C201.17 165.356 201.152 165.357 201.134 165.357L177.439 165.331C176.854 165.331 176.379 164.86 176.38 164.281C176.38 163.701 176.858 163.222 177.442 163.233L201.136 163.258C201.722 163.259 202.196 163.729 202.196 164.309C202.195 164.87 201.749 165.328 201.189 165.356Z" fill="url(#paint33_linear_456_10464)"/>
<path id="Vector_49" d="M156.139 144.069H175.872C177.328 144.069 178.653 144.901 179.274 146.203L188.396 165.343H163.873C162.935 165.343 162.092 164.776 161.748 163.913L154.673 146.202C154.265 145.178 155.027 144.069 156.139 144.069Z" fill="url(#paint34_linear_456_10464)"/>
<path id="Vector_50" d="M170.041 153.883C170.469 155.198 170.153 156.474 169.335 156.735C168.518 156.995 167.509 156.14 167.081 154.826C166.654 153.511 166.97 152.235 167.787 151.974C168.604 151.714 169.613 152.569 170.041 153.883Z" fill="url(#paint35_linear_456_10464)"/>
</g>
</g>
</g>
</g>
<defs>
<linearGradient id="paint0_linear_456_10464" x1="256.415" y1="236.18" x2="83.1146" y2="84.5428" gradientUnits="userSpaceOnUse">
<stop stop-color="#FF7C7C"/>
<stop offset="1" stop-color="#F89595"/>
</linearGradient>
<linearGradient id="paint1_linear_456_10464" x1="-5.50227" y1="67.8078" x2="99.2994" y2="97.843" gradientUnits="userSpaceOnUse">
<stop stop-color="#D53737"/>
<stop offset="1" stop-color="#EF4949"/>
</linearGradient>
<linearGradient id="paint2_linear_456_10464" x1="3.75971" y1="168.13" x2="37.9135" y2="38.8166" gradientUnits="userSpaceOnUse">
<stop stop-color="#E49F9F"/>
<stop offset="1" stop-color="#BC1D1D"/>
</linearGradient>
<linearGradient id="paint3_linear_456_10464" x1="164.273" y1="75.9327" x2="138.812" y2="43.5704" gradientUnits="userSpaceOnUse">
<stop stop-color="#B37CFF"/>
<stop offset="1" stop-color="#F895E7"/>
</linearGradient>
<linearGradient id="paint4_linear_456_10464" x1="129.051" y1="48.7034" x2="127.564" y2="46.8133" gradientUnits="userSpaceOnUse">
<stop stop-color="#B37CFF"/>
<stop offset="1" stop-color="#F895E7"/>
</linearGradient>
<linearGradient id="paint5_linear_456_10464" x1="135.775" y1="27.5263" x2="134.755" y2="26.2293" gradientUnits="userSpaceOnUse">
<stop stop-color="#B37CFF"/>
<stop offset="1" stop-color="#F895E7"/>
</linearGradient>
<linearGradient id="paint6_linear_456_10464" x1="175.515" y1="47.6796" x2="149.29" y2="14.3456" gradientUnits="userSpaceOnUse">
<stop stop-color="#B37CFF"/>
<stop offset="1" stop-color="#F895E7"/>
</linearGradient>
<linearGradient id="paint7_linear_456_10464" x1="185.154" y1="45.4748" x2="183.686" y2="43.6089" gradientUnits="userSpaceOnUse">
<stop stop-color="#B37CFF"/>
<stop offset="1" stop-color="#F895E7"/>
</linearGradient>
<linearGradient id="paint8_linear_456_10464" x1="129.427" y1="-57.7485" x2="170.771" y2="102.221" gradientUnits="userSpaceOnUse">
<stop stop-color="#FF7C7C"/>
<stop offset="1" stop-color="#F89595"/>
</linearGradient>
<linearGradient id="paint9_linear_456_10464" x1="206.371" y1="73.9733" x2="205.645" y2="73.0509" gradientUnits="userSpaceOnUse">
<stop stop-color="#B37CFF"/>
<stop offset="1" stop-color="#F895E7"/>
</linearGradient>
<linearGradient id="paint10_linear_456_10464" x1="196.302" y1="82.498" x2="182.079" y2="64.4189" gradientUnits="userSpaceOnUse">
<stop stop-color="#B37CFF"/>
<stop offset="1" stop-color="#F895E7"/>
</linearGradient>
<linearGradient id="paint11_linear_456_10464" x1="207.287" y1="60.7959" x2="191.053" y2="40.1615" gradientUnits="userSpaceOnUse">
<stop stop-color="#B37CFF"/>
<stop offset="1" stop-color="#F895E7"/>
</linearGradient>
<linearGradient id="paint12_linear_456_10464" x1="210.363" y1="62.0505" x2="209.253" y2="60.6393" gradientUnits="userSpaceOnUse">
<stop stop-color="#B37CFF"/>
<stop offset="1" stop-color="#F895E7"/>
</linearGradient>
<linearGradient id="paint13_linear_456_10464" x1="157.98" y1="-65.1071" x2="199.324" y2="94.8624" gradientUnits="userSpaceOnUse">
<stop stop-color="#FF7C7C"/>
<stop offset="1" stop-color="#F89595"/>
</linearGradient>
<linearGradient id="paint14_linear_456_10464" x1="128.318" y1="34.6742" x2="114.988" y2="194.634" gradientUnits="userSpaceOnUse">
<stop stop-color="#822B2B"/>
<stop offset="1" stop-color="#420E0E"/>
</linearGradient>
<linearGradient id="paint15_linear_456_10464" x1="-41.1874" y1="216.831" x2="281.029" y2="32.7078" gradientUnits="userSpaceOnUse">
<stop stop-color="#FF5353"/>
<stop offset="0.2057" stop-color="#FD4D4D"/>
<stop offset="1" stop-color="#F73838"/>
</linearGradient>
<linearGradient id="paint16_linear_456_10464" x1="120.217" y1="173.94" x2="119.055" y2="282.528" gradientUnits="userSpaceOnUse">
<stop stop-color="#822B2B"/>
<stop offset="1" stop-color="#420E0E"/>
</linearGradient>
<linearGradient id="paint17_linear_456_10464" x1="204.153" y1="231.42" x2="189.646" y2="231.42" gradientUnits="userSpaceOnUse">
<stop stop-color="#53D8FF"/>
<stop offset="1" stop-color="#3840F7"/>
</linearGradient>
<linearGradient id="paint18_linear_456_10464" x1="204.154" y1="228.576" x2="190.057" y2="228.576" gradientUnits="userSpaceOnUse">
<stop stop-color="#2B3582"/>
<stop offset="1" stop-color="#150E42"/>
</linearGradient>
<linearGradient id="paint19_linear_456_10464" x1="202.813" y1="224.605" x2="198.727" y2="224.605" gradientUnits="userSpaceOnUse">
<stop stop-color="#F9B776"/>
<stop offset="1" stop-color="#F47960"/>
</linearGradient>
<linearGradient id="paint20_linear_456_10464" x1="230.044" y1="235.014" x2="224.485" y2="235.014" gradientUnits="userSpaceOnUse">
<stop stop-color="#53D8FF"/>
<stop offset="1" stop-color="#3840F7"/>
</linearGradient>
<linearGradient id="paint21_linear_456_10464" x1="230.003" y1="229.482" x2="221.844" y2="229.482" gradientUnits="userSpaceOnUse">
<stop stop-color="#2B3582"/>
<stop offset="1" stop-color="#150E42"/>
</linearGradient>
<linearGradient id="paint22_linear_456_10464" x1="225.763" y1="222.476" x2="220.88" y2="222.476" gradientUnits="userSpaceOnUse">
<stop stop-color="#F9B776"/>
<stop offset="1" stop-color="#F47960"/>
</linearGradient>
<linearGradient id="paint23_linear_456_10464" x1="206.341" y1="158.366" x2="208.74" y2="233.316" gradientUnits="userSpaceOnUse">
<stop stop-color="#CE1567"/>
<stop offset="1" stop-color="#7A1DBC"/>
</linearGradient>
<linearGradient id="paint24_linear_456_10464" x1="225.528" y1="95.0604" x2="199.146" y2="173.608" gradientUnits="userSpaceOnUse">
<stop stop-color="#CE1567"/>
<stop offset="1" stop-color="#7A1DBC"/>
</linearGradient>
<linearGradient id="paint25_linear_456_10464" x1="158.594" y1="119.612" x2="177.935" y2="144.774" gradientUnits="userSpaceOnUse">
<stop stop-color="#F9B776"/>
<stop offset="1" stop-color="#F47960"/>
</linearGradient>
<linearGradient id="paint26_linear_456_10464" x1="181.538" y1="125.511" x2="246.109" y2="202.039" gradientUnits="userSpaceOnUse">
<stop stop-color="#FDF53F"/>
<stop offset="1" stop-color="#D93C65"/>
</linearGradient>
<linearGradient id="paint27_linear_456_10464" x1="161.901" y1="78.5673" x2="207.47" y2="178.7" gradientUnits="userSpaceOnUse">
<stop stop-color="#FDF53F"/>
<stop offset="1" stop-color="#D93C65"/>
</linearGradient>
<linearGradient id="paint28_linear_456_10464" x1="201.704" y1="135.875" x2="199.588" y2="124.766" gradientUnits="userSpaceOnUse">
<stop stop-color="#F9B776"/>
<stop offset="1" stop-color="#F47960"/>
</linearGradient>
<linearGradient id="paint29_linear_456_10464" x1="195.978" y1="115.496" x2="208.051" y2="124.733" gradientUnits="userSpaceOnUse">
<stop stop-color="#F9B776"/>
<stop offset="1" stop-color="#F47960"/>
</linearGradient>
<linearGradient id="paint30_linear_456_10464" x1="204.477" y1="108.181" x2="193.233" y2="122.657" gradientUnits="userSpaceOnUse">
<stop stop-color="#2B3582"/>
<stop offset="1" stop-color="#150E42"/>
</linearGradient>
<linearGradient id="paint31_linear_456_10464" x1="197.475" y1="113.539" x2="209.548" y2="122.776" gradientUnits="userSpaceOnUse">
<stop stop-color="#F9B776"/>
<stop offset="1" stop-color="#F47960"/>
</linearGradient>
<linearGradient id="paint32_linear_456_10464" x1="190.398" y1="143.77" x2="198.847" y2="156.445" gradientUnits="userSpaceOnUse">
<stop stop-color="#F9B776"/>
<stop offset="1" stop-color="#F47960"/>
</linearGradient>
<linearGradient id="paint33_linear_456_10464" x1="205.207" y1="159.072" x2="186.399" y2="165.24" gradientUnits="userSpaceOnUse">
<stop stop-color="#2B3582"/>
<stop offset="1" stop-color="#150E42"/>
</linearGradient>
<linearGradient id="paint34_linear_456_10464" x1="179.32" y1="146.89" x2="165.855" y2="161.122" gradientUnits="userSpaceOnUse">
<stop stop-color="#2B3582"/>
<stop offset="1" stop-color="#150E42"/>
</linearGradient>
<linearGradient id="paint35_linear_456_10464" x1="171.155" y1="150.448" x2="165.069" y2="159.614" gradientUnits="userSpaceOnUse">
<stop stop-color="#53D8FF"/>
<stop offset="1" stop-color="#3840F7"/>
</linearGradient>
</defs>
</svg>
