<svg width="400" height="267" viewBox="0 0 400 267" fill="none" xmlns="http://www.w3.org/2000/svg">
<path d="M117.271 65.207L57.4287 105.236L116.37 193.352L176.213 153.323L117.271 65.207Z" fill="#F5F5F5"/>
<path d="M145.291 149.153L144.612 153.356L114.863 149.07L115.542 144.867L145.291 149.153Z" fill="#E0E0E0"/>
<path d="M130.31 134.158L134.578 134.774L129.846 164.063L125.576 163.448L130.31 134.158Z" fill="#E0E0E0"/>
<path d="M102.908 96.9304C102.951 96.9944 96.9532 101.08 89.5148 106.056C82.0738 111.033 76.0087 115.015 75.966 114.951C75.9234 114.887 81.9191 110.802 89.3607 105.825C96.7991 100.849 102.865 96.867 102.908 96.9304Z" fill="#E0E0E0"/>
<path d="M124.916 91.4067C124.958 91.4707 114.986 98.2158 102.644 106.47C90.2981 114.728 80.2586 121.368 80.216 121.304C80.1733 121.241 90.144 114.497 102.49 106.239C114.831 97.9848 124.873 91.3432 124.916 91.4067Z" fill="#E0E0E0"/>
<path d="M129.327 98.0024C129.369 98.0664 119.397 104.811 107.055 113.066C94.7092 121.323 84.6698 127.964 84.6271 127.9C84.5844 127.836 94.5551 121.093 106.901 112.835C119.243 104.581 129.284 97.9389 129.327 98.0024Z" fill="#E0E0E0"/>
<path d="M133.738 104.598C133.781 104.662 123.808 111.407 111.466 119.662C99.1204 127.919 89.0809 134.56 89.0382 134.496C88.9956 134.432 98.9662 127.688 111.312 119.431C123.654 111.176 133.695 104.534 133.738 104.598Z" fill="#E0E0E0"/>
<path d="M138.15 111.192C138.193 111.256 128.22 118 115.879 126.255C103.532 134.513 93.493 141.153 93.4503 141.089C93.4077 141.025 103.378 134.282 115.724 126.024C128.065 117.77 138.107 111.128 138.15 111.192Z" fill="#E0E0E0"/>
<path d="M317.375 124.253L267.118 157.871L316.619 231.873L366.876 198.255L317.375 124.253Z" fill="#F5F5F5"/>
<path d="M340.907 194.762L340.337 198.291L315.353 194.692L315.923 191.162L340.907 194.762Z" fill="#E0E0E0"/>
<path d="M328.325 182.17L331.91 182.687L327.935 207.285L324.35 206.768L328.325 182.17Z" fill="#E0E0E0"/>
<path d="M305.313 150.905C305.355 150.969 300.324 154.409 294.077 158.587C287.827 162.767 282.728 166.103 282.686 166.039C282.643 165.975 287.673 162.536 293.923 158.356C300.17 154.178 305.27 150.842 305.313 150.905Z" fill="#E0E0E0"/>
<path d="M323.794 146.266C323.836 146.33 315.467 152.003 305.102 158.935C294.734 165.87 286.297 171.439 286.254 171.375C286.211 171.311 294.579 165.64 304.948 158.705C315.312 151.772 323.751 146.203 323.794 146.266Z" fill="#E0E0E0"/>
<path d="M327.499 151.805C327.542 151.869 319.172 157.542 308.807 164.475C298.439 171.41 290.002 176.978 289.959 176.914C289.916 176.85 298.284 171.179 308.653 164.244C319.017 157.311 327.456 151.741 327.499 151.805Z" fill="#E0E0E0"/>
<path d="M331.204 157.344C331.247 157.408 322.877 163.081 312.512 170.014C302.144 176.949 293.707 182.517 293.664 182.453C293.622 182.39 301.99 176.718 312.358 169.783C322.722 162.85 331.161 157.281 331.204 157.344Z" fill="#E0E0E0"/>
<path d="M334.909 162.883C334.952 162.947 326.582 168.62 316.217 175.553C305.849 182.488 297.412 188.056 297.369 187.992C297.327 187.929 305.695 182.257 316.063 175.322C326.427 168.389 334.866 162.819 334.909 162.883Z" fill="#E0E0E0"/>
<path d="M237.862 68.4425L183.025 39.1152L139.842 119.859L194.678 149.187L237.862 68.4425Z" fill="#F5F5F5"/>
<path d="M185.292 123.93L181.813 125.122L172.982 100.709L176.462 99.5176L185.292 123.93Z" fill="#E0E0E0"/>
<path d="M190.626 106.416L191.893 109.919L167.648 118.223L166.381 114.719L190.626 106.416Z" fill="#E0E0E0"/>
<path d="M207.852 70.3968C207.809 70.4773 202.248 67.5861 195.431 63.9408C188.612 60.2938 183.121 57.2736 183.164 57.193C183.208 57.113 188.768 60.0032 195.587 63.6496C202.403 67.2954 207.896 70.3168 207.852 70.3968Z" fill="#E0E0E0"/>
<path d="M221.012 84.9227C220.969 85.0033 211.764 80.1638 200.455 74.1158C189.142 68.0651 180.009 63.0971 180.052 63.0166C180.095 62.9366 189.298 67.7745 200.611 73.8251C211.92 79.8731 221.055 84.8422 221.012 84.9227Z" fill="#E0E0E0"/>
<path d="M217.78 90.9662C217.736 91.0468 208.531 86.2073 197.223 80.1588C185.91 74.1081 176.776 69.1401 176.819 69.0596C176.863 68.9796 186.065 73.8174 197.378 79.8681C208.687 85.9161 217.822 90.8857 217.78 90.9662Z" fill="#E0E0E0"/>
<path d="M214.547 97.0092C214.504 97.0898 205.299 92.2503 193.99 86.2018C182.677 80.1516 173.544 75.1831 173.587 75.1026C173.63 75.022 182.833 79.8604 194.146 85.9111C205.455 91.9596 214.59 96.9292 214.547 97.0092Z" fill="#E0E0E0"/>
<path d="M211.316 103.052C211.272 103.133 202.068 98.2932 190.759 92.2447C179.446 86.1946 170.312 81.226 170.356 81.1455C170.399 81.0655 179.601 85.9034 190.915 91.954C202.223 98.0026 211.358 102.972 211.316 103.052Z" fill="#E0E0E0"/>
<path opacity="0.2" d="M211.603 0H210.226V23.4576H211.603V0Z" fill="black"/>
<path d="M178.791 51.8343H243.037C243.037 51.8343 237.105 23.4434 210.427 23.4434C186.698 23.4428 178.791 51.8343 178.791 51.8343Z" fill="#CC0000"/>
<path d="M211.603 0H210.226V23.4576H211.603V0Z" fill="#CC0000"/>
<path d="M353.956 234.574C353.956 234.651 285.022 234.713 200.008 234.713C114.964 234.713 46.0449 234.65 46.0449 234.574C46.0449 234.497 114.964 234.436 200.008 234.436C285.022 234.436 353.956 234.498 353.956 234.574Z" fill="#263238"/>
<path d="M63.0859 201.174C64.8891 201.237 66.5819 202.216 67.7712 203.573C68.9605 204.93 69.6896 206.636 70.1563 208.38C71.0587 211.752 70.504 215.732 69.5424 219.088C65.8912 217.783 63.64 213.89 62.6219 211.842C61.0123 208.607 60.0688 201.782 63.0859 201.174Z" fill="#CC0000"/>
<path d="M74.7965 223.176C73.6445 221.522 73.6173 219.222 74.5282 217.423C75.4386 215.625 77.1885 214.328 79.1154 213.736C80.0066 213.463 81.0402 213.347 81.8151 213.865C82.5399 214.349 82.853 215.299 82.7591 216.165C82.6658 217.031 82.2269 217.824 81.709 218.525C79.9335 220.929 77.7741 222.929 74.7965 223.176Z" fill="#CC0000"/>
<path d="M75.1978 234.446C75.1802 234.448 75.1247 234.198 75.0346 233.745C74.937 233.244 74.8106 232.599 74.6591 231.823C74.3711 230.207 73.9141 227.908 74.2597 225.368C74.5919 222.838 75.5989 220.676 76.6543 219.385C77.1738 218.731 77.6714 218.269 78.0394 217.985C78.2175 217.835 78.3743 217.743 78.4741 217.673C78.5759 217.606 78.6319 217.574 78.6373 217.581C78.6773 217.626 77.7839 218.177 76.7967 219.494C75.7967 220.789 74.8383 222.914 74.5109 225.401C74.1706 227.89 74.5919 230.168 74.8357 231.792C74.9663 232.608 75.0714 233.27 75.1322 233.729C75.1925 234.188 75.2149 234.443 75.1978 234.446Z" fill="#263238"/>
<path d="M64.2638 206.307C64.2718 206.303 64.3225 206.398 64.411 206.583C64.5081 206.793 64.6329 207.062 64.787 207.396C65.1097 208.104 65.563 209.133 66.1129 210.411C67.2132 212.965 68.683 216.515 70.218 220.472C71.7524 224.429 73.0601 228.043 73.9694 230.671C74.4249 231.985 74.7838 233.051 75.0228 233.792C75.1337 234.142 75.2233 234.425 75.2926 234.645C75.3518 234.842 75.3785 234.946 75.3705 234.949C75.362 234.952 75.3193 234.853 75.2446 234.662C75.1636 234.445 75.059 234.168 74.93 233.824C74.6526 233.064 74.2697 232.014 73.8009 230.731C72.8484 228.12 71.515 224.518 69.9817 220.563C68.4478 216.609 67.0046 213.051 65.9476 210.48C65.4281 209.216 65.0036 208.183 64.6958 207.435C64.5593 207.094 64.4489 206.818 64.363 206.603C64.2905 206.412 64.2558 206.31 64.2638 206.307Z" fill="#263238"/>
<path d="M70.8639 226.989C68.7108 223.325 64.6906 220.827 60.4522 220.52C59.3727 220.442 58.0746 220.624 57.5935 221.593C57.1114 222.563 57.7562 223.713 58.4916 224.509C61.5508 227.823 66.7263 228.978 70.9044 227.28" fill="#CC0000"/>
<path d="M62.0957 223.409C62.0968 223.391 62.3368 223.401 62.7715 223.434C62.9891 223.449 63.2552 223.468 63.5597 223.525C63.8637 223.582 64.2173 223.615 64.5939 223.72C64.9731 223.813 65.3912 223.905 65.8243 224.062C66.2659 224.192 66.7192 224.381 67.1955 224.583C68.1363 225.01 69.1341 225.569 70.0845 226.296C71.028 227.031 71.8248 227.853 72.4728 228.659C72.7843 229.072 73.0819 229.464 73.3139 229.862C73.5704 230.244 73.7608 230.629 73.9395 230.975C74.1309 231.316 74.244 231.653 74.3693 231.936C74.4957 232.22 74.5747 232.475 74.6376 232.684C74.7672 233.1 74.8301 233.332 74.8136 233.336C74.7597 233.355 74.5 232.423 73.7811 231.057C73.5944 230.72 73.3976 230.347 73.1373 229.975C72.9016 229.588 72.6019 229.207 72.2909 228.805C71.6435 228.02 70.8568 227.219 69.9304 226.496C68.9971 225.783 68.0205 225.228 67.0995 224.796C66.6333 224.591 66.1896 224.398 65.7571 224.261C65.3336 224.099 64.9229 223.997 64.5512 223.894C63.0552 223.515 62.0899 223.464 62.0957 223.409Z" fill="#263238"/>
<path d="M304.192 56.2537C302.624 56.6147 301.86 58.419 301.711 60.0217C301.563 61.6238 301.767 63.3161 301.094 64.7779C300.337 66.4233 298.528 67.6361 298.468 69.4468C298.431 70.5502 299.086 71.5881 299.055 72.6921C299.003 74.5049 297.155 75.875 297.058 77.6862C296.988 78.9902 297.856 80.2419 297.647 81.531C297.485 82.5342 296.704 83.3246 296.374 84.2857C295.716 86.202 297.032 88.3113 298.747 89.3897C300.658 90.5918 303.105 90.9017 305.254 90.2147C307.405 89.5278 309.219 87.8558 310.078 85.7689C311.027 83.4654 310.82 80.8718 310.614 78.3897C309.971 70.6531 309.493 62.9033 309.181 55.1465" fill="#263238"/>
<path d="M299.638 83.555C299.605 83.5246 300.067 83.3869 300.355 82.7027C300.494 82.3683 300.566 81.9182 300.538 81.4008C300.52 80.8803 300.342 80.3133 300.149 79.6739C299.97 79.0403 299.737 78.3048 299.87 77.4872C300.005 76.6568 300.599 75.9747 301.141 75.3048C301.414 74.9651 301.689 74.612 301.861 74.2104C302.044 73.8131 302.082 73.3581 301.945 72.9315C301.669 72.06 300.816 71.4189 300.424 70.4131C300.229 69.9091 300.227 69.3555 300.338 68.8568C300.443 68.3533 300.647 67.8963 300.852 67.4611C301.27 66.5928 301.73 65.7966 301.912 64.9512C302.286 63.2595 302.112 61.6446 302.366 60.3182C302.597 58.9891 303.159 57.9902 303.715 57.4766C303.986 57.211 304.249 57.0696 304.42 56.9741C304.602 56.8957 304.698 56.8595 304.702 56.8686C304.72 56.8984 304.307 57.0254 303.792 57.5528C303.277 58.0728 302.762 59.0499 302.56 60.3507C302.454 60.9976 302.438 61.7251 302.412 62.5059C302.384 63.2862 302.36 64.1336 302.161 65.0094C301.976 65.8968 301.504 66.7246 301.098 67.5774C300.697 68.4152 300.329 69.3976 300.683 70.316C301.022 71.2238 301.881 71.8686 302.204 72.8494C302.362 73.3374 302.31 73.8782 302.104 74.3155C301.908 74.7603 301.618 75.124 301.339 75.4654C300.782 76.1395 300.224 76.7806 300.097 77.5272C299.963 78.2696 300.169 78.9859 300.337 79.62C300.516 80.2542 300.688 80.8515 300.692 81.3939C300.707 81.9315 300.616 82.3998 300.454 82.7459C300.293 83.0942 300.073 83.3096 299.907 83.419C299.744 83.5315 299.638 83.555 299.638 83.555Z" fill="#455A64"/>
<path d="M295.441 96.1953L290.626 110.074L270.55 111.15L267.202 118.6L288.162 120.72C292.342 122.448 297.117 120.33 298.643 116.073L304.236 100.459L295.441 96.1953Z" fill="#B78876"/>
<path d="M336.967 227.039C336.967 227.039 322.255 180.31 321.943 178.792C321.661 177.421 327.282 143.793 327.99 135.09L308.111 135.831C308.111 135.831 308.11 135.885 308.109 135.976L299.659 136.445L307.228 232.015H316.376L315.469 200.307C321.11 215.452 329.194 230.886 329.194 230.886L336.967 227.039Z" fill="#B78876"/>
<path d="M315.841 211.67C315.849 211.38 315.73 201.047 315.73 201.047C315.616 201.665 312.223 192.075 312.305 191.492C312.347 191.19 315.841 211.67 315.841 211.67Z" fill="#A36957"/>
<path d="M311.918 186.953C311.898 186.953 311.878 187.158 311.86 187.532C311.84 187.906 311.836 188.448 311.872 189.117C311.885 189.452 311.92 189.818 311.963 190.21C312.013 190.601 312.067 191.02 312.157 191.454C312.323 192.326 312.579 193.27 312.905 194.238C313.57 196.171 314.302 197.862 314.823 199.09C315.07 199.649 315.282 200.13 315.46 200.534C315.616 200.873 315.711 201.057 315.731 201.049C315.751 201.041 315.692 200.843 315.57 200.49C315.447 200.138 315.26 199.632 315.022 199.009C314.553 197.762 313.852 196.058 313.194 194.142C312.871 193.183 312.611 192.256 312.432 191.4C312.336 190.973 312.274 190.562 312.214 190.177C312.16 189.792 312.114 189.432 312.087 189.101C312.025 188.442 311.996 187.904 311.979 187.532C311.959 187.16 311.939 186.953 311.918 186.953Z" fill="#A36957"/>
<path d="M307.055 232.486L307.051 231.627L316.422 231.219L316.447 234.763L315.869 234.802C313.297 234.952 302.78 235.386 301.059 234.87C299.139 234.294 307.055 232.486 307.055 232.486Z" fill="#455A64"/>
<path d="M316.578 234.548C316.578 234.552 316.523 234.558 316.418 234.566C316.279 234.576 316.128 234.585 315.957 234.596C315.497 234.617 314.931 234.644 314.263 234.675C312.832 234.731 310.854 234.783 308.669 234.793C306.483 234.802 304.504 234.768 303.073 234.724C302.405 234.699 301.839 234.677 301.378 234.659C301.207 234.65 301.056 234.642 300.918 234.634C300.813 234.627 300.757 234.621 300.758 234.617C300.758 234.613 300.813 234.611 300.919 234.611C301.058 234.612 301.209 234.613 301.38 234.615C301.841 234.622 302.407 234.632 303.075 234.643C304.507 234.667 306.484 234.689 308.669 234.68C310.853 234.67 312.83 234.63 314.261 234.594C314.929 234.577 315.495 234.563 315.956 234.551C316.127 234.548 316.278 234.545 316.417 234.543C316.522 234.543 316.578 234.545 316.578 234.548Z" fill="#263238"/>
<path d="M304.018 234.849C303.984 234.854 303.956 234.449 303.699 234.042C303.449 233.63 303.099 233.424 303.119 233.396C303.125 233.367 303.526 233.542 303.795 233.983C304.069 234.421 304.046 234.856 304.018 234.849Z" fill="#263238"/>
<path d="M306.765 233.446C306.739 233.462 306.607 233.303 306.47 233.089C306.333 232.875 306.244 232.688 306.27 232.671C306.296 232.654 306.429 232.814 306.566 233.028C306.702 233.242 306.791 233.429 306.765 233.446Z" fill="#263238"/>
<path d="M307.518 233.044C307.497 233.067 307.35 232.969 307.188 232.825C307.027 232.681 306.914 232.546 306.934 232.523C306.955 232.5 307.102 232.597 307.264 232.741C307.425 232.885 307.539 233.021 307.518 233.044Z" fill="#263238"/>
<path d="M307.992 232.161C307.993 232.192 307.775 232.221 307.506 232.225C307.237 232.229 307.018 232.207 307.018 232.176C307.017 232.144 307.235 232.116 307.504 232.112C307.773 232.108 307.991 232.13 307.992 232.161Z" fill="#263238"/>
<path d="M308.154 231.54C308.164 231.568 307.928 231.676 307.611 231.7C307.296 231.727 307.045 231.657 307.051 231.628C307.056 231.596 307.303 231.613 307.603 231.588C307.903 231.565 308.144 231.509 308.154 231.54Z" fill="#263238"/>
<path d="M306.445 232.633C306.446 232.646 306.216 232.675 305.846 232.631C305.661 232.61 305.443 232.567 305.207 232.493C305.091 232.452 304.969 232.421 304.842 232.344C304.783 232.304 304.717 232.249 304.693 232.158C304.668 232.069 304.716 231.967 304.783 231.918C305.355 231.62 305.93 231.94 306.143 232.235C306.261 232.385 306.315 232.532 306.34 232.634C306.365 232.736 306.363 232.795 306.356 232.795C306.335 232.803 306.315 232.559 306.082 232.285C305.966 232.151 305.793 232.02 305.569 231.955C305.357 231.893 305.055 231.877 304.854 232.006C304.759 232.077 304.797 232.188 304.903 232.251C305.002 232.315 305.13 232.352 305.24 232.394C305.467 232.471 305.678 232.52 305.858 232.552C306.217 232.615 306.445 232.615 306.445 232.633Z" fill="#263238"/>
<path d="M306.29 232.663C306.282 232.67 306.193 232.517 306.22 232.248C306.234 232.116 306.282 231.958 306.382 231.81C306.487 231.676 306.623 231.492 306.88 231.502C307.019 231.52 307.087 231.677 307.065 231.778C307.055 231.883 307.008 231.973 306.965 232.046C306.876 232.196 306.776 232.318 306.683 232.41C306.496 232.594 306.347 232.665 306.341 232.654C306.33 232.639 306.46 232.546 306.624 232.356C306.706 232.261 306.795 232.14 306.874 231.995C306.955 231.868 307.011 231.64 306.861 231.614C306.711 231.6 306.558 231.75 306.467 231.87C306.373 232 306.321 232.14 306.299 232.26C306.254 232.503 306.311 232.659 306.29 232.663Z" fill="#263238"/>
<path d="M316.378 231.998C316.376 232.019 316.111 231.973 315.69 232.024C315.273 232.072 314.693 232.246 314.189 232.65C313.687 233.054 313.392 233.583 313.255 233.98C313.114 234.38 313.101 234.649 313.08 234.646C313.073 234.646 313.069 234.579 313.079 234.458C313.088 234.338 313.116 234.163 313.179 233.955C313.299 233.541 313.594 232.983 314.119 232.562C314.643 232.141 315.251 231.974 315.682 231.946C315.899 231.93 316.075 231.94 316.194 231.957C316.315 231.973 316.379 231.991 316.378 231.998Z" fill="#263238"/>
<path d="M311.891 233.807C311.895 233.836 311.287 233.933 310.529 233.936C309.771 233.941 309.163 233.851 309.166 233.821C309.169 233.789 309.778 233.828 310.529 233.823C311.279 233.82 311.887 233.774 311.891 233.807Z" fill="#263238"/>
<path d="M313.717 233.787C313.74 233.81 313.668 233.916 313.606 234.056C313.543 234.195 313.511 234.32 313.479 234.318C313.448 234.318 313.43 234.171 313.503 234.01C313.575 233.848 313.697 233.764 313.717 233.787Z" fill="#263238"/>
<path d="M314.402 232.926C314.425 232.948 314.365 233.045 314.269 233.143C314.173 233.241 314.077 233.303 314.055 233.281C314.032 233.26 314.092 233.163 314.188 233.064C314.284 232.966 314.38 232.904 314.402 232.926Z" fill="#263238"/>
<path d="M315.387 232.531C315.381 232.562 315.257 232.562 315.12 232.611C314.982 232.656 314.885 232.733 314.86 232.712C314.835 232.695 314.913 232.562 315.083 232.504C315.253 232.445 315.396 232.502 315.387 232.531Z" fill="#263238"/>
<path d="M316.087 232.343C316.098 232.373 316.045 232.421 315.968 232.45C315.89 232.481 315.818 232.482 315.807 232.453C315.796 232.424 315.849 232.375 315.927 232.345C316.004 232.315 316.075 232.314 316.087 232.343Z" fill="#263238"/>
<path d="M329.01 231.659L328.654 230.877L337.035 226.666L338.511 229.888L337.999 230.16C335.714 231.351 326.298 236.055 324.516 236.289C322.529 236.551 329.01 231.659 329.01 231.659Z" fill="#455A64"/>
<path d="M338.542 229.639C338.544 229.643 338.497 229.671 338.404 229.721C338.282 229.786 338.147 229.857 337.996 229.937C337.585 230.145 337.079 230.401 336.483 230.703C335.201 231.341 333.417 232.199 331.428 233.103C329.437 234.007 327.618 234.785 326.294 235.331C325.675 235.582 325.149 235.794 324.722 235.967C324.563 236.028 324.421 236.083 324.292 236.132C324.193 236.169 324.14 236.187 324.139 236.183C324.137 236.179 324.187 236.155 324.283 236.112C324.41 236.056 324.549 235.995 324.706 235.927C325.129 235.745 325.65 235.522 326.264 235.258C327.579 234.693 329.392 233.904 331.381 233C333.37 232.097 335.157 231.251 336.448 230.632C337.051 230.343 337.561 230.097 337.977 229.898C338.131 229.825 338.268 229.76 338.394 229.701C338.489 229.657 338.54 229.635 338.542 229.639Z" fill="#263238"/>
<path d="M327.209 235.059C327.179 235.077 326.988 234.72 326.586 234.453C326.189 234.179 325.786 234.135 325.792 234.1C325.787 234.072 326.223 234.067 326.65 234.359C327.079 234.647 327.237 235.054 327.209 235.059Z" fill="#263238"/>
<path d="M329.138 232.652C329.12 232.678 328.934 232.586 328.722 232.448C328.51 232.308 328.351 232.175 328.368 232.149C328.386 232.123 328.572 232.215 328.784 232.353C328.996 232.492 329.155 232.626 329.138 232.652Z" fill="#263238"/>
<path d="M329.66 231.976C329.65 232.006 329.476 231.977 329.27 231.912C329.064 231.847 328.905 231.77 328.914 231.74C328.924 231.71 329.098 231.739 329.304 231.804C329.51 231.869 329.669 231.946 329.66 231.976Z" fill="#263238"/>
<path d="M329.731 230.979C329.745 231.007 329.558 231.122 329.314 231.237C329.071 231.35 328.862 231.419 328.849 231.391C328.836 231.363 329.023 231.248 329.267 231.134C329.51 231.02 329.718 230.951 329.731 230.979Z" fill="#263238"/>
<path d="M329.624 230.346C329.645 230.367 329.473 230.563 329.195 230.714C328.917 230.867 328.66 230.907 328.654 230.878C328.645 230.846 328.877 230.761 329.14 230.615C329.406 230.472 329.602 230.322 329.624 230.346Z" fill="#263238"/>
<path d="M328.514 232.041C328.519 232.052 328.322 232.173 327.966 232.285C327.789 232.341 327.572 232.391 327.327 232.42C327.204 232.431 327.08 232.453 326.933 232.434C326.862 232.423 326.78 232.399 326.721 232.326C326.661 232.255 326.663 232.143 326.705 232.071C327.104 231.564 327.759 231.62 328.075 231.802C328.244 231.891 328.354 232.003 328.418 232.085C328.482 232.169 328.504 232.223 328.499 232.226C328.483 232.242 328.365 232.028 328.039 231.874C327.879 231.798 327.667 231.75 327.436 231.782C327.218 231.812 326.936 231.921 326.806 232.121C326.748 232.225 326.828 232.311 326.95 232.325C327.067 232.342 327.198 232.325 327.316 232.317C327.555 232.295 327.768 232.253 327.944 232.208C328.298 232.118 328.506 232.024 328.514 232.041Z" fill="#263238"/>
<path d="M328.384 232.133C328.38 232.143 328.236 232.04 328.15 231.783C328.108 231.656 328.088 231.493 328.118 231.317C328.159 231.152 328.207 230.929 328.446 230.832C328.58 230.791 328.892 231.06 328.913 231.161C328.947 231.262 328.756 231.21 328.745 231.294C328.726 231.468 328.685 231.619 328.638 231.741C328.542 231.986 328.436 232.111 328.425 232.104C328.41 232.095 328.49 231.957 328.562 231.716C328.598 231.595 328.629 231.449 328.642 231.285C328.664 231.135 328.622 230.905 328.474 230.942C328.332 230.991 328.254 231.19 328.22 231.337C328.188 231.494 328.197 231.642 328.226 231.762C328.286 232.002 328.401 232.121 328.384 232.133Z" fill="#263238"/>
<path d="M337.315 227.394C337.322 227.415 337.061 227.481 336.698 227.701C336.337 227.915 335.879 228.311 335.585 228.885C335.292 229.46 335.24 230.063 335.278 230.481C335.313 230.904 335.412 231.154 335.391 231.161C335.385 231.163 335.354 231.104 335.314 230.99C335.272 230.876 335.227 230.705 335.198 230.49C335.139 230.063 335.179 229.433 335.485 228.834C335.791 228.235 336.277 227.834 336.659 227.631C336.85 227.528 337.015 227.465 337.131 227.431C337.247 227.398 337.313 227.388 337.315 227.394Z" fill="#263238"/>
<path d="M333.962 230.883C333.977 230.908 333.463 231.245 332.773 231.559C332.084 231.874 331.492 232.04 331.483 232.012C331.472 231.981 332.044 231.768 332.726 231.456C333.41 231.146 333.945 230.854 333.962 230.883Z" fill="#263238"/>
<path d="M335.62 230.116C335.649 230.127 335.628 230.254 335.629 230.407C335.628 230.56 335.65 230.687 335.62 230.698C335.592 230.711 335.515 230.584 335.516 230.407C335.515 230.23 335.592 230.104 335.62 230.116Z" fill="#263238"/>
<path d="M335.893 229.05C335.922 229.06 335.907 229.173 335.86 229.302C335.812 229.432 335.75 229.527 335.721 229.516C335.692 229.506 335.707 229.393 335.754 229.264C335.802 229.135 335.864 229.039 335.893 229.05Z" fill="#263238"/>
<path d="M336.629 228.287C336.636 228.318 336.522 228.368 336.417 228.469C336.31 228.567 336.253 228.676 336.222 228.667C336.192 228.662 336.208 228.509 336.34 228.386C336.471 228.263 336.625 228.256 336.629 228.287Z" fill="#263238"/>
<path d="M337.191 227.829C337.214 227.851 337.184 227.917 337.127 227.976C337.069 228.035 337.004 228.066 336.981 228.044C336.959 228.022 336.988 227.956 337.046 227.897C337.104 227.838 337.169 227.807 337.191 227.829Z" fill="#263238"/>
<path d="M326.701 119.272L325.141 100.234L333.156 100.377C333.156 100.377 333.527 97.5701 332.346 91.4122C331.622 87.6362 329.107 85.3205 326.287 83.9445L326.287 83.8938L326.043 83.8298C322.456 82.1509 318.701 81.9141 318.701 81.9141L308.863 82.0277C308.863 82.0277 301.347 81.0901 297.187 86.4479C295.584 88.5119 290.626 102.637 290.626 102.637L302.435 108.324L301.311 100.491C301.311 100.491 301.534 106.171 302.259 107.97C302.663 108.973 303.832 112.085 303.832 112.085L303.679 121.48L326.701 119.272Z" fill="#CC0000"/>
<path d="M321.274 97.4708L319.813 103.693H333.59L332.684 93.2617L321.274 97.4708Z" fill="#CC0000"/>
<path d="M333.59 103.692C333.592 103.651 332.896 103.578 331.767 103.511C330.638 103.445 329.076 103.389 327.349 103.397C325.622 103.406 324.059 103.48 322.931 103.57C321.803 103.659 321.109 103.755 321.112 103.795C321.116 103.838 321.815 103.819 322.943 103.784C324.071 103.75 325.629 103.709 327.351 103.701C329.072 103.693 330.631 103.715 331.76 103.726C332.888 103.738 333.588 103.734 333.59 103.692Z" fill="#263238"/>
<path d="M320.679 93.2109C320.637 93.2125 320.623 93.8173 320.633 94.7933C320.644 95.7699 320.679 97.1171 320.737 98.6051C320.794 100.093 320.864 101.44 320.929 102.414C320.994 103.388 321.056 103.99 321.098 103.988C321.14 103.986 321.154 103.382 321.144 102.406C321.134 101.43 321.098 100.081 321.04 98.5933C320.983 97.1053 320.913 95.7592 320.848 94.7848C320.783 93.8115 320.721 93.2093 320.679 93.2109Z" fill="#263238"/>
<g opacity="0.3">
<path d="M308.144 98.5996C308.144 98.5996 311.206 121.303 319.813 120.701C319.813 120.701 323.689 120.656 324.935 118.08V117.066L308.144 98.5996Z" fill="black"/>
</g>
<g opacity="0.3">
<path d="M320.679 94.5488L319.031 105.678L320.098 107.632L321.854 103.813L321.111 103.795L320.679 94.5488Z" fill="black"/>
</g>
<path d="M303.833 112.086C303.815 112.093 303.733 111.903 303.6 111.555C303.467 111.207 303.289 110.698 303.083 110.064C302.672 108.798 302.164 107.024 301.766 105.027C301.37 103.029 301.176 101.191 301.113 99.8585C301.081 99.1924 301.071 98.6526 301.081 98.2798C301.088 97.907 301.101 97.7012 301.12 97.7012C301.165 97.7006 301.195 98.523 301.309 99.8452C301.422 101.167 301.645 102.988 302.038 104.973C302.433 106.958 302.909 108.73 303.271 110.008C303.44 110.6 303.585 111.105 303.703 111.521C303.804 111.879 303.851 112.08 303.833 112.086Z" fill="#263238"/>
<path d="M307.313 118.611C307.24 118.633 307.027 118.143 306.838 117.517C306.648 116.89 306.554 116.365 306.628 116.343C306.701 116.32 306.914 116.81 307.103 117.436C307.293 118.063 307.387 118.588 307.313 118.611Z" fill="#263238"/>
<path d="M308.503 118.524C308.432 118.542 308.2 117.807 308.188 116.864C308.172 115.921 308.383 115.18 308.454 115.196C308.533 115.21 308.45 115.95 308.466 116.86C308.476 117.769 308.582 118.507 308.503 118.524Z" fill="#263238"/>
<path d="M302.675 108.585C302.641 108.654 299.893 107.35 296.538 105.673C293.181 103.996 290.489 102.581 290.524 102.512C290.558 102.444 293.306 103.748 296.662 105.424C300.017 107.101 302.709 108.516 302.675 108.585Z" fill="#263238"/>
<path d="M307.518 83.8691C307.579 81.171 307.594 78.3294 307.594 78.3294C307.594 78.3294 304.134 77.6627 303.53 73.1091C302.955 68.7667 304.564 58.5774 304.564 58.5774C309.619 56.6664 314.872 58.3987 318.336 62.4947L317.476 84.4008C317.376 86.9438 315.11 88.8835 312.388 88.756C309.638 88.627 307.459 86.4398 307.518 83.8691Z" fill="#B78876"/>
<path d="M304.302 66.7203C304.283 67.0269 304.527 67.2957 304.847 67.3213C305.167 67.3469 305.442 67.1192 305.46 66.8125C305.479 66.5059 305.235 66.2365 304.915 66.2109C304.595 66.1853 304.32 66.4136 304.302 66.7203Z" fill="#263238"/>
<path d="M304.085 65.9558C304.155 66.0337 304.604 65.719 305.23 65.7366C305.855 65.7451 306.306 66.079 306.376 66.0043C306.41 65.9713 306.34 65.8326 306.144 65.6817C305.951 65.5318 305.619 65.3819 305.229 65.3734C304.839 65.3654 304.507 65.5003 304.315 65.6427C304.119 65.7857 304.05 65.9211 304.085 65.9558Z" fill="#263238"/>
<path d="M310.65 67.1163C310.632 67.423 310.876 67.6923 311.196 67.7179C311.515 67.7435 311.79 67.5158 311.809 67.2091C311.827 66.9024 311.583 66.6331 311.264 66.6075C310.944 66.5814 310.669 66.8096 310.65 67.1163Z" fill="#263238"/>
<path d="M310.608 66.3523C310.678 66.4301 311.128 66.1155 311.753 66.1331C312.378 66.1421 312.829 66.476 312.899 66.4008C312.933 66.3677 312.864 66.2291 312.667 66.0781C312.474 65.9283 312.142 65.7784 311.752 65.7699C311.362 65.7619 311.03 65.8968 310.838 66.0392C310.643 66.1821 310.574 66.3176 310.608 66.3523Z" fill="#263238"/>
<path d="M308.218 70.9339C308.221 70.8982 307.834 70.8214 307.206 70.7243C307.046 70.7035 306.896 70.6683 306.872 70.5584C306.837 70.4422 306.909 70.2715 306.991 70.0875C307.151 69.7046 307.319 69.3035 307.495 68.8827C308.196 67.167 308.708 65.7547 308.638 65.727C308.569 65.6992 307.944 67.0672 307.244 68.783C307.075 69.2059 306.913 69.6096 306.759 69.9952C306.694 70.1755 306.585 70.3787 306.66 70.6203C306.7 70.7408 306.815 70.8304 306.917 70.8608C307.019 70.895 307.108 70.8987 307.187 70.9056C307.821 70.9568 308.214 70.9696 308.218 70.9339Z" fill="#263238"/>
<path d="M307.594 78.3287C307.594 78.3287 310.64 78.6039 313.708 76.8652C313.708 76.8652 312.155 79.9426 307.627 79.4007L307.594 78.3287Z" fill="#A36957"/>
<path d="M312.611 64.5469C312.483 64.7426 312.007 64.6557 311.474 64.5597C310.943 64.4525 310.468 64.3581 310.42 64.1287C310.368 63.909 310.919 63.6045 311.63 63.741C312.342 63.8765 312.742 64.3618 312.611 64.5469Z" fill="#263238"/>
<path d="M306.389 63.6281C306.34 63.8563 305.831 63.9395 305.243 63.9694C304.655 63.9934 304.14 63.9571 304.071 63.7347C304.001 63.5193 304.498 63.1683 305.205 63.1374C305.912 63.1033 306.439 63.4067 306.389 63.6281Z" fill="#263238"/>
<path d="M308.228 72.4325C308.096 72.3957 307.948 72.4709 307.882 72.5909C307.803 72.7333 307.839 72.9295 307.964 73.0346C308.088 73.1397 308.287 73.1423 308.415 73.0405C308.542 72.9391 308.584 72.7439 308.509 72.5994C308.435 72.4549 308.252 72.3759 308.095 72.4207" fill="#A36957"/>
<path d="M308.374 72.4959C308.402 72.4708 308.273 72.3172 308 72.377C307.874 72.4047 307.709 72.5183 307.659 72.7124C307.608 72.8948 307.654 73.1311 307.847 73.2794C308.047 73.4202 308.288 73.3914 308.447 73.2831C308.617 73.1711 308.665 72.9663 308.639 72.8383C308.584 72.5572 308.376 72.5124 308.37 72.5514C308.347 72.5866 308.443 72.6842 308.424 72.8506C308.415 72.9322 308.376 73.0079 308.297 73.0463C308.22 73.0884 308.096 73.0884 308.027 73.0346C307.953 72.9823 307.916 72.866 307.931 72.7764C307.942 72.6868 308.001 72.6202 308.074 72.5791C308.222 72.4948 308.354 72.5343 308.374 72.4959Z" fill="#263238"/>
<path d="M316.239 67.8454C315.7 69.0955 314.383 70.0587 314.566 71.4081C314.684 72.279 315.243 73.0912 315.134 73.9638C314.997 75.0592 313.859 75.8187 313.698 76.911C313.501 78.2507 314.804 79.2918 315.324 80.5419C316.082 82.3622 315.112 84.4097 315.09 86.3814C315.055 89.4016 317.623 92.223 320.633 92.471C321.851 92.5713 323.222 92.2038 323.853 91.1579C324.374 90.295 324.27 89.1985 324.582 88.2401C325.047 86.8129 326.408 85.7681 326.695 84.2945C327.218 81.6081 323.971 79.3851 324.184 76.6566C324.276 75.4907 324.996 74.4737 325.301 73.3451C325.702 71.8667 325.335 70.2016 324.349 69.0294C323.548 68.0763 322.385 67.4497 321.703 66.4086C320.929 65.2278 320.902 63.7307 320.611 62.3494C319.9 58.9835 317.372 56.0598 314.144 54.8694C310.916 53.679 307.095 54.2614 304.369 56.359C304.369 56.359 303.593 59.8742 307.202 60.4619C310.81 61.0497 312.482 60.3713 312.889 61.8177C312.889 61.8177 312.478 63.5067 313.97 65.1206C315.462 66.7355 316.864 66.3979 316.239 67.8454Z" fill="#263238"/>
<path d="M321.998 92.2251C321.996 92.2347 321.884 92.2225 321.669 92.191C321.454 92.1574 321.14 92.0865 320.751 91.9435C319.981 91.6619 318.889 91.0486 317.959 89.8769C317.497 89.2961 317.064 88.5921 316.772 87.7643C316.473 86.9414 316.303 86.0086 316.287 85.0262C316.264 84.0433 316.404 83.0123 316.672 81.9809C316.806 81.4646 316.98 80.9494 317.182 80.4379C317.382 79.9243 317.627 79.4294 317.768 78.9057C317.92 78.3835 317.899 77.8502 317.763 77.3414C317.623 76.8326 317.387 76.3542 317.156 75.8811C316.924 75.4086 316.687 74.9371 316.535 74.4358C316.38 73.9387 316.321 73.4027 316.423 72.903C316.636 71.8982 317.246 71.1547 317.606 70.3915C317.987 69.6358 318.106 68.8369 318.088 68.1201C318.024 66.6673 317.405 65.5931 316.899 64.9739C316.372 64.3542 315.973 64.1179 315.993 64.0918C315.993 64.0918 316.416 64.2918 316.981 64.9035C317.523 65.5147 318.191 66.6038 318.285 68.1115C318.317 68.8545 318.203 69.6961 317.813 70.4923C317.445 71.2833 316.856 72.0321 316.675 72.9515C316.487 73.8779 316.926 74.8321 317.401 75.7606C317.633 76.2342 317.88 76.7238 318.03 77.2683C318.18 77.8091 318.201 78.4203 318.037 78.9771C317.886 79.5366 317.635 80.0379 317.44 80.5393C317.241 81.0406 317.069 81.5446 316.936 82.0497C316.67 83.0587 316.529 84.0641 316.545 85.0214C316.551 86.9441 317.211 88.6246 318.115 89.7542C319.001 90.9105 320.048 91.5345 320.792 91.8422C321.545 92.1478 322.004 92.1937 321.998 92.2251Z" fill="#455A64"/>
<path d="M321.467 65.3118C321.468 65.3294 321.187 65.3801 320.672 65.4302C320.159 65.4724 319.401 65.5321 318.475 65.3726C317.571 65.2073 316.428 64.7636 315.703 63.691C315.348 63.1529 315.207 62.5017 314.975 61.9006C314.758 61.2926 314.337 60.7662 313.76 60.4014C312.593 59.6617 311.221 59.571 310.02 59.4249C308.813 59.2889 307.68 59.0329 306.911 58.4569C306.137 57.906 305.741 57.1913 305.639 56.6761C305.581 56.418 305.585 56.211 305.597 56.0745C305.616 55.9374 305.631 55.8676 305.641 55.8692C305.675 55.8697 305.604 56.1625 305.744 56.6494C305.873 57.1316 306.273 57.7908 307.024 58.2958C307.764 58.8201 308.848 59.0489 310.05 59.171C311.24 59.3054 312.662 59.3796 313.911 60.1684C314.528 60.5534 315.006 61.1572 315.229 61.803C315.467 62.4377 315.599 63.0622 315.918 63.5529C316.568 64.5454 317.644 64.9993 318.512 65.1806C319.403 65.3604 320.153 65.3326 320.665 65.3236C321.179 65.3054 321.464 65.2916 321.467 65.3118Z" fill="#455A64"/>
<path d="M320.142 60.9683C320.145 60.9817 319.927 61.0499 319.517 61.0601C319.111 61.0713 318.503 60.9993 317.833 60.6809C317.5 60.5225 317.158 60.2953 316.842 59.9918C316.522 59.6899 316.261 59.2995 316.015 58.8878C315.534 58.0766 315.071 57.0761 314.074 56.6627C313.097 56.2435 312.02 56.3369 311.086 56.4003C310.142 56.4931 309.257 56.5209 308.535 56.379C307.809 56.2526 307.264 55.9518 306.961 55.6734C306.809 55.5358 306.705 55.4126 306.648 55.3214C306.588 55.2318 306.561 55.1827 306.569 55.1769C306.591 55.1598 306.718 55.3481 307.03 55.5897C307.34 55.8302 307.865 56.0878 308.568 56.1854C309.27 56.2974 310.115 56.2531 311.064 56.1454C312.003 56.0713 313.112 55.9529 314.186 56.4089C314.718 56.6345 315.151 57.0339 315.459 57.4665C315.774 57.899 315.999 58.3507 316.236 58.7587C316.471 59.1673 316.713 59.5401 317.004 59.8281C317.293 60.1198 317.61 60.3438 317.921 60.5054C318.546 60.8302 319.126 60.9305 319.519 60.9518C319.916 60.9753 320.139 60.9443 320.142 60.9683Z" fill="#455A64"/>
<path d="M323.589 91.0743C323.562 91.0621 323.731 90.7186 323.928 90.0621C324.123 89.4077 324.317 88.4242 324.284 87.2034C324.242 85.9911 323.951 84.5245 323.146 83.1309C322.756 82.4322 322.163 81.8103 321.681 81.0429C321.441 80.6599 321.234 80.2306 321.144 79.7554C321.055 79.2797 321.109 78.7746 321.261 78.3159C321.561 77.3954 322.096 76.6199 322.211 75.7735C322.354 74.9245 321.925 74.1501 321.52 73.461C321.314 73.1101 321.108 72.7634 320.948 72.4007C320.789 72.0381 320.687 71.6562 320.647 71.2871C320.566 70.5458 320.652 69.8647 320.707 69.2535C320.861 68.0354 320.748 67.0343 320.455 66.4194C320.17 65.797 319.797 65.6103 319.825 65.5847C319.827 65.581 319.849 65.5911 319.889 65.6157C319.929 65.6413 319.991 65.6749 320.059 65.7373C320.202 65.853 320.392 66.0583 320.552 66.3725C320.889 66.9949 321.034 68.0418 320.903 69.2706C320.859 69.8845 320.787 70.557 320.875 71.2594C320.946 71.9682 321.311 72.637 321.739 73.3309C321.947 73.6818 322.166 74.0482 322.32 74.4642C322.477 74.8765 322.549 75.3479 322.48 75.8109C322.351 76.7437 321.801 77.533 321.525 78.4002C321.382 78.8333 321.336 79.2781 321.415 79.7058C321.495 80.1335 321.683 80.5319 321.911 80.8999C322.369 81.637 322.964 82.2717 323.367 83.0034C324.186 84.4514 324.461 85.9602 324.479 87.1991C324.489 88.4466 324.26 89.4423 324.031 90.0951C323.911 90.421 323.81 90.6706 323.723 90.8317C323.644 90.9949 323.597 91.0786 323.589 91.0743Z" fill="#455A64"/>
<path d="M301.864 190.447C301.864 190.447 298.272 156.398 298.066 143.817C297.859 131.235 303.722 118.821 303.722 118.821L326.7 117.85C326.7 117.85 331.242 130.615 331.323 135.978C331.481 146.398 328.554 156.689 328.891 164.955L329.659 190.447" fill="#263238"/>
<path d="M330.429 148.588C330.434 148.597 330.304 148.695 330.054 148.873C329.99 148.918 329.92 148.967 329.844 149.02C329.772 149.081 329.703 149.158 329.622 149.235C329.461 149.39 329.273 149.566 329.11 149.809C328.368 150.718 327.827 152.341 327.312 154.366C327.029 155.372 326.742 156.501 326.149 157.606C325.99 157.875 325.848 158.161 325.639 158.412C325.539 158.54 325.448 158.677 325.338 158.8L324.985 159.154C324.505 159.626 323.897 159.982 323.257 160.263C321.97 160.826 320.519 161.094 319.192 161.759C317.857 162.409 316.856 163.67 316.243 165.121C315.596 166.566 315.203 168.083 314.664 169.499C314.134 170.905 313.411 172.273 312.265 173.137C311.128 174.033 309.722 174.238 308.505 174.316C307.268 174.388 306.122 174.352 305.095 174.508C304.072 174.65 303.165 174.974 302.523 175.479C301.88 175.985 301.504 176.618 301.328 177.161C301.145 177.711 301.178 178.174 301.239 178.469C301.298 178.769 301.382 178.912 301.363 178.92C301.363 178.92 301.263 178.785 301.184 178.482C301.104 178.184 301.051 177.704 301.224 177.13C301.392 176.562 301.765 175.897 302.426 175.358C303.089 174.817 304.022 174.472 305.066 174.314C306.112 174.143 307.271 174.168 308.49 174.086C309.695 173.999 311.041 173.787 312.11 172.934C313.193 172.111 313.889 170.794 314.41 169.403C314.94 168.003 315.33 166.484 315.99 165.007C316.609 163.53 317.671 162.19 319.07 161.517C320.449 160.832 321.902 160.573 323.155 160.028C323.78 159.758 324.36 159.422 324.819 158.975L325.159 158.641C325.264 158.524 325.352 158.392 325.449 158.271C325.651 158.032 325.791 157.755 325.947 157.496C326.531 156.43 326.829 155.314 327.123 154.314C327.66 152.299 328.24 150.65 329.025 149.742C329.198 149.5 329.396 149.326 329.567 149.175C329.651 149.099 329.726 149.025 329.802 148.966C329.881 148.916 329.954 148.87 330.022 148.827C330.286 148.662 330.425 148.58 330.429 148.588Z" fill="#FAFAFA"/>
<path d="M330.571 132.832C330.58 132.832 330.59 132.988 330.6 133.288C330.605 133.588 330.569 134.033 330.441 134.591C330.174 135.701 329.363 137.226 327.845 138.605C327.095 139.298 326.189 139.967 325.154 140.57C324.125 141.181 322.989 141.763 321.825 142.42C320.665 143.079 319.47 143.825 318.419 144.815C317.355 145.793 316.557 147.079 315.839 148.44C315.114 149.8 314.472 151.183 313.602 152.381C313.171 152.979 312.683 153.526 312.144 153.994C311.601 154.458 311.01 154.835 310.409 155.149C309.204 155.774 307.976 156.161 306.839 156.517C305.699 156.87 304.636 157.182 303.705 157.572C302.774 157.956 301.968 158.39 301.316 158.852C300.663 159.314 300.167 159.797 299.815 160.235C299.105 161.115 298.956 161.753 298.915 161.731C298.906 161.728 298.957 161.58 299.063 161.299C299.187 161.027 299.377 160.621 299.73 160.169C300.075 159.713 300.57 159.207 301.224 158.726C301.879 158.245 302.691 157.792 303.629 157.391C304.566 156.985 305.635 156.66 306.769 156.298C307.901 155.933 309.115 155.54 310.29 154.923C310.875 154.613 311.447 154.244 311.97 153.793C312.49 153.339 312.96 152.809 313.38 152.222C314.227 151.051 314.863 149.678 315.593 148.31C316.313 146.942 317.134 145.62 318.231 144.617C319.311 143.605 320.528 142.854 321.698 142.197C322.872 141.542 324.009 140.97 325.036 140.372C326.066 139.783 326.963 139.134 327.711 138.46C329.222 137.12 330.04 135.645 330.335 134.563C330.623 133.472 330.528 132.829 330.571 132.832Z" fill="#FAFAFA"/>
<path d="M298.182 145.62C298.178 145.621 298.162 145.586 298.135 145.516C298.113 145.445 298.063 145.342 298.032 145.199C297.967 144.914 297.926 144.464 298.085 143.92C298.382 142.834 299.562 141.483 301.463 140.806C302.409 140.481 303.482 140.285 304.6 139.992C305.705 139.695 306.909 139.278 307.809 138.353C308.255 137.897 308.633 137.354 308.947 136.758C309.252 136.156 309.505 135.509 309.743 134.842C310.221 133.512 310.622 132.066 311.434 130.752C312.241 129.428 313.554 128.508 314.913 128.047C316.269 127.549 317.636 127.328 318.905 127.036C320.178 126.759 321.367 126.4 322.377 125.854C323.372 125.288 324.164 124.536 324.726 123.738C325.876 122.138 326.178 120.5 326.219 119.417C326.244 118.317 326.069 117.718 326.105 117.713C326.105 117.713 326.318 118.302 326.326 119.42C326.318 120.519 326.044 122.197 324.886 123.852C324.32 124.677 323.514 125.461 322.489 126.055C321.454 126.627 320.24 127 318.963 127.285C317.687 127.586 316.329 127.813 315.009 128.302C313.681 128.759 312.447 129.63 311.67 130.9C310.886 132.166 310.484 133.595 310 134.934C309.758 135.606 309.5 136.263 309.182 136.881C308.857 137.495 308.46 138.06 307.989 138.536C307.034 139.504 305.776 139.925 304.659 140.216C303.525 140.502 302.458 140.686 301.525 140.993C299.676 141.624 298.502 142.919 298.189 143.952C298.021 144.471 298.042 144.905 298.087 145.188C298.147 145.469 298.194 145.615 298.182 145.62Z" fill="#FAFAFA"/>
<path d="M328.594 174.41C328.604 174.409 328.616 174.524 328.631 174.745C328.644 174.965 328.626 175.295 328.533 175.708C328.345 176.529 327.71 177.653 326.517 178.589C325.93 179.063 325.219 179.498 324.402 179.845C323.588 180.194 322.688 180.47 321.747 180.764C320.808 181.057 319.822 181.364 318.863 181.817C317.897 182.259 317.006 182.906 316.238 183.732C315.46 184.547 314.789 185.437 314.044 186.223C313.303 187.014 312.46 187.665 311.586 188.146C309.831 189.116 308.011 189.448 306.514 189.465C305.005 189.482 303.808 189.165 303.023 188.885C302.626 188.747 302.332 188.609 302.137 188.505C301.939 188.407 301.839 188.351 301.843 188.342C301.847 188.334 301.957 188.373 302.16 188.454C302.361 188.54 302.66 188.661 303.057 188.782C303.844 189.028 305.029 189.309 306.51 189.268C307.979 189.227 309.756 188.879 311.46 187.922C312.31 187.445 313.121 186.813 313.845 186.036C314.574 185.261 315.242 184.371 316.036 183.539C316.817 182.698 317.757 182.017 318.745 181.571C319.73 181.11 320.729 180.806 321.671 180.519C322.614 180.233 323.51 179.966 324.312 179.633C325.113 179.303 325.814 178.888 326.395 178.435C327.575 177.54 328.212 176.471 328.428 175.681C328.639 174.881 328.556 174.409 328.594 174.41Z" fill="#FAFAFA"/>
<path d="M325.976 103.715L321.533 103.82C321.241 105.316 320.528 106.34 320.528 106.34C316.813 99.8914 313.932 91.2514 313.217 87.7789C313.321 87.4322 313.445 87.0482 313.599 86.6194C313.777 86.1245 313.624 85.1869 313.541 84.6669C313.416 83.8935 313.2 82.8535 313.135 82.3719C312.937 80.9047 312.701 80.6743 312.189 80.8402C311.493 81.0658 312.474 84.9607 311.903 85.0455C311.597 85.0909 311.222 83.7565 311.113 82.6615C311.004 81.5666 310.509 78.1986 310.147 77.9741C309.616 77.645 309.154 78.1655 309.288 79.2557C309.423 80.3591 309.594 83.6503 309.016 83.6946C308.446 83.7383 307.967 78.1549 307.967 78.1549C307.967 78.1549 308.057 76.9399 307.387 76.9693C306.179 77.0215 307.123 82.9085 307.227 83.4663C307.299 83.8541 306.671 83.9255 306.616 83.5042C306.559 83.0706 306.268 77.9202 305.038 77.9613C304.093 77.9933 305.769 82.8125 305.239 83.9298C304.709 85.0466 304.34 80.1357 303.439 80.2034C303.103 80.229 302.855 80.2946 303.472 83.0738C303.803 84.5677 304.777 87.3138 305.627 89.5879C307.056 97.2946 313.327 121.948 323.158 117.435C328.659 114.91 330.891 103.718 330.891 103.718L325.976 103.715Z" fill="#B78876"/>
<path d="M307.018 83.8436C307.018 83.8436 307.062 83.8516 307.146 83.826C307.221 83.8031 307.37 83.7092 307.346 83.5177C307.333 83.187 307.282 82.7044 307.205 82.0809C307.148 81.4532 306.96 80.7001 306.96 79.8089C306.952 79.3625 306.964 78.8825 306.989 78.3737C307.006 78.1193 307.01 77.8553 307.067 77.6057C307.108 77.3641 307.271 77.0878 307.457 77.1209L307.477 77.1246L307.486 77.1241C307.676 77.1156 307.824 77.2633 307.885 77.4894C307.952 77.7054 307.968 77.9604 307.955 78.2036L307.954 78.2137L307.955 78.2206C308.08 79.5849 308.214 81.0788 308.525 82.6734C308.568 82.8729 308.612 83.0735 308.674 83.2756C308.705 83.3764 308.741 83.4783 308.785 83.5812C308.814 83.634 308.832 83.6841 308.876 83.739C308.914 83.7854 308.962 83.8665 309.099 83.8788C309.32 83.8622 309.384 83.6948 309.434 83.5988C309.482 83.4884 309.512 83.3791 309.534 83.2708C309.58 83.0537 309.603 82.8372 309.62 82.6196C309.679 81.7497 309.648 80.8622 309.584 79.9518C309.563 79.4916 309.45 79.0329 309.529 78.6158C309.565 78.4105 309.651 78.2036 309.791 78.1182C309.859 78.0766 309.936 78.0681 310.02 78.0894C310.063 78.1017 310.105 78.1188 310.147 78.1444C310.183 78.178 310.175 78.163 310.206 78.2228C310.385 78.6046 310.476 79.1017 310.576 79.5636C310.671 80.0356 310.753 80.5167 310.828 81.0031C310.903 81.4895 310.972 81.9817 311.03 82.4777C311.077 82.9732 311.149 83.4937 311.276 83.9945C311.34 84.2468 311.411 84.4985 311.516 84.7481C311.571 84.8734 311.627 84.9972 311.736 85.1252C311.776 85.1796 311.9 85.2814 312.056 85.2414C312.206 85.1913 312.249 85.0719 312.273 85.002C312.36 84.6953 312.334 84.4404 312.33 84.1721C312.319 83.9076 312.296 83.6457 312.274 83.3844C312.236 82.9353 312.193 82.491 312.178 82.0532C312.171 81.835 312.171 81.6169 312.194 81.4116C312.208 81.3113 312.225 81.2078 312.259 81.1337C312.275 81.0958 312.296 81.0681 312.311 81.0542C312.319 81.0457 312.324 81.0495 312.331 81.0409L312.401 81.0212C312.754 80.875 312.872 81.3673 312.966 81.7641C313.048 82.178 313.1 82.6052 313.183 83.026C313.323 83.866 313.503 84.7006 313.596 85.5033C313.635 85.9006 313.664 86.314 313.549 86.651C313.423 87.0366 313.298 87.418 313.175 87.7951L313.164 87.8292L313.172 87.8649C313.822 90.7326 314.722 93.2985 315.558 95.5764C316.402 97.8521 317.246 99.819 317.992 101.427C318.734 103.037 319.401 104.277 319.861 105.124C320.095 105.525 320.28 105.841 320.417 106.077C320.545 106.292 320.616 106.401 320.623 106.398C320.629 106.393 320.573 106.276 320.459 106.054C320.332 105.813 320.161 105.489 319.945 105.079C319.511 104.221 318.871 102.971 318.153 101.355C317.432 99.7396 316.61 97.7694 315.785 95.4932C314.969 93.218 314.084 90.6452 313.452 87.8073L313.449 87.8772C313.572 87.5049 313.697 87.1289 313.823 86.7486C313.966 86.3134 313.924 85.8884 313.888 85.4724C313.793 84.6382 313.618 83.8276 313.479 82.9838C313.397 82.5668 313.346 82.1385 313.26 81.7012C313.21 81.483 313.163 81.2633 313.043 81.0409C312.985 80.9332 312.896 80.8105 312.748 80.7444C312.6 80.6799 312.447 80.698 312.328 80.7273L312.238 80.7529C312.198 80.771 312.148 80.7924 312.117 80.8217C312.049 80.8809 312.01 80.9486 311.982 81.0116C311.926 81.1396 311.91 81.2574 311.893 81.3758C311.867 81.61 311.868 81.8377 311.875 82.0638C311.89 82.5161 311.934 82.9636 311.972 83.4111C311.994 83.6713 312.016 83.9305 312.027 84.186C312.036 84.435 312.045 84.7102 311.987 84.9028C311.974 84.9588 311.948 84.9481 311.978 84.9753L311.979 84.978C311.977 84.9598 311.984 85.0052 311.983 84.9977L311.981 84.9924C311.98 84.9854 311.981 84.979 311.983 84.9737C311.986 84.9689 311.997 84.9502 311.991 84.9492C311.987 84.9476 311.974 84.9406 311.959 84.9198C311.9 84.8521 311.841 84.7412 311.795 84.6308C311.7 84.4073 311.631 84.1646 311.569 83.923C311.447 83.434 311.378 82.9486 311.329 82.4446C311.269 81.9428 311.199 81.4484 311.122 80.9588C311.045 80.4692 310.962 79.9849 310.865 79.507C310.755 79.026 310.684 78.5636 310.459 78.083C310.445 78.0345 310.351 77.9268 310.292 77.8953C310.232 77.8596 310.165 77.8318 310.093 77.8116C309.95 77.7721 309.775 77.7902 309.642 77.874C309.378 78.0489 309.296 78.3268 309.248 78.5678C309.205 78.8164 309.211 79.0617 309.239 79.2985C309.266 79.5263 309.288 79.7492 309.306 79.9748C309.373 80.8729 309.407 81.7566 309.354 82.6014C309.339 82.8121 309.317 83.0206 309.277 83.2174C309.258 83.3161 309.231 83.4116 309.196 83.4937C309.179 83.5342 309.157 83.5721 309.138 83.5934C309.119 83.6377 309.101 83.5833 309.103 83.6553C309.13 83.6004 309.104 83.6308 309.083 83.5849C309.06 83.5598 309.041 83.5118 309.02 83.4745C308.982 83.3876 308.949 83.2958 308.919 83.2009C308.86 83.0116 308.815 82.8153 308.772 82.6217C308.455 81.0553 308.306 79.5577 308.169 78.2031V78.2201C308.181 77.946 308.163 77.6841 308.082 77.4271C308.042 77.3007 307.982 77.1716 307.874 77.0718C307.768 76.9689 307.615 76.923 307.479 76.9273L307.508 76.9305C307.293 76.8927 307.137 77.0222 307.048 77.1508C306.956 77.283 306.916 77.4265 306.884 77.5652C306.826 77.8452 306.827 78.1113 306.813 78.3668C306.794 78.8798 306.79 79.3625 306.805 79.8137C306.822 80.7236 307.027 81.4766 307.099 82.0969C307.192 82.7166 307.261 83.1977 307.291 83.522C307.325 83.6761 307.201 83.7753 307.136 83.8014C307.06 83.8324 307.017 83.8372 307.018 83.8436Z" fill="#A36957"/>
<path d="M272.283 111.057C272.283 111.057 270.808 110.987 269.194 111.411C266.44 112.136 261.685 115.017 261.488 118.577H264.942C264.942 118.577 263.008 122.694 263.576 122.313C265.05 121.324 267.986 118.341 267.986 118.341L272.283 111.057Z" fill="#B78876"/>
<path d="M319.391 49.0906C319.314 49.0976 319.001 46.2421 318.69 42.7141C318.38 39.1845 318.191 36.3189 318.267 36.3125C318.343 36.3056 318.657 39.1605 318.967 42.6901C319.278 46.2176 319.467 49.0837 319.391 49.0906Z" fill="#263238"/>
<path d="M334.541 36.4868C334.604 36.531 332.27 39.9177 329.331 44.0494C326.39 48.1828 323.956 51.4964 323.893 51.4521C323.83 51.4078 326.163 48.0217 329.104 43.8884C332.044 39.7566 334.478 36.4425 334.541 36.4868Z" fill="#263238"/>
<path d="M340.836 51.8335C340.851 51.9087 338.128 52.5317 334.755 53.225C331.38 53.9183 328.633 54.4197 328.617 54.3445C328.602 54.2693 331.324 53.6463 334.699 52.953C338.073 52.2602 340.82 51.7589 340.836 51.8335Z" fill="#263238"/>
<path d="M159.444 125.092L140.585 222.051L138.116 234.744L264.016 234.123C269.667 234.095 274.674 229.078 276.492 221.624L298.817 130.084C300.197 124.425 297.169 118.54 292.879 118.545L165.454 118.679C162.64 118.683 160.181 121.308 159.444 125.092Z" fill="#CC0000"/>
<g opacity="0.5">
<path d="M159.444 125.092L140.585 222.051L138.116 234.744L264.016 234.123C269.667 234.095 274.674 229.078 276.492 221.624L298.817 130.084C300.197 124.425 297.169 118.54 292.879 118.545L165.454 118.679C162.64 118.683 160.181 121.308 159.444 125.092Z" fill="black"/>
</g>
<path d="M251.939 215.481L238.609 108.064C238.063 103.662 234.557 100.379 230.417 100.393L201.187 100.488C199.024 100.495 196.95 101.415 195.413 103.049L181.533 117.803L100.239 118.227C95.271 118.253 91.4545 122.954 92.1132 128.235L104.49 227.517C105.037 231.912 108.537 235.191 112.671 235.182L254.349 234.902C270.129 235.229 271.635 230.569 271.635 230.569C253.552 234.577 251.941 215.493 251.939 215.481Z" fill="#CC0000"/>
<g opacity="0.5">
<path d="M190.848 193.982L186.07 199.113L149.269 166.007L154.047 160.875L190.848 193.982Z" fill="white"/>
<path d="M184.067 159.738L189.348 164.489L156.05 200.252L150.769 195.501L184.067 159.738Z" fill="white"/>
</g>
<path d="M272.17 55.3527C271.83 55.2065 271.585 54.8753 271.567 54.4801L271.354 49.5287C271.341 49.2172 271.474 48.9175 271.714 48.7191C271.954 48.5201 272.273 48.446 272.577 48.5175C273.373 48.7052 274.25 48.5319 274.985 48.0417C275.661 47.5905 276.115 46.926 276.23 46.2183C276.345 45.5132 276.127 44.7329 275.631 44.0769C275.101 43.3745 274.317 42.9015 273.529 42.8113C271.924 42.6263 270.19 43.8567 269.743 45.4983C269.599 46.0284 269.053 46.342 268.522 46.1975C267.983 46.0492 267.679 45.5063 267.823 44.9761C268.524 42.3959 271.186 40.5377 273.758 40.8337C275.091 40.9873 276.354 41.7319 277.218 42.8764C278.041 43.9644 278.396 45.2988 278.194 46.5383C277.99 47.7889 277.223 48.9399 276.089 49.6967C275.27 50.2433 274.33 50.5452 273.391 50.5777L273.556 54.3943C273.58 54.9436 273.153 55.4076 272.604 55.4311C272.45 55.438 272.303 55.4092 272.17 55.3527Z" fill="#CC0000"/>
<path d="M273.629 57.3759C273.66 57.8245 273.322 58.2133 272.873 58.2437C272.425 58.2746 272.036 57.9359 272.005 57.4874C271.974 57.0389 272.313 56.6501 272.761 56.6191C273.21 56.5882 273.598 56.9274 273.629 57.3759Z" fill="#CC0000"/>
<path d="M255.032 48.3709C255.039 48.3709 255.055 48.2611 255.08 48.0461C255.105 47.8141 255.14 47.4984 255.185 47.0925C255.209 46.6707 255.316 46.1608 255.443 45.5597C255.513 45.2611 255.549 44.9288 255.659 44.5928C255.763 44.2547 255.873 43.8957 255.989 43.516C256.506 42.0184 257.302 40.2221 258.642 38.4355C259.972 36.6525 261.842 34.8909 264.243 33.5565C265.425 32.8515 266.777 32.3603 268.195 31.9267C269.634 31.5859 271.16 31.2936 272.754 31.3315C273.552 31.2888 274.355 31.4056 275.175 31.4744C275.584 31.5133 275.986 31.6227 276.397 31.6941C276.809 31.7699 277.222 31.8504 277.625 31.9901C279.271 32.4125 280.871 33.1891 282.395 34.1517C285.455 36.0765 288.031 39.2083 289.444 43.0045C290.153 44.9037 290.492 46.9859 290.49 49.0888C290.532 51.196 290.124 53.3363 289.374 55.3512L289.133 55.9603L289.102 56.0408L289.135 56.116C290.472 59.1971 291.784 62.2189 293.055 65.1469L293.28 64.892C290.526 63.8339 287.855 62.8077 285.292 61.8232L285.194 61.7853L285.116 61.8605C282.9 64.0077 280.254 65.4589 277.574 66.2152C274.886 66.9731 272.179 67.012 269.716 66.5741C267.249 66.1373 265.027 65.1933 263.174 63.98C261.316 62.7667 259.826 61.2915 258.677 59.7923C257.537 58.2765 256.786 56.7224 256.218 55.3341C255.719 53.9155 255.413 52.6563 255.265 51.6141C255.202 51.0936 255.146 50.6307 255.097 50.2269C255.087 49.828 255.078 49.4888 255.071 49.2077C255.062 48.9459 255.055 48.7389 255.05 48.5832C255.043 48.4429 255.037 48.3709 255.032 48.3709C255.027 48.3709 255.023 48.4419 255.019 48.5827C255.017 48.7389 255.015 48.9453 255.011 49.2088C255.011 49.4909 255.01 49.8328 255.01 50.2339C255.051 50.6408 255.098 51.1075 255.151 51.6323C255.282 52.6845 255.573 53.9592 256.063 55.3987C256.619 56.8072 257.365 58.3875 258.508 59.932C259.659 61.46 261.159 62.9661 263.037 64.2088C264.909 65.4515 267.161 66.4227 269.666 66.8781C272.165 67.3336 274.917 67.3053 277.655 66.5427C280.385 65.7821 283.086 64.3107 285.349 62.1261L285.172 62.1635C287.733 63.1517 290.402 64.1821 293.155 65.2445L293.558 65.3997L293.38 64.9896C292.111 62.0605 290.801 59.0381 289.465 55.9565L289.466 56.1117L289.712 55.4893C290.479 53.4301 290.894 51.2408 290.851 49.0872C290.852 46.9379 290.503 44.8093 289.776 42.8696C288.328 38.9917 285.692 35.8051 282.571 33.852C281.016 32.8749 279.385 32.0909 277.708 31.6653C277.298 31.5251 276.877 31.4445 276.459 31.3688C276.041 31.2973 275.631 31.188 275.215 31.1496C274.383 31.0829 273.565 30.9683 272.755 31.0147C271.135 30.9837 269.585 31.2867 268.126 31.6413C266.688 32.0888 265.319 32.596 264.123 33.3181C261.696 34.6872 259.813 36.4872 258.483 38.3043C257.142 40.1245 256.356 41.9501 255.857 43.468C255.745 43.8525 255.639 44.2168 255.539 44.5587C255.434 44.8989 255.403 45.2344 255.338 45.5363C255.222 46.1443 255.125 46.6584 255.113 47.0835C255.083 47.4915 255.06 47.8104 255.043 48.0435C255.03 48.26 255.026 48.3704 255.032 48.3709Z" fill="#263238"/>
</svg>
