<svg width="207" height="206" viewBox="0 0 207 206" fill="none" xmlns="http://www.w3.org/2000/svg">
<circle cx="103.5" cy="103" r="101.5" stroke="#737373" stroke-width="3"/>
<g clip-path="url(#clip0_430_1930)">
<path d="M144.7 154.501H134.4V144.201C134.4 140.103 132.772 136.173 129.875 133.276C126.977 130.378 123.047 128.751 118.95 128.751H88.0498C83.9522 128.751 80.0224 130.378 77.125 133.276C74.2276 136.173 72.5998 140.103 72.5998 144.201V154.501H62.2998V144.201C62.2998 137.371 65.0127 130.822 69.8418 125.993C74.6709 121.164 81.2205 118.451 88.0498 118.451H118.95C125.779 118.451 132.329 121.164 137.158 125.993C141.987 130.822 144.7 137.371 144.7 144.201V154.501ZM103.5 108.151C99.442 108.151 95.4238 107.351 91.6749 105.798C87.9259 104.246 84.5195 101.97 81.6502 99.1002C78.7809 96.2309 76.5048 92.8245 74.9519 89.0755C73.3991 85.3265 72.5998 81.3084 72.5998 77.2506C72.5998 73.1927 73.3991 69.1746 74.9519 65.4257C76.5048 61.6767 78.7809 58.2703 81.6502 55.401C84.5195 52.5317 87.9259 50.2556 91.6749 48.7027C95.4238 47.1498 99.442 46.3506 103.5 46.3506C111.695 46.3506 119.555 49.6061 125.349 55.401C131.144 61.1959 134.4 69.0554 134.4 77.2506C134.4 85.4458 131.144 93.3053 125.349 99.1002C119.555 104.895 111.695 108.151 103.5 108.151ZM103.5 97.8506C108.963 97.8506 114.203 95.6802 118.066 91.817C121.929 87.9537 124.1 82.714 124.1 77.2506C124.1 71.7871 121.929 66.5474 118.066 62.6842C114.203 58.8209 108.963 56.6506 103.5 56.6506C98.0363 56.6506 92.7967 58.8209 88.9334 62.6842C85.0702 66.5474 82.8998 71.7871 82.8998 77.2506C82.8998 82.714 85.0702 87.9537 88.9334 91.817C92.7967 95.6802 98.0363 97.8506 103.5 97.8506Z" fill="#737373"/>
</g>
<defs>
<clipPath id="clip0_430_1930">
<rect width="123.6" height="123.6" fill="white" transform="translate(41.7002 41.2002)"/>
</clipPath>
</defs>
</svg>
