<svg width="60" height="60" viewBox="0 0 60 60" fill="none" xmlns="http://www.w3.org/2000/svg">
<circle cx="30" cy="30" r="28.5" stroke="#281814" stroke-width="3"/>
<g clip-path="url(#clip0_434_2025)">
<path d="M42 45H39V42C39 40.8065 38.5259 39.6619 37.682 38.818C36.8381 37.9741 35.6935 37.5 34.5 37.5H25.5C24.3065 37.5 23.1619 37.9741 22.318 38.818C21.4741 39.6619 21 40.8065 21 42V45H18V42C18 40.0109 18.7902 38.1032 20.1967 36.6967C21.6032 35.2902 23.5109 34.5 25.5 34.5H34.5C36.4891 34.5 38.3968 35.2902 39.8033 36.6967C41.2098 38.1032 42 40.0109 42 42V45ZM30 31.5C28.8181 31.5 27.6478 31.2672 26.5558 30.8149C25.4639 30.3626 24.4718 29.6997 23.636 28.864C22.8003 28.0282 22.1374 27.0361 21.6851 25.9442C21.2328 24.8522 21 23.6819 21 22.5C21 21.3181 21.2328 20.1478 21.6851 19.0558C22.1374 17.9639 22.8003 16.9718 23.636 16.136C24.4718 15.3003 25.4639 14.6374 26.5558 14.1851C27.6478 13.7328 28.8181 13.5 30 13.5C32.3869 13.5 34.6761 14.4482 36.364 16.136C38.0518 17.8239 39 20.1131 39 22.5C39 24.8869 38.0518 27.1761 36.364 28.864C34.6761 30.5518 32.3869 31.5 30 31.5ZM30 28.5C31.5913 28.5 33.1174 27.8679 34.2426 26.7426C35.3679 25.6174 36 24.0913 36 22.5C36 20.9087 35.3679 19.3826 34.2426 18.2574C33.1174 17.1321 31.5913 16.5 30 16.5C28.4087 16.5 26.8826 17.1321 25.7574 18.2574C24.6321 19.3826 24 20.9087 24 22.5C24 24.0913 24.6321 25.6174 25.7574 26.7426C26.8826 27.8679 28.4087 28.5 30 28.5Z" fill="#281814"/>
</g>
<defs>
<clipPath id="clip0_434_2025">
<rect width="36" height="36" fill="white" transform="translate(12 12)"/>
</clipPath>
</defs>
</svg>
